<mxfile host="app.diagrams.net" agent="Mozilla/5.0 (Windows NT 10.0; Win64; x64) AppleWebKit/537.36 (KHTML, like Gecko) Chrome/134.0.0.0 Safari/537.36" version="26.1.0">
  <diagram name="Page-1" id="RnQLoY5yJftUwEYKX0yQ">
    <mxGraphModel dx="4168" dy="2037" grid="1" gridSize="10" guides="1" tooltips="1" connect="1" arrows="1" fold="1" page="1" pageScale="1" pageWidth="827" pageHeight="1169" math="0" shadow="0">
      <root>
        <mxCell id="0" />
        <mxCell id="1" parent="0" />
        <mxCell id="Q_0qKVpdYoUNWuueckCM-5" value="&lt;font style=&quot;font-size: 42px;&quot;&gt;&lt;b&gt;Proces odpovídání na dotaz&lt;/b&gt;&lt;/font&gt;&lt;div&gt;&lt;font style=&quot;font-size: 42px;&quot;&gt;&lt;b&gt;zadání dat&lt;/b&gt;&lt;/font&gt;&lt;/div&gt;" style="rounded=0;whiteSpace=wrap;html=1;gradientColor=#FF8E72;strokeWidth=5.118099999999999;" parent="1" vertex="1">
          <mxGeometry x="-40" y="-20" width="590" height="110" as="geometry" />
        </mxCell>
        <mxCell id="Q_0qKVpdYoUNWuueckCM-8" value="&lt;b&gt;STOCK RATING&lt;/b&gt;&lt;br&gt;&lt;div&gt;&lt;br&gt;&lt;/div&gt;&lt;div&gt;&lt;span style=&quot;background-color: transparent; color: light-dark(rgb(0, 0, 0), rgb(255, 255, 255));&quot;&gt;- Hodí data do AI a vyhodnotí skóre&lt;/span&gt;&lt;/div&gt;&lt;div&gt;&lt;span style=&quot;background-color: transparent; color: light-dark(rgb(0, 0, 0), rgb(255, 255, 255));&quot;&gt;- Výsledek uloží do JSON podoby&lt;/span&gt;&lt;/div&gt;" style="rounded=0;whiteSpace=wrap;html=1;" parent="1" vertex="1">
          <mxGeometry x="289" y="420" width="198" height="100" as="geometry" />
        </mxCell>
        <mxCell id="Q_0qKVpdYoUNWuueckCM-19" style="edgeStyle=orthogonalEdgeStyle;rounded=0;orthogonalLoop=1;jettySize=auto;html=1;exitX=0.5;exitY=0;exitDx=0;exitDy=0;entryX=0.5;entryY=0;entryDx=0;entryDy=0;" parent="1" source="Q_0qKVpdYoUNWuueckCM-15" target="Q_0qKVpdYoUNWuueckCM-17" edge="1">
          <mxGeometry relative="1" as="geometry" />
        </mxCell>
        <mxCell id="Q_0qKVpdYoUNWuueckCM-15" value="BURZA MODUL" style="rounded=0;whiteSpace=wrap;html=1;" parent="1" vertex="1">
          <mxGeometry x="-1020" y="285" width="120" height="60" as="geometry" />
        </mxCell>
        <mxCell id="Q_0qKVpdYoUNWuueckCM-17" value="ZPRÁVY MODUL" style="rounded=0;whiteSpace=wrap;html=1;" parent="1" vertex="1">
          <mxGeometry x="-680" y="285" width="120" height="60" as="geometry" />
        </mxCell>
        <mxCell id="Q_0qKVpdYoUNWuueckCM-20" value="chci vyhodnocení akcií &quot;1,2,3,4,....&quot;" style="text;html=1;align=center;verticalAlign=middle;whiteSpace=wrap;rounded=0;" parent="1" vertex="1">
          <mxGeometry x="-870" y="205" width="130" height="30" as="geometry" />
        </mxCell>
        <mxCell id="Q_0qKVpdYoUNWuueckCM-23" value="" style="curved=1;endArrow=classic;html=1;rounded=0;exitX=0.5;exitY=1;exitDx=0;exitDy=0;entryX=0.5;entryY=1;entryDx=0;entryDy=0;" parent="1" source="Q_0qKVpdYoUNWuueckCM-17" target="Q_0qKVpdYoUNWuueckCM-15" edge="1">
          <mxGeometry width="50" height="50" relative="1" as="geometry">
            <mxPoint x="-780" y="415" as="sourcePoint" />
            <mxPoint x="-730" y="365" as="targetPoint" />
            <Array as="points">
              <mxPoint x="-730" y="415" />
              <mxPoint x="-830" y="415" />
            </Array>
          </mxGeometry>
        </mxCell>
        <mxCell id="Q_0qKVpdYoUNWuueckCM-25" value="Tady máš ID kde si najdeš ten svůj dotaz. Kontroluj si to na /output/ID_dotazu/status" style="text;html=1;align=center;verticalAlign=middle;whiteSpace=wrap;rounded=0;" parent="1" vertex="1">
          <mxGeometry x="-875" y="425" width="180" height="30" as="geometry" />
        </mxCell>
        <mxCell id="Q_0qKVpdYoUNWuueckCM-26" value="BURZA MODUL" style="rounded=0;whiteSpace=wrap;html=1;" parent="1" vertex="1">
          <mxGeometry x="-1040" y="655" width="120" height="60" as="geometry" />
        </mxCell>
        <mxCell id="Q_0qKVpdYoUNWuueckCM-27" value="ZPRÁVY MODUL" style="rounded=0;whiteSpace=wrap;html=1;" parent="1" vertex="1">
          <mxGeometry x="-700" y="655" width="120" height="60" as="geometry" />
        </mxCell>
        <mxCell id="Q_0qKVpdYoUNWuueckCM-32" value="" style="endArrow=classic;html=1;rounded=0;entryX=0.5;entryY=0;entryDx=0;entryDy=0;exitX=0.5;exitY=0;exitDx=0;exitDy=0;" parent="1" source="Q_0qKVpdYoUNWuueckCM-26" target="Q_0qKVpdYoUNWuueckCM-27" edge="1">
          <mxGeometry width="50" height="50" relative="1" as="geometry">
            <mxPoint x="-810" y="765" as="sourcePoint" />
            <mxPoint x="-760" y="715" as="targetPoint" />
            <Array as="points">
              <mxPoint x="-810" y="575" />
            </Array>
          </mxGeometry>
        </mxCell>
        <mxCell id="Q_0qKVpdYoUNWuueckCM-33" value="&lt;div&gt;Request na /output/ID_dotazu/status&lt;/div&gt;Už je to ready?" style="text;html=1;align=center;verticalAlign=middle;whiteSpace=wrap;rounded=0;" parent="1" vertex="1">
          <mxGeometry x="-870" y="525" width="130" height="30" as="geometry" />
        </mxCell>
        <mxCell id="Q_0qKVpdYoUNWuueckCM-34" value="BURZA MODUL" style="rounded=0;whiteSpace=wrap;html=1;" parent="1" vertex="1">
          <mxGeometry x="-1035" y="935" width="120" height="60" as="geometry" />
        </mxCell>
        <mxCell id="Q_0qKVpdYoUNWuueckCM-35" value="ZPRÁVY MODUL" style="rounded=0;whiteSpace=wrap;html=1;" parent="1" vertex="1">
          <mxGeometry x="-695" y="935" width="120" height="60" as="geometry" />
        </mxCell>
        <mxCell id="Q_0qKVpdYoUNWuueckCM-38" value="Pending/Ready/404(když bude nějaká chujovina dotazu)" style="text;html=1;align=center;verticalAlign=middle;whiteSpace=wrap;rounded=0;" parent="1" vertex="1">
          <mxGeometry x="-870" y="745" width="130" height="30" as="geometry" />
        </mxCell>
        <mxCell id="Q_0qKVpdYoUNWuueckCM-39" value="" style="endArrow=classic;html=1;rounded=0;entryX=0.5;entryY=1;entryDx=0;entryDy=0;exitX=0.5;exitY=1;exitDx=0;exitDy=0;" parent="1" source="Q_0qKVpdYoUNWuueckCM-35" target="Q_0qKVpdYoUNWuueckCM-34" edge="1">
          <mxGeometry width="50" height="50" relative="1" as="geometry">
            <mxPoint x="-790" y="1105" as="sourcePoint" />
            <mxPoint x="-740" y="1055" as="targetPoint" />
            <Array as="points">
              <mxPoint x="-810" y="1125" />
            </Array>
          </mxGeometry>
        </mxCell>
        <mxCell id="Q_0qKVpdYoUNWuueckCM-40" value="Printne to zpracovaná data v jsonu" style="text;html=1;align=center;verticalAlign=middle;whiteSpace=wrap;rounded=0;" parent="1" vertex="1">
          <mxGeometry x="-857.5" y="1025" width="105" height="30" as="geometry" />
        </mxCell>
        <mxCell id="Q_0qKVpdYoUNWuueckCM-41" value="" style="endArrow=classic;html=1;rounded=0;entryX=0.5;entryY=1;entryDx=0;entryDy=0;exitX=0.5;exitY=1;exitDx=0;exitDy=0;" parent="1" source="Q_0qKVpdYoUNWuueckCM-27" target="Q_0qKVpdYoUNWuueckCM-26" edge="1">
          <mxGeometry width="50" height="50" relative="1" as="geometry">
            <mxPoint x="-890" y="705" as="sourcePoint" />
            <mxPoint x="-840" y="655" as="targetPoint" />
            <Array as="points">
              <mxPoint x="-810" y="805" />
            </Array>
          </mxGeometry>
        </mxCell>
        <mxCell id="Q_0qKVpdYoUNWuueckCM-42" value="" style="endArrow=classic;html=1;rounded=0;entryX=0.5;entryY=0;entryDx=0;entryDy=0;exitX=0.5;exitY=0;exitDx=0;exitDy=0;" parent="1" source="Q_0qKVpdYoUNWuueckCM-34" target="Q_0qKVpdYoUNWuueckCM-35" edge="1">
          <mxGeometry width="50" height="50" relative="1" as="geometry">
            <mxPoint x="-625" y="1005" as="sourcePoint" />
            <mxPoint x="-965" y="1005" as="targetPoint" />
            <Array as="points">
              <mxPoint x="-810" y="845" />
            </Array>
          </mxGeometry>
        </mxCell>
        <mxCell id="Q_0qKVpdYoUNWuueckCM-43" value="dojde na /output/ID_dotazu" style="text;html=1;align=center;verticalAlign=middle;whiteSpace=wrap;rounded=0;" parent="1" vertex="1">
          <mxGeometry x="-857.5" y="875" width="105" height="30" as="geometry" />
        </mxCell>
        <mxCell id="Q_0qKVpdYoUNWuueckCM-46" value="" style="shape=image;verticalLabelPosition=bottom;labelBackgroundColor=default;verticalAlign=top;aspect=fixed;imageAspect=0;image=data:image/png,iVBORw0KGgoAAAANSUhEUgAAASsAAAHgCAYAAAD9i0vDAAAAAXNSR0IArs4c6QAAAARnQU1BAACxjwv8YQUAAAAJcEhZcwAADsMAAA7DAcdvqGQAADx2SURBVHhe7d0LdFTVvT/w3+WRBMgDAwnhqRCQIApESRCCUoXVhdCilFpYVynU0nqXyqNixUd7a6+Aj6sU8LHUP9eLRW+hlqJYudYCFhWQICagQCAElEfIA5AkAyQRuP/z3Tl7OBkmmZkkkzkbvp+1ZmXOOTlnzkxyvvntPZO9/6Vtu3b/J0RELtfC/kpE5GoMKyIyAsOKiIzAsCIiIzCsiMgIDCsiMgLDioiMwLAiIiMwrIjICAwrIjJCo8Jq2dLXZX9+nnyw5j17DRFReDQ4rGbNnCFp/dJk9q/nyOgxP7TXEhGFR6Mqq1MejxQVF9tLREThwz4rIjJCg8OqU6dkqayqks2bP7PXEBGFT8hhNf6O22VHzueSPmgg+6qIqNmEHFar3nlXBqQPlpzc7XwXkIiaTYObgcXFJRITHS1Dh95oryEiCh92sBORERhWRGSERoVVYmKiDMnMtJeIiMKnUbPb4N9tsrKGyd78fL4zSERhxam4iMgI7LMiIiMwrIjICAwrIjICw4qIjMCwIiIjMKyIyAgMKyIyAsOKiIzQsnVU1BP2fddJbh0r7w34hcS2iJIrWrWVP/WfIlvKv5Hi7yrUdqz/77R/lQlJA+XDE3lS/X/n1HpfC1Jvl95tOsrWikP2mstPoNeyIXreN0myPnhVWifESs9775TrFj0iZbl5cvrAEfs73O/mjW9Kn4emStXxk5L199ckcch1cuQvH9pbyU1cXVmdPlctR6vK7SURz7kqKaq+sHy5QvCsvnaaDGjXxV4TWDheS0/eATlXWWUviZwt80jl0VJ7SSRzxXMyzrNVRu1aLXH9etlrRd3HOmzDDd+nXTNvhnc9bggTX/q4+F7wPR5uvo/pPK5zW+XhIvVV8+w7aN8jtzGiGZh/5ph1YVWI5+yFCwM856vlrt3L1A33KbC6XsuGOl9VLWeOlFx0kSNkYrqlSNH7G+w1F/R74j4p/3KvrI7NkC8ffl4Sh1+vqjTY9fhitR63zeMekJjOHb3bAKHTPuNaqSw5bq+5YN+iZd59114zTip271frEW49pt6hjue7Daq/LZfy7XtU2JJ7Gfu/gd+/oq8svnqCur/m2E55sOBddV9D029Mx/72ksgLhzbIS4Ub7SX/sE+Op1B+1jlTukQnSGFVmUza+YaUfOdR1cxyq+mE9eA8nu+28rOVMi1vuapclvSdJL85sEZ2nCpU3+dcRmW0JG2SxLeKUfvN2LtSPvx2j7rvfH6gH8/3eYE+zzut5nCq1dzVr8X9XbJqLdcHgyg+/+wz6v7sh+c02dj6CIr4666WLRNm1QoIDRXOkJULpXDVWhVUTggpNNFypv1OStdvkaRbh0j6kt/L16/9RXr8dJx3n/qOgW2D33xavv6vv8qBl5fba8lExnaw46JO2zJfXcS+cEEDtuOGMAsWggoXPvbLrTisAgD9PE/2Giuz8lep9YO3PicD4rqpsNFB9fQ3a9W2m79YLEWO5lZdsN+cHiPlBzte8+43JSVTrcfjTUgeJD/5aqnahpsORgQPvnfvqRLv9ltzX1KBaqKOt2RKi5goKV23xV5TU5WhuXbds7Pl8J/WqKCCfk9Ol5Nbv5Kj765Xy756z5zsberpJiKO3/qKeOn6o1Hebf6aluR+l9y7gbjYe7dJkqVFW+01oVlZkuu98BEMCIleVnWSHttV/nztVMkb8ph8nvGQjGifKilRcTLIWo++oE1lB9Q+wcJ+N8R3l4+vn6GOia992iZZx4xXTdpTVnWGx0N11BxQSQ27aYS6NdeMRaiU+j7+y1qBBB9n3e1tBqL5huDR4ZM98SH11QkVG5p2ugmI5mDPf5vobT62ToiT6uMn1baPMiZKlBVe+nhkDn50IUg5niOqotKVDm66ydZQqPicx8vctkA1DwFBiXWAMNPV4qUCQXXDsqfk4NJ3Lmq6aQiwE59+IQmD0qTL+FHSfmBfVRndsnWFtO3RWVVSvh3pgCrtu7IL73Li/oFX31b3EWzoo4rt3UMtkzkuubDCu14V56rkpoSeahmViW8fT6jQ99THqq6mpGTYay5AZ3WX6HhVfaH59ofe4yXFWtZiW0WrCgwesZp9ehv2G25VZ+ibqg8qOzT32rWKUccH/Rz1cZ06WZUZvg9N1Cmdh9hrA0Of1aZPNqhbuCcBQcWT+faCeoMKEGjofMfHIZyVE6qj0wePqgrKt7Mc8DGK85XVcuyjbHXD/aSRNa8FjolO+9INn6vlQDDA5P78PHlq/lx7DUWKsR3sCKHp3UfYSzV0R7uz4xrrCs4cU9t1v09dUL3ge/19n29nuLPz3XkuK4pzVJNRd6I7t71e+JmkWk29lw5/orb5dqJvKz8k9+6xqoaWUX477HXVBc599bmA3g/r/vtotnUuXSLSwY6O9ZSxtX8+J7fvUU089BmhSnJC+KATPn3Jf3i3nauqll2/feGijnHfDnW9jGoL9LF0iCEcr3lyurSMrgl7hFx9IemEkJp4549l48ZNMnnqPfZaigSOFNrEfN/xI7NhUt/f/+638v7/fiCPPvYbey1FAvusiOqASXyf/89nGFQucVlVVv4+o6QF8zmsYLCyIgoPNgOJyAhsBhKRERhWRGQEhhURGYFhRURGYFgRkREYVkRkBIYVERmBYUVERmBYEZERXB1W+NeV9YPuVyMXYJSB7BseVKMfmATnjueQGtNB3uo3uUnGpcKoBRjHqeuk22T0kfW1JlwINzxWMCNtYqSDscc3qkHusA/OE8OzEDWUq8OqMTOyICRCDQaMA4VACTTGVCgwQYOTHq6mMUyYkSXQzDdEoTKiGdjUM7I0NwRusXX+xU04jZgJM7LUNfMNUUMY+4/MqIJe7TtRjWMOegA6jGHuHCRP06Mq+A6ipwe8wyigvoP5NXSWGn+z7dQFI1FmZAyWV15bIgsXBTcgXF30TC4YWbPzHSPVYHPOgeicA+JVl1XItsmPemeNwRDDUQk1I486t4HvQHoYRO/QW39T46fvmfead3A8fF99M9kQNYaxYYWm2ujEtDpDAc3AYKahQlPxgxN5ajx1HYBvFGXXGl/dN5x8l53HCFVThxVGzAQEBugRNaHj9zLVSJ2AviTnshNCBzA5g28AYRnzAeoRP9Ekxff5jt5J1NSMfTdQj2GOzmuER7B0pz0mYcAN41thfPXGQD8UhhhuSOc5hspN6z+g0UHlhMBAsOCGMcoRHggmPeECbphsAbO8IGRwc85ojCoKgYT1CCp9PF+ortr17qG+D1NenTtTKYfe/Ju9lahpGRtWqGgwGwyafhh3PNh3CjFpA+YD1DPKhDKnYF3QvMSxUF0hANFJryd3cBPnjMW46ckWMEMyYCIGrPc3i7I/mIyhZZsY6X73DyRpxGA5te+g31AjagrGhpWGCRswyeenJwtqzfaCTnk904uG+1in35FDuKE60zBfHzrB/VVadc1S44RmICYgBUz6EAw0A/N27pBZM8M7jx2aa5iDz9/HB1BFocMeQaNnlAEsYz2qMkDT0dl3he2oujBNFiowPd1VMDC2+Y6cz5tlNh26NBgbVuiT0k053MDZZ6QnHcWEpNiO70cYoT8KHelYt7DPePnf47vV92mYHBVTWGG7rtYQiJj8FE09rEcTFPMIAgIQlRTW44bJSvEYbpshGf1Kp78ulKGrX/Q293TfFJpzcWk9a9a9vUBObtul1sPu374gba/qorYhlL5+/a/2lhqYo69VQqwKNedEpYEUFReLx3NKYmPbSUqnTvZaorpxWGNqFP1OYqA5AP1BVZmamtokU3/Rpc/4ZiBFFiYUxWe9QulYR5MXTV8GFYWClRU1CPqv8I6i72eyiMKFYUVERmAzkIiMwLAiIiMwrIjICAwrIjICw4qIjMCwIiIjMKyIyAgMKyIyAsOKiIzg6rDSA+VhxIRAs9tg4Dt8X7jg2DiXppylRg+Tsj8/r1mGiSEymavDqjGz29QHwRNq2IRjlhqoqq6WxS++3OSjhRJdaoxoBrpldptwzFJDRMEx+h+ZUR1hDHUt0Aw2vdp0rHfmG1Rczhlu9PpgPDV/rky888ey4u2/yKOP/cZeWz80Ax97dI689T/LWVURBWBsB7tuxvkbS12Pz663oRIaltDTux4hhO/X23Ug6bHUccPwxMMSeoU0GQURhY+RYYUA6d0mSQ1B7E9DZ7BBJ75zeOI+bZPUPITBQDXVq09a0FUVEYXG2MqqPg2ZwQYB98iVo2TG3pXeyqrI0blPRJFlZFjhXcKKc1Vyk9W0A/Q16b6rQDPYgL+Zb1BB/Yv1FR35cGfSQL8z2NQFfVb4CAK+ElHTMzKsMEvNMwfXeWehwczL6IfS2wLNYONv5hv0Z+VY1difr52q1g2I6+adwYaIIo/DGkcQ3w0kCt4l2WdFRJcehlWERUdFyYwH7uO/2xAFwGYgERmBlRURGYFhRURGYFgRkREYVkRkBIYVERmBYUVERmBYEZERGFZEZASGlR/Llr6uRlD4YM179hoiijSGlQ/8y0tavzSZ/es5MnrMD+21RBRpDCs/Tnk8UlRcbC8RkRswrIjICAwrH506JUtlVZVs3vyZvYaI3IBhZdOzI6cPGsi+KiIXYljZVr3zrgxIHyw5udv5LiCRCzGsfBQXl0hMdLQMHXqjvYaI3IBhRURGYFgRkREYVn4kJibKkMxMe4mI3IBjsPuBf7fJyhome/Pz+c4gkUswrIjICGwGEpERGFZEZASGFREZgWFFREZgWBGRERhWRGQEhhURGYFhRURGYFgRkRFato6KesK+T81sQert8tOUTNnuOSIrr71HYltEydaKQ/bW5pPcOlbeG/AL9fhXtGorf+o/RbaUfyPF31XY3xG6nvdNkqwPXpXWCbHS89475bpFj0hZbp6cPnDE/o6mdfPGN2Xg4kel72O/lJbt2kjp+i32FjMk3TpEbv50mSQOuU4S0tMk8+0FctZzWk5u/cr+DmJlFUEFZ47Z92rk+yw3l9PnquVoVbm9JOI5VyVF1ReWG8KTd0DOVVbZSyJnyzxSebRUhdjY4xtlnGdrrduoXaslrl8v+7tD93HW3fJRxkQ5ffCovaZx/J1nY8+xPnht8BppeO3wGtIFDKsIK7ZCobi6olZYRArCssg6F8/ZCyHTGOerquXMkRLx7DtorxE58PJyeb9DlqyOzZCT2/dI0fsb1P2114yTit377e+KPH2eXz78vFSWHJfN4x5olnPEa4XXDK8d1cZ/ZHahAe26yP3dblL3R7RPVV9n7F0pH367R91H83FMx/7qPmBbrtWU/EPv8bLPCpyJndJl3tf/kJ91rhnmZtLON6TkO4/c3yVLpncfodYVVpV51weCUVOff/YZdX/2w3OabDINNN0qDxdJ9sSH7DU1sL79wL7qPiqlLRNmqZBAtXPNk9OlZXSU2oawQ0WloeoZsnKhFK5aK7seX2yvFclc8ZykjK153oCA9H3MuuAx+zw0VXKm/c7btMS6q37+I3U/rm9P9XXfomXex9Tn0bZHZ7XsfA7UcKysXCo9tqucOlspaVvmqzCakpKp+pTgwYJ31XrcfvLVUpmQPEjaWds6R8dLXMsoeeHQBpluhd3T36xVVVJKVLx8/4q+ktqmo3c/bHukx0h1PDdBsCDAUG3hVv7lXun3xH1qW/e7fiAHXlnh3eYMqvogmPQ+qJDir7ta9RE1RturulpNtWp1TARVl/GjVEjpoKr+ttz7mG6rGk3FsHKpIqtZ+PTBdTX3raZZXMtoaWsFEaBCyhvymLr9+dqp0scKobYtW6tgWlq0VX3PpycLVLWljU5MU9WY3m/x1ROkkxViOgDrg0pq2E0j1C2cU5ThQkeQoArS/US4H9MtRW1HiPWeOVlVXqG4Zt4M7/GGrn5Rojt1kNi0moqoob4rq5Ddv31B3UezrUVMlMR0TpKOt2Sq+3obNR2GlWHQRPyxVUmhotKVVbB9TKjQdGWF2127l4nnvLv6Rs6dqVT9RLoqwU1XULpCOvbP7KA7vFFB9Zh6h6p+sC8qKwQNmYdhZZiUqDhBJ6N+t25qSobEtopW9+uDdx4fuXKU+phCqNBntemTDeoWzll/0FRC0yr1gX+tN4TQN4TQAVQz9dEVFKofwMcoWifEqfvhcOyjbDlvPQc8jj94XgjZ0UfWh9QU1T8DzG2JOS4vRwwrw2wqO6DeOfz4+hmqOVfh87GDurxUuFFyKw5798MNzUm3yZn27+rrLVtXeJtuaMbpi9zZnENHOjq99Tbsg05tNBX1fnhX7/TXhXLds7PVuna9e1jLgT/rpT+6gP1ikjuoxwumkkPgbn9gniQOv957rsHsFwia3+UV5RIVFSVXXnmlvfbywncDiQzx1Py5Mva20fK73z+pJuW93LCyInI5NPvQ/LucgwpYWRGREVhZEZERGFZEZASGFREZgWFFREZgWBGRERhWRGQEhhURGYFhRURGYFgRkREYVhGEET/f6jdZUmM6yPpB94f1H4sxtEz2DQ+qf2DGY/obxwrng/NoyMgMpmrOnwE1DsMqgppzwogdpwolc9sCNaZVqDDKaF0BZ7pw/AycgyMGO7oFXmPnPrhhHV3AsIowN00YgeGSb819Kahx2S8lTfkzQAU7IK6bDN76nBrg8OYvFsuwhF5BVavbyg9598NNj7lPNfiPzC6FX/olaZMkvlWMWtYTPGA89bk9x8i0PctVqOD79DIs7z9FukQnqPv+JoXAX2uM537vnhXeUUKdj4ULRm/DBeY8nrbm2E41fPKiPuNlZv4qVbUBKghcmM5j+4MK7dW+E+WG+O5q2fc8nRNiOLf5viYYax7jdAH2yfEUqkkycL7O/Xyfh3O/QJYtfV0yMgbLK68tkYWLLkxCURf9WCtLctVjBPua+Pu5UG2srFwIFyWCYFrecvUXNtihi3FhojLSf5lxwdyZNNDeWre6moj6eFjv/KuPCgz75FQclpsSakbiRADhonyjKDvgxTbM2gfVjD5PZzWH0MHY8Pqx9Dbf1wQVCybKcDaVEFQIKGzHQIN47jivJ3uNlVlWqGI9jovKB8cLB5zruB3/T70WaMphko5gh49GeH+e8ZDa71JtdjcGw8qFEAAIAl2xBAu/3Pgl130emHYLF0u4oLrChY/H7WU9Di5IjGQaCCbAGN4+9aLOfNzv3SZJnjm47qKLG8M5O18ThAICCZNlaAhnHXoIVFQ2OC/MFISJNfCaIAwwvRmOF4zJU++RtP4DgqqqAM9h9YBfWK/DfhWMCN5gggdNPoSpDlT4j563qa9Ug2F1CZmSkqG+6qoEzZ1w2n/mmLoIUSkhYHdY4RFMBaErOVRBaDLhXcpwVTqQ4znifU30LVz9QYOsYETf1xtWkOO1+NW+VWpmIoRmsGpCn1N3+WJYuRDekRpkVSz4K43bQqv545wUIs66j74rBMWcHiO921BFoXmFX3bsh2ZSU/CdCkzD46DZh74WNHveLt1ubwkOqiA08zBtGCodLO87U6omwfCFc0h3NN/wFcufBKjkMLEGqi8d5KFCn1Xezh0ya+YMe01gmL9Rv1b4OeHnpenqt76PiOif3Qcn8uw1BOxgdylnJ/PrhZ/JcCsMdKe6cxtmXsacgPgLjgtDd0CXn62Uv1jNIoQAmkTo28FcgU66Mx2VUV3bdKXkfEx0sOOYgAsL1RGaZHpdIOh01jNDg/N4uJjr6nz3fQ7oS3POUo2PIfjrOEew+XuzQjcZ6xNqBzv4Pj/neernh0BznkN9z41qMKwMgIvN+Q6gm+iwwgzPvLgonNgMpEbBO27oowmmY52oMVhZGcCNlZVutvhrUjmbjL5C+YwTkRPDioiMwGYgERmBYUVERmBYEZERGFZEZASGFREZgWFFREZgWBGRERhWRGQEhhURGYFh5YD/sN+fnycfrHnPXkNEbsGwcsCokHf9dKrEx8XLU/Pn2muJyA0YVj42b/5MyisiP9MMEdXGsCIiIzCs/CgtKZVuXcI3JjgRhY5h5Qf6riDUsbeJKHw4npUfeFcQdGgRUeSxsvIjKTlJDhdePGcf3iHERxt0mBFR82FYhaC4uESqq6tVmBFR82JYhWBLdracOPGt6oAnoubFsPIxdOiN6kOhvtD0e+uPS6WgoIB9WUQRwA52BwRSVtYw2ZufL6PH/NBeS0RuwLAiIiOwGUhERmBYEZERGFZEZASGFREZgWFFREZgWBGRERhWRGQEhhURGYFhRURGYFj5wVluiNyHYeUDI4Om9UuT2b+ew/8PJHIRhpUfpzweKSoutpeIyA0YVkRkBIaVj06dkqWyqkrNH0hE7sGwso2/43bZkfO5pA8ayL4qIhdiWNlWvfOuDEgfLDm52/kuIJELMax8YFKImOhoNbwxEbkHw4qIjMCwIiIjMKz8SExMlCGZmfYSEbkBJ4zwg7PcELkPw4qIjMBmIBEZgWFFREZgWBGRERhWRGQEhhURGYFhRURGYFgRkREYVkRkhJato6KesO9TM1uQerv8NCVTtnuOyMpr75HYFlGyteKQvbX5JLeOlfcG/EI9/hWt2sqf+k+RLeXfSPF3FfZ3hK7nfZMk64NXpXVCrPS89065btEjUpabJ6cPHLG/o2ndvPFNGbj4Uen72C+lZbs2Urp+i73FDEm3DpGbP10miUOuk4T0NMl8e4Gc9ZyWk1u/sr+DWFlFUMGZY/a9Gvk+y83l9LlqOVpVbi+JeM5VSVH1heWG8OQdkHOVVfaSyNkyj1QeLbWXai7O0UfWy6hdqyWuXy97bcN9nHW3fJQxUU4fPGqvaRyE7djjG2WcZ6v31lTn6g9eG7xGGl47vIZ0AcMqwoqtUCiurqgVFpGCsCyyzsVz9kLINMb5qmo5c6REPPsO2msuSBo5RE5u2yXnzlRKx1vc90/jB15eLu93yJIvH35eKkuOy+ZxD8jaa8ZJxe799neEB14rvGZ47ag2/m+gCw1o10Xu73aTuj+ifar6OmPvSvnw2z3qPpqPYzr2V/cB23KtpuQfeo+XfVbgTOyULvO+/of8rHNNCEza+YaUfOeR+7tkyfTuI9S6wqoy7/pAMBDh888+o+7PfnhOk4xPP3ztEjny17WSNGKwWs6e+JD6iuacJ2+/JI8eLlEJcVJdViHbJj+qtg188XE5sTlXuk28TS2f3L5HVVQaqp4hKxdK4aq1suvxxfbamiruhmVPqeNB0fsbvI8XCCqsPg9NlZxpv/M2LbHuqp//SN2P69tTfd23aJn3MfV5tO3RWS2j2tsyYVbYg+5Sx8rKpdJju8qps5WStmW+CqMpKZmqTwkeLHhXrcftJ18tlQnJg6Sdta1zdLzEtYySFw5tkOlW2D39zVpVJaVExcv3r+grqW06evfDtkd6jFTHa24IjxZtYuTYR9lSuuFzade7R63mVec7Rsqeea/J6tgMOf11oerzglYJsZI4dJBq7qHSiencUQVHfXDca/9ztvd42BePF2i/QNpe1dVqqlWrYyKouowfpR5LB1X1t+VqG27NUZFdDhhWLlVkNQufPriu5r7VNItrGS1trSACVEh5Qx5Ttz9fO1X6WCHUtmVrFUxLi7aq7/n0ZIGqtrTRiWmqGtP7Lb56gnSyQkwHYH1QSQ27aYS6NUVVpcMHFzACC5xNwdK1m1UzDI79M1tiuqWo+2gaFbz4P2o/VDmVR49Jm67JaltdcFwEy3XPzlb9TrdsXaGqoUD7BfKdVfHt/u0L6j6abS1ioqzwTFKPh/t6GzUdhpVh0ET8sVVJoaLSlVWwfUyo0HRlhdtdu5eJ53zz9o2g8oi/7mppP7BvrfDQzcFwOP31EVVR6UoHN2czkczAsDJMSlScoJNRv1s3NSVDYltFq/v1wTuPj1w5Sn1MIVTos9r0yQZ1a+xEGrryQDNOBwc6sX2bgoBlNK9QXflCMw7NwNJ19X9EAe+oRad0lH5P3GevCS9Uiuet5qGuHn3hOeFdRbwTiuZwsPTPANPFYdq4yxHDyjCbyg6odw4/vn6Gas5V+HzsoC4vFW6U3IrD3v1wQ3OyuaGCQvPN+TkoHSjd7/6BWk4ZO8JbdZV/uddbBbWIjvI25655crrkP7dUHUcHAL4fndq9Z06u+Z55M9R29FcljRqq1uEWTFAgDPHRBTxeTHIHGbr6xaA+uoAm6vYH5kni8Ou9j9cUH3lA87u8olyioqLkyiuvtNdeXvhuILkK3g2sPFx00bt1CJf0Jb9XAaX7sy43T82fK2NvGy2/+/2Tap7Lyw0rKyKX07OFX85BBQwrIpfTs4XjdrkGFbAZSERGYGVFREZgWBGRERhWRGQEhhURGYFhRURGYFgRkREYVkRkBIYVERmBYUVERmBYRRCGJ36r32RJjekg6wfdH9ZREDAOVvYND6rRFvCY/gbdw/ngPBoyjIypmvNnQI3DsIqg5pzdZsepQsnctkANwBcqDIlcV8CZLhw/A+dIrqGEP4JT74f7VBvDKsLcNLsNxna/NfeloCaRuJQ05c8AwY4x8W/+YrF3rHtM5BEo6LEfYB/sOyium3cd1eA/MrsUmm1L0iZJfKsYtaxno8HkD3N7jpFpe5arUMH36WVY3n+KdIlOUPf9zWCDCwCTT9y7Z4V3SGPnY20rP+TdhorAeTxtzbGdaqz3RX3Gy8z8VapqA1QUwxJ61Tq2P7hwX+07UW6I766Wfc8TVYWevce5zfc1wcQYGFQQsE+Op1DN6IPzde7n+zyc+wWybOnrkpExWF55bYksXBR4KGTdjNTHx2MjrH61b1Wtn0MgeD6o+oI9z8sBKysXwkWJIJiWt1z9pQ12nHVcDKiM9BjrK0ty5c6kgfbWutXVRNTHw3qE2OCtz6njogLDPjkVh+WmhJqpqBBACKo3irIDjus+zNoH1Yw+T2c1h4sUE1nox9LbfF8TVB+oYJzVB4IKAYXtGBUVzx3n9WSvsTLLClWsx3EHWFULjhcOaEbiddCVFM6hT9sk9UcmWAi43m2S5JMyTnLqxLByIQQAgkBXLMHCBYK+Jd3vgTkCMf1WuKC6woWPx+1lPQ5CCsMuB4LZeoa3T72oP0dfpM8cXHdR4GHseedrggBDIGFmHw3hrEMPgYqqBOeFac0wCxBek88zHlJzMeJ4wZg89R5J6z8gqKoKMLcjghiPg8dLtkIq/3Rp0DNc47VEJfb3E7tD/vlf6hhWl5ApKRnqq65K0NwJp/1WFYGLC5USAnaHFR6BqirQlRyqIDTP8C5luCodyPEc8b4m+qYnjA0H57yOK0u3q9cEU/QHgtcSzeNNZfvZ/PODYeVCaEqggxWVBm4LreaPcwabOOs+mhX45Z7TY6R3G6oo/FXHxYH90ExqCr7zFmp4HDT70AeGps/b1oUZCt3MxByHqHSwvO9MqZqxxxfOId3RfMNXLAdqKqGiQfWlgzxU6LPK27lDZs2cYa8Jnv7ZoeLTIY6fGapff1Xl6gG/YFDVgx3sLuXsZH698DMZboWB7lR3bsM08ZjAFB24CDDdAV1+tlL+Yl0kCAH8pUffDiY2ddKd6aiM6tqmLzLnY6KDHccEXGSojtAk0+sCQSe0nsYenMfT1YW/znff54C+NOeU+nV1SCPY/L1ZoZuM9Qm1g12/HujMx88AfWzO5px+fpg923kOvq8JhHKelwOGlQFwsTnfAXQTfXHiLfpwNq2I2AykRsG7Xfh8UjAd60SNwcrKAG6srHSTzF9Txdlk9BXKZ5yInBhWRGQENgOJyAgMKyIyAsOKiIzAsCIiIzCsiMgIDCsiMgLDioiMwLAiIiMwrBzwT6v78/PkgzXv2WuIyC0YVg4YaO2un06V+Lh4eWr+XHstEbkBw8rH5s2fSXlF5CdvIKLaGFZEZASGlR+lJaXSrUv4htklotAxrPxA3xU0dDhbImp6HCLGD7wrCDq0iCjyWFn5kZScJIcLL54GCe8Q4qMNOsyIqPkwrEJQXFwi1dXVKsyIqHkxrEKwJTtbTpz4VnXAE1HzYlj5GDr0RvWhUF9o+r31x6VSUFDAviyiCGAHuwMCKStrmOzNz5fRY35oryUiN2BYEZER2AwkIiMwrIjICAwrIjICw4qIjMCwIiIjMKyIyAgMKyIyAsOKiIzAsCIiIzCs/OAsN0Tuw7DygZFB0/qlyexfz+H/BxK5CMPKj1MejxQVF9tLROQGDCsiMgLDykenTslSWVWl5g8kIvdgWNnG33G77Mj5XNIHDWRfFZELMaxsq955VwakD5ac3O18F5DIhRhWPjApREx0tBremIjcg2FFREZgWBGRERhWfiQmJsqQzEx7iYjcgBNG+MFZbojch2FFREZgM5CIjMCwIiIjMKyIyAgMKyIyAsOKiIzAsCIiIzCsiMgIDCsiMgLDKoIWpN4ub/WbLKkxHWT9oPvl/i5Z9pbmldw61vv437+ir2Tf8KAMaNfF3towPe+bJGOPb5Rr5s2QzBXPyegj6yXp1iH2VnIz/fPqOuk2GbVrtdy88U17S2QxrCKo4Mwx+16NfJ/l5nL6XLUcrSq3l0Q856qkqPrCckN48g7Iucoqe0nkbJlHKo+W2kuiggsXBC6GuH697LXkD8JjnGdrrRvWhYtn30H7Xo3Kw0X2vchiWEVYsRUKxdUVtcIiUhCWRda5eM5eCJnGOF9VLWeOlFz0yw9JI4fIyW275NyZSul4C/9pvD7ZEx+S1bEZUvT+Bjm5fY+6j3XhhD8u5dZjVX8b+d9Ljf8b6EJogt3f7SZ1f0T7VPV1xt6V8uG3e9R9NB/HdOyv7gO25XqOyB96j5d9VuBM7JQu877+h/ysc00ITNr5hpR851HNvOndR6h1hVVl3vWBYCDC5599Rt2f/fCcJhmffvjaJXLkr2slacRgtYyLD03Hq37+I7Xc9qqucvSdddL5jpFSVXxctkyYJf2euE9SxtacP+DixX6ozIasXChte3S2t4hUl1XItsmPSun6Leq41zw5XVpGR6ltej/n48X17am+7lu0THY9vljdr4/vY54+eFSdY8Xu/arp23vmZLUecMzSdVtk4IuPS2VhiSTeOFAOr/hfSR49XG3X5xkIqqmYbinycdbd9hpRTbTq4yelQ1a6en7O8wB/5xLM83MjVlYulR7bVU6drZS0LfNVGE1JyZTYFjUX24MF76r1uP3kq6UyIXmQtLO2dY6Ol7iWUfLCoQ0y3Qq7p79Zq6qklKh41ReV2qajdz9se6THSHW85oYmYIs2MXLso2wp3fC5tOvdw9sUREidsiqxCqsZiYv5wCsrpEVMlMR0TvJWGLhtHveAxF93tToWLsy114zzbjvx2XbZM+81b1D1ffyXsuu3L3j3Sxx+vbqI9eOdq6xW23Ahdxk/KmCzVAcVqg79mHh8HVQ9pt6hHgfrv3z4ebWc8sPvSauEWPW8EZYI4YNL31HVZ2xaTVA2FIIKz++jjIlqufvdP1BfcS49/22iOgd9nqYGFTCsXKrIahY+fXBdzX2raRbXMlraWkEEqJDyhjymbn++dqr0sUKobcvWKpiWFm1V3/PpyQJVbWmjE9NUNab3W3z1BOlkhZgOwPqgkhp20wh1a4qqque9d6qvuLgRWKCbgt9ZFdGBV99W9098+oVqRmq4+HSfzdDVL0p0pw4XXeioPk5s2SEHXl6ultt0TZbTXxd6lxFgWI61AhLweLutCx3wWDoY64Nzxffp/ZxwXJy3rpTw/NCkiup4hQqmQ2/9Ta1HGKPaagqlazer54fXEwGqn1vH72V6t10KGFaGQRPxx1YlhYpKV1bB9jGhQtOVFW537V4mnvPV9tbmgaoEFVH7gX1V6NyydYVqgunmYF0SBqWpCgXVDyoEVC4IGieEGZpJJlcPVDeGlWFSouIEnYz63bqpKRkS2ypa3a8P3nl85MpR6mMKoUKf1aZPNqhbYyfS0FWJbibpphKagqiU6tKme4r6qistVGetE+LUfUBzEJVEzrR/t9fUwPe3vaqLag4CvmIZzc9g6HfidLMRUC2dt5qOukJ0wpsJaGbqj2mgSYbmX1nObrXcnI79M7vWufjC+oa8I/vU/LmyPz9PDVLZnBhWhtlUdkC9c/jx9TNUc67C52MHdXmpcKPkVhz27odbJD7XhQqq8uixWh3K+JhDdEpHuWLwhTcNfBW990/VfLvu2dkqPBBup7+uaebiQkPnNao1VGrYjs94IZjQBELfkN4PX7HcmKYRmlvbH5inggDHxE1f8Kjq0AxEMxXr0WeE/rOy3Dx779DpwMSbC7oiDeajC77ngpszdBsKM0BVV1dLUnL9zeWmxncDiSgk+t3hgoICmTz1Hntt+DGsiChoen6CjRs3NWtQAcOKiIzAPisiMgLDioiMwLAiIiMwrIjICAwrIjICw4qIjMCwIiIjMKyIyAgMKyIyAsOKiIzAsIqg5pzdBuNgYdYajLaAx/Q36B7OB+fRkGFkTOWWGYYoMIZVBDXn7DY7ThVK5rYFagC+UGFI5LoCznRN/TNwjuKqb8FMbYbXFq9xKPtcbhhWEeam2W0wtvutuS8FNYnEpaQpfwYYN8w5GitGcsUQ1YGmNpuSkiGbyvZ79/vN/vfVwIp0AUddcCn8VV2SNkniW8WoZT0bDSZ/mNtzjEzbs1yFCr5PL8Py/lOkS3SCuu9vBhtUSZh84t49K7xDGjsfa1v5Ie82NAedx9PWHNupxnpf1Ge8zMxfpao2QFUxLKFXrWP7gyri1b4T5Yb47mrZ9zyds/c4t/m+JpgYA+EA2CfHU6hm9MH5OvfzfR7O/QLBkCgZGYPlldeWyMJFoQ+XjPNC9Rbo8fBzmdtrrEzLWy77re/H64PwCvY8LwesrFwIFyWCAL+4+q9zMOOs48JEZaT/Oq8syZU7kwbaW+tWVxNRHw/rEWKDtz6njosKDPvkVByWmxJqJmxAACGo3ijKDjiu+zBrH1Qz+jyd1RwubkxkoR9Lb/N9TW7+YrGa1QcXuYagQkBhO0ZFxXPHeT1phcAsK1SxHscdENdNHS/c8Bi92yTJ26Xb7TV1wzRreG4I488zHlKvI4OqNoaVCyEAEAS6YgmWb78H5gjE9FvhguoKFz4et5f1OAgpDLscCGbrGd4+9aLOfNzHxf3MwXUXBR7Gnne+JggwBBJm9tEQzjr0EKi42HFemNYMswDhNUEQYC5GHC8YGGAurf+ABlVVaMb9/cRu7znVB6GLoEJg4Y8Tqix29tfGsLqEoN8DdFWC5k44oblSU1H1VAG7wwqPQFUV6EoOVRCaZ+HuTM7xHPG+JvqmJ4wNF4TPICvIg6mqAFOlvXF0i3ptcEOfFSpVvL5Ug2HlQnhHCr/oqDRwW2g1f5wz2MRZ99F3hV/kOT1GerehikLzCoGB/dBMagq+8xZqeBw0V9AHhgsr2AtTQ8WBZh7mOESlg+V9Z0r9dizjHNIdzTd8xfInASo5dGyj+tJBHir0WeXt3CGzZgY/0QJ+LnhNnJWehm2ofn2rSnBWwc6KkWqwg92lnJ3Mrxd+JsOtMNCd6s5tmCYef5V/tW+VCjDdAV1+tlL+Yl0sCAE0ifCXHhObOunOdFRGdW3TlZLzMdHBjmMCLjhUR2iS6XWBoHmjp7EH5/FwMdfV+e77HNCX5pxSv66ObASbs2Pe3xsPdWlIBzvOE9Oe+XsM/fwwe7Zze33Pm2owrAyAi835DqCb6LDCdPThblrR5Y3NQGoUvOOGzycF07FO1BisrAzgxspKN8n8NVecTUZfoXzGiciJYUVERmAzkIiMwLAiIiMwrIjICAwrIjICw4qIjMCwIiIjMKyIyAgMKyIyAsOKiIzAsHLAf9jvz8+TD9a8Z68hIrdgWDlgVMi7fjpV4uPi5an5c+21ROQGDCsfmzd/JuUVkZ9phohqY1gRkREYVn6UlpRKty6cYJLITRhWfqDvCkIde5uIwofjWfmBdwVBhxYRRR4rKz+SkpPkcOHFc/bhHUJ8tEGHGRE1H4ZVCIqLS6S6ulqFGRE1L4ZVCLZkZ8uJE9+qDngial4MKx9Dh96oPhTqC02/t/64VAoKCtiXRRQB7GB3QCBlZQ2Tvfn5MnrMD+21ROQGDCsiMgKbgURkBIYVERmBYUVERmBYEZERGFZEZASGFREZgWFFREZgWBGRERhWfnDiCCL3YVj5wGB7af3SZPav5/BfbohchGHlxymPR4qKi+0lInIDhhURGYFh5aNTp2SprKpSU3IRkXswrGzj77hdduR8LumDBrKvisiFGFa2Ve+8KwPSB0tO7na+C0jkQgwrHxhnPSY6Wo0YSkTuwbAiIiMwrIjICAwrPxITE2VIZqa9RERuwDHY/eDEEUTuw7AiIiOwGUhERmBYEZERGFZEZASGFREZgWFFREZgWBGRERhWRGQEhhURGYFhRURGYFhF0ILU2+WtfpMlNaaDrB90v9zfJcve0rySW8d6H//7V/SV7BselAHtuthbG6bnfZNk7PGNcs28GZK54jkZfWS9JN06xN5KTSmuXy8ZtWu1uuF+Y+mfV9dJt6lj3rzxTXtLZDGsIqjgzDH7Xo18n+XmcvpctRytKreXRDznqqSo+sJyQ3jyDsi5yip7SeRsmUcqj5bWCjFNXxzD1/3XRRec/v6h77+svo7zbK11cx6nPrjgGrKfW+B8myqMAvHsO2jfq1F5uMi+F1kMqwgrtkKhuLqiVlhECsKyyDoXz9kLIdMY56uq5cyRklq//AdeXi4HXlkhPabeoSothFHi8Otlz7zXZPsD89T39HviPvUVut/1Ayldu1k2j71P3u+QJatjM9Rt36JlcnL7Htn1+GL7O/3TVUfUFfHyUcZE7/6B9jNJxe79svaaceqG+00Bf1zKrde3+tvI/15q/EdmF0IT7P5uN6n7I9qnqq8z9q6UD7/do+6j+TimY391H7At13NE/tB7vOyzAmdip3SZ9/U/5Geda4a5mbTzDSn5zqOaedO7j1DrCqvKvOsDwaipzz/7jLo/++E5TTKZBiqdmM4d1f2TW7+S7IkPqfsIr76P/1KFF/R5aKrkTPudlK7fopYBITfwxcdVuDnX+4Pj+TuGhoql98zJ9pKoEESQIeQGv/m0lOXmSec7RkrL6Cg5ffCobJkwSzrekilX/fxHKoiT7aZt0fsbvM+hrmPiXOraD8/phmVPSVRCnFpfXVYh2yY/qu4712sI6o+z7q71WHqdhucwZOVCadujs1rW549Aw+tfffykdMhKr/XcmirswoGVlUulx3aVU2crJW3LfBVGU1IyJbZFlNr2YMG7aj1uP/lqqUxIHiTtrG2do+MlrmWUvHBog0y3wu7pb9aqKiklKl71RaW26ejdD9se6TFSHS8Sdv/2BWlhXSTnK6tl9xMv22trKq8Tn36hLurUB/5VDv9pzUUh0+/J6VK4am3AoII2XZPVY6AJ6gsXOiq8zeMeUNXWlw8/r5YRKtCyTYwkDh0kHw+frKoy6H73D9TXtld1lagO7b37tc+4VgVOoGNiv/NnKi/aD8/lg663qvW44TXoee+d3vUIPASKrg51KCEEsYzQc9JBVf7lXu8xUSWlL/kP+ztEBdUu6+fg+9zcimHlUkVWs/Dpg+tq7ltNs7iW0dLWCiJAhZQ35DF1+/O1U6WPFUJtW7ZWwbS0aKv6nk9PFqhqSxudmKaqMb3f4qsnSCcrxHQA1geV1LCbRqhbU01RFpvWU1rGREurhFirwkqy19Y48OrbEp1SU3UdevNv6quGMIBgm3GxvXvY9y6GbQgFHXrHPspWzR8EnIZQRLWhm1r6cb+zKh8ELmC/76wgwHMKdEzsh+cHCOYPe41W36ubq7pPLWXsCInplqK+ryH0a6ofC479M1s1h/FYgOY1zgHPDUFW32vlBgwrw6CJ+GOrkkJFpSurYPuYUKHpygq3u3YvE8/5antr88HFgqrp+MYcdSGjUnLCxXv660JVFTibJdiv4/cyvSERDPSX+QtEt9H9dLpy8q2UiGFlnJSoOEEno363bmpKhsS2ilb364N3Hh+5cpT6mEKo0Ge16ZMN6tYUs/7oC3PnnAVS8OL/SJxVkeiKqT7YD+9M6aolGKjM/AUiIMjQuY9mGKAZhGArXRf88QH7ocmIKqqhx0QVheoG4Yx9cQwn9HO1iIkKOnR1sxdNSUDQdxk/6qI/AA3x1Py5sj8/T42o25wYVobZVHZAvXP48fUzVHOuwudjB3V5qXCj5FYc9u6HWyQ+14VQSho1VIUULho0Q9Ac6flvE739Ov5gG/ZD88j5EQR87KE+eAx0HKP549wP54EmHZpsQ1e/qNbhHNCxH0wYtk6I8+6HPil09uOxGnrMQ2/9TYU29sl8e4Gc3LbL3lIDr1Pl0WPe4+rPPuH5YxmvS/uBfb3bcC44J4Qe1t2ydYUKQ/0mQGNgurrq6mpJSm7eapXvBhKFCMFZ3zuMlzr97nBBQYFMnnqPvTb8WFkRUdDQ9Hvrj0ubPaiAYUVEQUNA9eqT1uxBBWwGEpERWFkRkREYVkRkBIYVERmBYUVERmBYEZERGFZEZASGFREZgWFFREZgWEVQc04YgaFlMBEE/oEZj+lvHCucD86jISMzmMotk3ZQYAyrCGrOCSN2nCqUzG0L1JhWocIoo3UFnOma82fg/INR3x8Nf5wDLl6qP4tAGFYR5qYJIzBc8q25LwU1LvulpLl+BvoPBgY+HLy1ZmibYQk91df64I/FsIReah/su6lsv/xHz9vsrZcP/m+gS+Gv8JK0SRLfKkYt6wkeMJ763J5jZNqe5SpU8H16GZb3nyJdohPUfX+TQuAXH+O537tnhXeUUOdjbSs/5N2G5qDzeNqaYzvV8MmL+oyXmfmr1EUI+OuPi8p5bH9QFbzad6LcEN9dLfuep3NCDOc239cEY81jnC7APjmeQjVJBs7XuZ/v83DuFwhGGcjIGCyvvLZEFi5quhlxcE5L+k6S3xxY4339/NGv1RtF2WrCEL2M8fZ9f7aXOlZWLoSLEkEwLW+5+ksa7NDF+MVFZaSHLV5Zkit3Jg20t9atriaiPh7WI8T0X3ZUYNgnp+Kw3GRXBriIEFS4qAINlYxqAtWMPk9nNYfQwdjw+rH0Nt/X5OYvFquJMhC+GoIKFzC2Y6BBPHec15O9xsosK1SxHscdENdNHS8SdHMOgyD+/cTueoMKMO4+xt/HOPwIuNUDfiEfnMjzTgRyOWFYuRACAEEQ6BfZFy5M9Gfovg1Mu4UZbcIF1RUufDxuL+txEFIYyTQQXHjD26de1JmP+73bJMkzB9ddFHgYztn5miDAEEiYLENDOOvQQ6CiesJ5YaYgTKyB1+TzjIfU9GY4XjAwFEpa/wEhVVXO/iXcnIGKc9KhiXAPtkN/oPUcVljVIUIXIXc5YlhdQqakZKivuipBcyec9p85ZldUPVXA7rDCI1BVBbqSQxWE5llTTFdfnxzPEe9rom96DsZw0IFU32PhdUIVGuiPCWbLrjhXparGidbrhddOV1SNnTXbNAwrF8I7UoOsigWVBm4LreaPc1KIOOs+fmERFHN6jPRuwy8+mle4ELAfmklNwXcqME1fcOgDQ5Xwdul2e0twdDMT04ah0sHyvjOlahIMXziHdEfzDV+x/EmASg4XNKovHeShQp9V3s4dMmtm0043j58dXjfnu5G6MnZWnHiN0aGOKlJXjXh98Drp5csFO9hdytnJ/HrhZzLcCgPdqe7chpmXMSfgr/atUgGmO6DLz1bKX6xmEUIATSI0RTBXoJPuTEdlVNc2XSk5HxMd7Dgm4KJCdYSLSa8LBE0fPTM0OI+HC7auznff54C+NOcs1bjw/XWcI9j8vVkRzMXelB3svs/bef6gn7u/zvO6Xv/LCcPKALjYnO8AuokOK8zwHM6mFRGbgdQoeMcNn08KpmOdqDFYWRnAjZWVbpL5a1I5myy+QvmME5ETw4qIjMBmIBEZgWFFREZgWBGRERhWRGQEhhURGYFhRURGYFgRkREYVkRkBIYVERmBYeWA/7Dfn58nH6x5z15DRG7BsHLAqJB3/XSqxMfFy1Pz59pricgNGFY+Nm/+TMorLq8RGIlMwLAiIiMwrPwoLSmVbl0iM/sJEfnHsPIDfVcQjrG3iahhOJ6VH3hXEHRoEVHksbLyIyk5SQ4XhjZnHxGFF8OKiIzAsCIiIzCsfAwdeqP6UCgRuQs72B3QsZ6VNUz25ufL6DE/tNcSkRswrIjICGwGEpERGFZEZASGFREZgWFFREZgWBGRERhWRGQEhhURGYFhRURGcH1YYfIGTOKAmx66hYguP64PK/zbS68+aepfYIjo8sVmIBEZgWFFREZgWBGRERhWRGQEhhURGYFhRURGYFgRkREYVkRkBIYVERnB9WGl/93m6j597DVEdDnihBFEZAQ2A4nICAwrIjICw4qIjMCwIiIjMKyIyAgMKyIyAsOKiIzAsCIiIzCsiMgIIYeV/vcXzjRDRM2pZeuoqCfs+0F5860/ycFDh2T8+DukXbt28tmWLfYWIqLwaVAzsKi4WE55PPYSEVH4sc+KiIzQoLDavPkzqayqkk6dku01RETh1eDKCjMlpw8aKDtyPpfxd9xuryUiCo8GhxXeFczJ3S4D0gfLqnfetdcSEYVHg8Jq6NAbJSY6WoqLS+w1REThxQ52IjICw4qIjNCgsErp1EnaxcbaS0RE4RfyhBHoWMdMMxs3bpLJU++x1xIRhRdntyEiI7DPioiMwLAiIiMwrIjIACL/H5s5Fus78b31AAAAAElFTkSuQmCC;" parent="1" vertex="1">
          <mxGeometry x="-540" y="605" width="159" height="255.25" as="geometry" />
        </mxCell>
        <mxCell id="7dg49P3ASf4CukYYb5OS-1" value="&lt;font style=&quot;font-size: 36px;&quot;&gt;&lt;b&gt;Endpointy&lt;/b&gt;&lt;/font&gt;" style="text;html=1;align=center;verticalAlign=middle;whiteSpace=wrap;rounded=0;strokeColor=default;strokeWidth=5;fillColor=default;gradientColor=#FF8000;" parent="1" vertex="1">
          <mxGeometry x="-1890" y="50" width="490" height="85" as="geometry" />
        </mxCell>
        <mxCell id="7dg49P3ASf4CukYYb5OS-10" value="&lt;font style=&quot;font-size: 25px;&quot;&gt;&lt;b&gt;INPUT&lt;/b&gt;&lt;/font&gt;" style="text;html=1;align=center;verticalAlign=middle;whiteSpace=wrap;rounded=0;glass=0;strokeColor=default;" parent="1" vertex="1">
          <mxGeometry x="-2170" y="200" width="440" height="30" as="geometry" />
        </mxCell>
        <mxCell id="7dg49P3ASf4CukYYb5OS-11" value="&lt;font style=&quot;font-size: 25px;&quot;&gt;&lt;b&gt;OUTPUT&lt;/b&gt;&lt;/font&gt;" style="text;html=1;align=center;verticalAlign=middle;whiteSpace=wrap;rounded=0;glass=0;strokeColor=default;" parent="1" vertex="1">
          <mxGeometry x="-1610" y="200" width="440" height="30" as="geometry" />
        </mxCell>
        <mxCell id="7dg49P3ASf4CukYYb5OS-32" value="&lt;font style=&quot;font-size: 36px;&quot;&gt;&lt;b&gt;Komunikace mezi servery&lt;/b&gt;&lt;/font&gt;&lt;div&gt;&lt;span style=&quot;font-size: 36px;&quot;&gt;&lt;b&gt;na zpráv&lt;/b&gt;&lt;/span&gt;&lt;/div&gt;" style="text;html=1;align=center;verticalAlign=middle;whiteSpace=wrap;rounded=0;strokeColor=default;strokeWidth=5;fillColor=default;gradientColor=#6FFF0F;" parent="1" vertex="1">
          <mxGeometry x="-1060" width="530" height="150" as="geometry" />
        </mxCell>
        <mxCell id="7dg49P3ASf4CukYYb5OS-36" value="&lt;font style=&quot;font-size: 128px;&quot;&gt;STIN - ZPRÁVY&lt;/font&gt;" style="rounded=0;whiteSpace=wrap;html=1;fillStyle=dots;fillColor=default;gradientColor=#FFFF00;strokeWidth=9.0551;" parent="1" vertex="1">
          <mxGeometry x="-1280" y="-300" width="970" height="200" as="geometry" />
        </mxCell>
        <mxCell id="7dg49P3ASf4CukYYb5OS-39" value="&lt;b&gt;Získání dotazu z endpointu&lt;/b&gt;&lt;br&gt;&lt;br&gt;akcie + rozsah datumu" style="rhombus;whiteSpace=wrap;html=1;" parent="1" vertex="1">
          <mxGeometry x="23" y="150" width="270" height="120" as="geometry" />
        </mxCell>
        <mxCell id="7dg49P3ASf4CukYYb5OS-40" value="" style="shape=flexArrow;endArrow=classic;html=1;rounded=0;exitX=0.5;exitY=1;exitDx=0;exitDy=0;entryX=0.5;entryY=0;entryDx=0;entryDy=0;" parent="1" source="7dg49P3ASf4CukYYb5OS-39" target="7dg49P3ASf4CukYYb5OS-44" edge="1">
          <mxGeometry width="50" height="50" relative="1" as="geometry">
            <mxPoint x="52" y="470" as="sourcePoint" />
            <mxPoint x="157" y="350" as="targetPoint" />
          </mxGeometry>
        </mxCell>
        <mxCell id="7dg49P3ASf4CukYYb5OS-44" value="Sběr zpráv z uvedené doby o uvedených akciích" style="rounded=1;whiteSpace=wrap;html=1;" parent="1" vertex="1">
          <mxGeometry x="98" y="310" width="120" height="60" as="geometry" />
        </mxCell>
        <mxCell id="7dg49P3ASf4CukYYb5OS-45" value="Vyhodnocení zpráv pro každou akcii s ratingem" style="rounded=1;whiteSpace=wrap;html=1;" parent="1" vertex="1">
          <mxGeometry x="98" y="430" width="120" height="60" as="geometry" />
        </mxCell>
        <mxCell id="7dg49P3ASf4CukYYb5OS-47" value="Vrácení zpráv v JSONU" style="rounded=1;whiteSpace=wrap;html=1;" parent="1" vertex="1">
          <mxGeometry x="98" y="555" width="120" height="60" as="geometry" />
        </mxCell>
        <mxCell id="7dg49P3ASf4CukYYb5OS-48" value="" style="shape=flexArrow;endArrow=classic;html=1;rounded=0;exitX=0.5;exitY=1;exitDx=0;exitDy=0;entryX=0.5;entryY=0;entryDx=0;entryDy=0;" parent="1" source="7dg49P3ASf4CukYYb5OS-44" target="7dg49P3ASf4CukYYb5OS-45" edge="1">
          <mxGeometry width="50" height="50" relative="1" as="geometry">
            <mxPoint x="249" y="370" as="sourcePoint" />
            <mxPoint x="249" y="410" as="targetPoint" />
          </mxGeometry>
        </mxCell>
        <mxCell id="7dg49P3ASf4CukYYb5OS-49" value="" style="shape=flexArrow;endArrow=classic;html=1;rounded=0;exitX=0.5;exitY=1;exitDx=0;exitDy=0;entryX=0.5;entryY=0;entryDx=0;entryDy=0;" parent="1" source="7dg49P3ASf4CukYYb5OS-45" target="7dg49P3ASf4CukYYb5OS-47" edge="1">
          <mxGeometry width="50" height="50" relative="1" as="geometry">
            <mxPoint x="339" y="480" as="sourcePoint" />
            <mxPoint x="339" y="520" as="targetPoint" />
          </mxGeometry>
        </mxCell>
        <mxCell id="7dg49P3ASf4CukYYb5OS-50" value="&lt;b&gt;GATHER STOCK NEWS&lt;/b&gt;&lt;br&gt;&lt;br&gt;- Sesbírá data o akcii za uvedenou dobu" style="rounded=0;whiteSpace=wrap;html=1;" parent="1" vertex="1">
          <mxGeometry x="292" y="285" width="194" height="110" as="geometry" />
        </mxCell>
        <mxCell id="d_ImGSQPxJjXn6cXqpao-1" value="&lt;font style=&quot;font-size: 42px;&quot;&gt;&lt;b&gt;Proces odpovídání na dotaz k prodeji/koupi&lt;/b&gt;&lt;/font&gt;" style="rounded=0;whiteSpace=wrap;html=1;strokeWidth=5.118099999999999;fillColor=#dae8fc;strokeColor=#6c8ebf;" parent="1" vertex="1">
          <mxGeometry x="-70" y="655" width="590" height="90" as="geometry" />
        </mxCell>
        <mxCell id="9wkwWSCI9OqaNVQ2Mww2-1" style="edgeStyle=orthogonalEdgeStyle;rounded=0;orthogonalLoop=1;jettySize=auto;html=1;exitX=0.5;exitY=0;exitDx=0;exitDy=0;entryX=0.5;entryY=0;entryDx=0;entryDy=0;" edge="1" parent="1" source="9wkwWSCI9OqaNVQ2Mww2-2" target="9wkwWSCI9OqaNVQ2Mww2-3">
          <mxGeometry relative="1" as="geometry" />
        </mxCell>
        <mxCell id="9wkwWSCI9OqaNVQ2Mww2-2" value="BURZA MODUL" style="rounded=0;whiteSpace=wrap;html=1;" vertex="1" parent="1">
          <mxGeometry x="-1030" y="1454" width="120" height="60" as="geometry" />
        </mxCell>
        <mxCell id="9wkwWSCI9OqaNVQ2Mww2-3" value="ZPRÁVY MODUL" style="rounded=0;whiteSpace=wrap;html=1;" vertex="1" parent="1">
          <mxGeometry x="-690" y="1454" width="120" height="60" as="geometry" />
        </mxCell>
        <mxCell id="9wkwWSCI9OqaNVQ2Mww2-4" value="prodej/kup tuhle a tuhle společnost" style="text;html=1;align=center;verticalAlign=middle;whiteSpace=wrap;rounded=0;" vertex="1" parent="1">
          <mxGeometry x="-880" y="1374" width="130" height="30" as="geometry" />
        </mxCell>
        <mxCell id="9wkwWSCI9OqaNVQ2Mww2-5" value="" style="curved=1;endArrow=classic;html=1;rounded=0;exitX=0.5;exitY=1;exitDx=0;exitDy=0;entryX=0.5;entryY=1;entryDx=0;entryDy=0;" edge="1" parent="1" source="9wkwWSCI9OqaNVQ2Mww2-3" target="9wkwWSCI9OqaNVQ2Mww2-2">
          <mxGeometry width="50" height="50" relative="1" as="geometry">
            <mxPoint x="-790" y="1584" as="sourcePoint" />
            <mxPoint x="-740" y="1534" as="targetPoint" />
            <Array as="points">
              <mxPoint x="-740" y="1584" />
              <mxPoint x="-840" y="1584" />
            </Array>
          </mxGeometry>
        </mxCell>
        <mxCell id="9wkwWSCI9OqaNVQ2Mww2-6" value="OK, operace proběhla úspěšně" style="text;html=1;align=center;verticalAlign=middle;whiteSpace=wrap;rounded=0;" vertex="1" parent="1">
          <mxGeometry x="-885" y="1594" width="180" height="30" as="geometry" />
        </mxCell>
        <mxCell id="9wkwWSCI9OqaNVQ2Mww2-7" value="&lt;font style=&quot;font-size: 36px;&quot;&gt;&lt;b&gt;Komunikace mezi servery&lt;/b&gt;&lt;/font&gt;&lt;div&gt;&lt;span style=&quot;font-size: 36px;&quot;&gt;&lt;b&gt;prodej/koupi&lt;/b&gt;&lt;/span&gt;&lt;/div&gt;" style="text;html=1;align=center;verticalAlign=middle;whiteSpace=wrap;rounded=0;strokeColor=default;strokeWidth=5;fillColor=default;gradientColor=#6FFF0F;" vertex="1" parent="1">
          <mxGeometry x="-1070" y="1169" width="530" height="150" as="geometry" />
        </mxCell>
        <mxCell id="9wkwWSCI9OqaNVQ2Mww2-8" value="&lt;font style=&quot;font-size: 25px;&quot;&gt;&lt;b&gt;UI&lt;/b&gt;&lt;/font&gt;" style="text;html=1;align=center;verticalAlign=middle;whiteSpace=wrap;rounded=0;glass=0;strokeColor=default;" vertex="1" parent="1">
          <mxGeometry x="-2180" y="820" width="440" height="30" as="geometry" />
        </mxCell>
        <mxCell id="9wkwWSCI9OqaNVQ2Mww2-9" value="" style="shape=image;verticalLabelPosition=bottom;labelBackgroundColor=default;verticalAlign=top;aspect=fixed;imageAspect=0;image=data:image/png,iVBORw0KGgoAAAANSUhEUgAAAykAAANeCAYAAAAWTUETAAAAAXNSR0IArs4c6QAAAARnQU1BAACxjwv8YQUAAAAJcEhZcwAADsMAAA7DAcdvqGQAAFSBSURBVHhe7d0PkJzlfSf4n9dZWHtHjp2ZxEgsYYwdCTvyn2i02OCJkWNvkNFEtXipkwp0WOxhh4qFuCV2rWQnsHjjSBcccgg5RTC1YBY4qc4LW8oIw8WOhT2GmEjEDorD6M54FAphbzR7DpqyC25dufd5++2e7pmemZ7RaPRIfD5UF+/7dvfbb7/v26Pn+z5/3ledteTsfwwAAIBM/JPq/wAAAFkQUgAAgKwIKQAAQFaEFAAAICtCCgAAkBUhBQAAyIqQAgAAZEVIAQAAsiKkAAAAWRFSAACArAgpAABAVoQUAAAgK0IKAACQFSEFAADIipACAABkRUgBAACy8qqzlpz9j9V0R85fe218dO2qeOebl0TPojOqpeNe+vGxOHro6Rj6+gNx77374/lq+azduCu+vba3mmn17J73xIc/U80smE/Fg/vXxnnVXLOTsz2zc9UdfxY3rFxUzc3g2P649f2b4t5qtvS2y+OmzZfHB9+2JBa9dvy4N473N78UD909Eh+8e1f82vff18H+WBIXXLUxrvngynhrb0/LOks/fblc9/PD++PPH74/du45VD0xwRU74xs3rIwpv9mPiu9ydfFdnqvmW0x9TCNG4qGV6+Pmam6upt7vx+LJW/9VfOyBahYAgIbOQ8r7Nsedn7g8LlhSFSZ/eiye/fp/if+8e088tP9IUYi9KK657Oq4bM3b4+x6efNHI/HlO26IrV8qnp+TpbFuxx/F1ou6q/makxYKzlkZm27aFte8q7XQeSqElLrz134ithZh452vrxY0vBzPf+2OuHnHA/HkhAJ9/+YvxH+48u3R8+riNfv3xF13PVAe87NXrooPXXJl6zEvzLQ/zr785rj92kvivPo2vHwkvrN3T3zhoXti6LvF8yvXxmXrroh17+uNRa+uveSlI/tj9+c2xa1fr823WhqXfXJzcf6tbNmOupdG9sRvX/77MVTNtyrC0mVXxMc/Xu2TY8U5e+/dsfdbj5bbMi/OuSS2/m+fjnVLmzdOSAEAmEpHzb3Ov2ZnfOWWK8YDysujMfT5j8SHP3lHLaAk33087vrsR2PNuh3x5I9qi+L1vfGhLbviwc9cEmdXi2bnUOz+i+8XxblMPLc/dv758IJvT7oa/+CN1cxxembP5+JTj7cJjcf+OnZ/cnJAOfuqnbHtqhRQIp7/ypZYc+3nGsf8+f37qmP+ufjqcy+Xy6a3JD70meJ82NIUUI4Nx+4tH46PfLYWUJIUhHZ+cn386if3xLPVas9csjKuumVv3HnN0tqCFofioVs2xZot++JotaTZmb1rY9sdV0xxDh6JJx/6XHzkP+0vjuvL8Z3d62Pr3fMYUJLnHo1tz8w1qM/dBTfuiq8U3xsA4FQzY0hJhdQvXLuyLKTWPf+Vz8ame6codD33QHxsx+NNhcUz4rxLPx2333hRNc+sXLEzPtppM60OPf8/OgkUydrYemW9KdWReOahx8upSZ77Uvz25jvGw+kU+m+8Nf7Dpb1xZjVf1ibcvTW2ta0dKXz99+O6Lw3HS9VsvLo7Lrj283HnVUuqBRN8/cV4sZqcaNHKa6c/Bx84En9fnLVH/6qaP9W9+1OxZXXzvgYAOHVMH1KKgs7tRUBpKSL/+Ol46MYpCqt1ez4XX23pQlAElbU3x50u6s7OOVfEnf92mv4WJ9oVvx7vbLS064meX6km25kUTicowta2tRMKzc89HndNFXYrz9/6X+IvR6uZ0qIiqNwaN727mp3kWDyzf2Q82DRU5+BUAaf0crz4rWrylHZR3PTJ1XFem6ZvAACngmlCypK44frJBZ1j3/1a3FVNT+1IbNs/XE3XFYXLj9wal1VzzOCcS2LbH10bF0zqO7KA3tLTFJDOiHeu+2JsfV81286eB+Iv23ZQXxs7PzI5bD37V38ST1bTU9sTe/+mJaUUm9Ibl16/ecomhC9+/Yb4/P52jfKqgDPddzjlLY1r7rg5LuuVUACAU9fUIeXdvxkfaOnom7wcz367w56+33xh8she3SvjX19TTTO1cy6PP9zx6fjQyS5ojk2oj1i0LNbd8mfx4Gcuj/OrRa32x0PDbWpGrvmN+JetYx8UjsT3H+2sn8aXDx2ZVDNy5tJVsWnK2pQjce+1N8VDI22atRUB57Ibd8ZV51Tzp5WL4oa7Px+b5rl5IADAQpsypFxw2dvbXKmeRZv9bx2JYz+tphvOiPNWtmvztTTWfXpnPPiVr8e39/9F7fG1B+POzbPtx7IkPnTt9tj18J/Ft75VredbX49vfOnWuOGSKZr5nHNJ3HDHg/GNxye/vn97sfw4Oh6fXXzXm+7YFV/52tfHt6d4fOtre2PXLdfGh9oUlM++ZHN88a5PxAfOaQ0o560df/+3v1YUsqvlJ9Q3RyYHzVcvivMu/UTserz4Dp+5Ii6Y8B2e3PLhSSN7bXrvssl9I348Gt/vtGnV3x1rM1jBklg21TEtPR43/7sp+sm8fmV8/I8+Ff3V7LwpzqVNt3yxON5Nx/oru2Lb5dNtZxtvW1us5wuxt/g9NJ833368CIh3fCrWva16XbO3FcH2oe1x1dtbA8qilZvH379/V9xULa+byzkKAHCiTRlS+n+xXcFqNm32j8aLP64mmyxa8o64oJounXNF7Hz4rth62co47/VnxEsjjxbT74k12/dFrL45Hnxfh1eF0zCvD3wxtl2zKs7/hYjvfOGqeNfKq2LnX70Ui3oviqs++8X44sTQk/p83H1zXLVySZxxpPrcj98RX/nxsuL1D8bOD86ycNmwJNYVAefBOzbHZW85Fl/9o2vi3e++Km5+uNZX4sxF3XH++zfGtrsmXNG/dHvcWRT8x/uBnGTf+pPY3bbZVOGM4jtcujnu/FJRcJ62MHtJnF8fFa7ZT1+aspP7JA8X51I12ezsN62tpqaQ+sl8ZnyEsGbTj/g1B+8rgtu9N8c1718WPcUpe2z/HbF+5XviI18YjmUf/0Lc2W4ftJGGe/7K3Z+Ka97bHc/ce0N8+N0fjo/dlUYeK5xRBMSVa2PrXUXYaGmy1j7YTm+O5ygAwAKYMqS0uU9jxI+PxYTeAbO3qKupqdDKuOlz10b/L9Q/7Ej8+S03xZefi3j+0R3xsd/803j5Hcsm9WWY7KK46Y/SfShqr3zp2/cXBbvUc/9Q3PXZR+OZskZnUbzzqk/EHzYV7j60+cpGn4+j3/2T2ufufyBuvuqjcetUhfMOXPDpW+OGIuCUtQfHjsQ3yhsRHoqHbtwT32lebffKuOrfXVLNFB7eEmve/Z54161VobRJuvfIu4pCb/mYeKPFE+ZI3PvZP5l+eOFUs5IKs7sfjDtvaDfUdHec0e5cOjYWz1STc3Xmop+rpqaRRgi7Y/L+TGYc8atjRdi98fI4v36i/vjp+OK195Tf75ndN8WH/2i4CBcdBN40uEA13HO8dCS+87V0M9Qj8eQdm+IrI7WXlFKTtWs3VzPJjvjIRencKAJZtaTu2P4d4+dN080p53yOAgAsgGk6zrcxm6vfnbjmN+PSNzeVYI8UhaTmmprndsTOr8/cb+GCGzc3dRQ+Ft/5+j3VdOG5ffH8D6vpWBL914wX7i5403iVxdkf/ELsbNyDI/VpuD2G5pTILomr3tc0ilVqTnbjympmsp5f7KumMlUOL/zZuPfbM+yMM5bEBVfcHF+8a3NnzahefrGDTvPz4/l7N8XWPXMd8WtmF3z28pYBDl763oHWwSX2fC7+69MzD/t8w0DT4AKLVsZHPz1NU8PFS4+jyd9pdo4CAKed2YWUeXbDr729pa/CS6MjkwquQ399pO1V8HFFgeu9vdV0MloUSqvJ0v54sal8eOayvrihmm5xRnf0X3tvfGP3zVWb/z2x7StN9+g4Dj//xubtOwU992jces2aWH/Lo/HM6PSF7Z53XRHbPt9BP55Xnzl/Ta06MPSZEzXiV3H+TaglOfrD/dVU3ZHY+f3OBglotugNC3fenPLnKABwWpkypIwea1MYXdQTb6om52z0SNVU6Yo4f3E50fDyS3Opp+mLJbPpw/HqJXH+utrkk9+fXDuw6M2XxNa7ayNYxS0fiQ9e2+FoZg2Pxrb7H4/n6/1xRp+Oh3Z/KeKclXHVZy6Jt762Wn4KSk2X1l+yPj62Y/qwsujdl8e2xshbh+JYu2zw+u74QDU5V8eONreBmslMI369P36+mp2dyeffSz+eGFI6c+sdX4pn6h39fzwSX/0/U43g0rjsk7fGBb9QWzw/Tt9zFAA4PUwZUh5qe+X3jHjdlMO+TtQTr2tT2Dn6dweqqd6yg/Fxu2LJhMJlUeBsjGZUe1zWcpH4zDjzDbWpL++4P55s14qpGsHqwYe2x7o5dBp+/t4bYs37qn4A1xSFv8t3lSOGrTvj6fjbNoMJZOvGXfHgp6vphiPx5L0prLwv1t+yJ75zpF1YWRLvWFOvXdhfvKZNSnn1mfG6anJGlxbnUjXZ7PlDsw2Qj8fNl29pH1Rev6iDvk9tTDr/jsPXPxfrP1idN++7MZ58x7b4yuP3xg1vG4ln/lv1mnly2pyjAMBpacqQ8vzd+6sO581muOt4s3cviUWpA3CLI/GXux+tpk+UI/HVj1eFr7aP98VH7qhemkZ/uuam2P3d9g3KzjxnVdww56Fql8a6z6SC381x1UW98eKjn42PbZl9k585S6Om7amGdP76rvjD2Q6DWznvl5s7aLd6Zvfvx0fWro+tXxqe1CTvdb+wqpqKuPfhpyffif613fGmTgPvL7YJED9+Or5yazU9K9MMTZyFJfGhG3bG3iKcbL10WZz53Tvio1fvmN++YA0n+RwFAJjC1H1SnvtcPPxXE4ueZ8R57+rsviFnX9I7qc/BS4f2xc5Gx/ixeHlCCJpTG/zvjU0owC2Js99bTXbiuUdj21Ufia0P7I/n21xgT0PVbmrbiWUaZUC4qyhk9taC2pF9se3GRyffc+QE+tC/uzL668PevrY3PvDRT8SHanPtTTXa1pv7Yuu0tUlH4svbi/338ITC7U+bduaeB+Ibk1pmLYk3TXufk3FXvaupk3fl6P4/be2cPhvTDE08az96eVK/pZ9/4+XV1GxdFFvv/WJsu2JlnJ0OXRHEdt9cGyVs3mVwjgIATGXqkFK497N3x5MTcsqiN62My6rpqS2Jq86fEDheHomHb9vRVAh6vGnUrcrre6YvSLfzrZE4OqF5yvkrP9FRp+ybdj9YDUlcFLRv3RRr1t3UdhSrs988m0JnNaxy030xnv/2jhiqphfKBb84oaPEGWdM3yxp7Ej70bZevSwu/fTM9xMZunFfU83by/Hs01+qppP9cfOOogA8IZSed34n9ylZGxe8aUI9yo/2x7037Klm5miaoYln5eFD4307KoveMLdaq6s+nwZtGP+ux777tdj5XDUzr/I4RwEApjJtSElXnG+++/E42nzFufui+J+nGa60dMWn4tL6aL6lY/HkHTfEzS03gtwfu5+ecPW9e1msmXB/vv7zl8zQV+CO+MahCZfEl66NP/xku/tfXBQ33fuFuKnezOjVS6L/2s3jBeVqFKtNE4ar/fsjzQXuGVx6Rfxq87DKhZf+x8I3oXny71rD1rHhx6e9t8rz33+8mpps0cqr46bZDNP7o7+Or9ab1NV9/abYNrFZ2NJL4qYZKuYuuPGK6G/OW0XYfegz83OfmKmHJp6NNuffpNqnIrTPOLrD5rh05Zx6xcxeJucoAMBUpg8phdTB9iO37mtpCnXe6k9MPWTr2zbGnf+26X4PL4/G0B0fj4/dO7kQ9OSnvzShb0B39G/eGdekIYDTSEO3PBh/eOnkwvHP/+K1cUFTIfCuLzwyoenOGXH+upvLO6FfVg4nvCQuuOwTcefDN8c7/5+7W8LSmUsvj9s/03oTwqHP/PV4jc/LwzE0mxLx68+Y1DTpvF+5OT50zpL40JZL4q0Ty6GLeibXTE1qwhZx9ls2x/nFPtm048F48LPj/T2m8uXd3xzfJz8djoc/O97JfN0bJxSYf1QExjumG5FqUVyw+YvxxbY3a6zp374qzk/Nhn46Gk/e+/ttQ8TQLR+Jrfc+HUcbNSrFev/t1Hc0P/uSm2PL6qYauWPDsfvmIux+vZqfaG3qYL8ozv7lGUJ0k6mHJu7cpPPv1cviX/9ROubF9NvWxta7vxg3TAogaTvXNt3YtCvOmNCHa9Gy95e/hfOvuTV+deLP4LXF+yftt/8exybW6ix5R7EdS+OyT38xvnLXtbWF83GOAgCcQK/uWvS6/1BNT+nYd78SDzzxozj3HW+PX/q5onjz6tfHWz+4Ln592T+Pl//fI/FMGr3pbRfFuo3/Pv7g36+Nt/7z6n3fezRu/e2Pxi2PTnUjwKfjT0d+IX79/cviDfUC2j9LgeKauHb9pXHh2cfisYeG4+ffVt0Zu3LmWe+K31i/LlaM/ef406eLBc9/I4b+v7fFJb9yTry2UdA7M97wpnfFqrSuj62L33jfWyKe+OP4rd99tHE1f9X/dE289fWvjjf80vtj7QfOiZ+OHIrvHFkc6265Ki5506L4meKVz3zpc/Hb6Vb0SQoJV6+LC89qLeK94bXnxA+f3hfP/H0x86O3xCUfru4aXvezb4kPrr8s3vrjr8Z3Xn57nNd0478o3rvqf7ksVry8L/60fqvv538Uv/SBD8Zbf258JT/z82+Py4t9smLRcNz9u38c35mpJ3W1T1YV++R1//TM+JlX/UMcfHw4zrzkE3H95b8SPf+0el1Z8P9YfD7tx4kuvjyuXVbf2DPjrLe/Py4feHec/c+OxU9GR+L5YhvOf9/G+PjvfjY2XfTG+JljI/Hl/31T/K//x9RX5f/uW38aX33utfFLb10WZ6fOEMXxvvDDxbE+6zVxdPTb8XfFPjx75apYd+32+L2Proyzyu18OZ7fvzu23bA17n6qXaBI58xvxu9fd0mc988iXveL744VPzcW/3fxfSd12J/kWHxn8Hvxxl9/f3EuFMf7zi/FY9UzHSv39bvikpVL4rVV7P+Z16djXpx7l/1qLD/zUNz7xE/inW9qPvDFdr7lV+Pyj30w3lh+5hviV//Nr8YvNo+Id+Yby9/CJW/4bvxfh98Yy5c0nXf/pCeWr78qfv2s4vg9Vm8Ttj9et7I4P/9F0+sW9Zbn3qo3j8Wjf7glHjtcLJuPcxQA4AR61VlLzv7Harozb1tbFNR/I37tl3vj7NcvijObW428/HK89OOj8cx3H4+v3vtA3Lu/wyYkb7s8tm25Ovrf0h2LqvUdO7I/Hvrcprj1X+yMb1z/jjjj2NF4fnQ0jgx/P575mwPxt997Or46cf3Fem7afHl88B29jfWkDtzHntsfD997R2zbc6haWHPTl/4szt7z8bgrLo9r1rw33tpbfH4quFXveegLn4tbH61/xqfiwf1r47xqbrJj8eSt/yo+9kBRyL7q1rjz6ouKQnix+KfH4ujI0/Hwf6rW9b5PxK4b18b5r69t4Ev/7en4r7fdFNsan1N3Udxwxyfisl+pRklL6xl+PL7w6Zti92z6KaQr+ddeER94+5Loqe+U4vu9VOzPZx7/Unz+Cw/Ek1Ot78Zd8Y03PR6/f+OO+Os3ro3L1v569L9rWbypp+m4p301eiT+9pt74q7imE+5rjbOXnlFXHPNJXHBW94UPa89Y9K5dOxHxXr374sv77ojHvputXyS6Y/Ls3veEx/+TDUznXOuiDvvXhvPf3B93Fwtmq2zL9kcWz/6G/Evzyn2T/08Gvla7PxEccyu3hXfXr2k/E5/f/RofH9kJP72L56OZ0YejaH6d2s+N9J7fzgcQ/ffElt3F+dt6uj++eI3sqSq5vjRSHx1143x23e1ntMpsK37zK2x6YPVb6B+Lu+4IW5tqoGan3MUAODEmH1IAQAAOIFm7JMCAACwkIQUAAAgK0IKAACQFSEFAADIipACAABkRUgBAACyIqQAAABZEVIAAICsCCkAAEBWhBQAACArQgoAAJAVIQUAAMiKkAIAAGRFSAEAALIipAAAAFkRUgAAgKwIKQAAQFaEFAAAICtCCgAAkBUhBQAAyIqQAgAAZEVIAQAAsiKkAAAAWRFSAACArAgpAABAVoQUAAAgK0IKAACQFSEFAADIipACAABk5VVnLTn7H6vpFtd9/LeqKQAAIHe3f/6Pq6lTX9uQkgLKww8/XM0BAAC5u/TSS0+boKK5FwAAkBUhBQAAyIqQAgAAZEVIAQAAstJhSFkftz0yFENDtcd9W6vFAAAA82xWNSkje/ujv78/NmyrFgAAAMwzzb0AAICsCCkAAEBWhBQAACArQgoAAJAVIQUAAMiKkAIAAGRFSAEAALIipAAAAFkRUgAAgKzMKqT0rhmKoaGhuG9rtQAAAGCedRhSdsX1q/ujv7/22LCtWgwAADDPNPcCAACyIqQAAABZEVKmsOX+Wv+bR3asr5YAAAALQUhpZ+t9MdB9IHb298fqzbuqhQAAwEIQUqYy+kKIJwAAsPCEFAAAICtCShvrF/fE2OhINQcAACwkIaXZutvikaGh2Bj36IsCAAAniZDSbPf1sbq/v4goG43qBQAAJ4mQ0sauF45GV3dvNQcAACwkIQUAAMiKkAIAAGRFSJnKuctjSzUJAAAsHCGlnW0bYvBwbwwMDelADwAAC0xImcL2K/ujv7/fUMQAALDAhBQAACArQgoAAJAVIWW+VHerv29rxPodj8TQ0H0nveP9+Hasj9seGYqh++dni07Uek8rW+8r9lGxb9LjNNk/W+5P32fyeV0uf+S24mzYEvfpxwUAzAMhZb7sfiGOVpOlsdEYqSZPlnRTymZjo/OzRVOvt1ZIrRVYK6mw3jz/SrFtQ9mnaedTY9WC/JXhcw6BamS09TsefUE/LgDg+Agp82osRp+dXIg/qcqwtCteGK3m58uU6x0r/uuLga3VLKeN2mASG2J7Nd9i9IXibBiJCXkFAGBOXnXWkrP/sZpuuO7jvxUPP/xwNcdxS03Bro4YHu2LvnNri0b29seGbbXpdAV704qu2kxh7KmdtVHFWt43Fgf2DseyNX3RNXYgdq6+vigUTnzvSAxOVYhsK9V8DETv4cHov7Lzd00trW9VjKbtXP5CrE7rTDUpF49W21t9XvXq1u1NTcc2Rd/4bii0fp/UrGig2n/R2Ae1dUbT/iz323Xdsa+jfTHxc8c/M+3bjbEvhpcOVM8Xx+D21XH97jRdKD+nOB7VbOO4NSmPT/e+Sft3+uM2YZuajnfaB8tHD0TPiupzm55LWvbRxPWmY7FmfO+3nGdN36Ou7fMTPg8AyMell14at3/+j6u5U5ualIXSVQSNKMJAf3/07x2J3ovHm0Dt2ry6trx8DMbRFQNF0btSvG/Z6M4YPNwVfWuKgvftB2Ksq7tW0C8KnWUBuP7evREDOfR/ePaJGO5eFbetq+YbtseGxvdMTaF6YlWj/8KuuH71+HODh1MgGC9gp0L9qmI/NN57aFlsLN+7PQafGove5ePfe/17l0XX4YNNhf5pbC0CyGh1XMpHa7DpKo5F92PVZz4V0be2+pyy4L4shm+vvy8dt01ln6QZTXvcqoDSvE0TQkHvivrn7owDTbVWZUCpn2PFI+3fgUZTu2K9F/cU+7RaZ/FoBKrd18fq8vVjESmwTvF8Om8BABaCkLJgRmKwfjX92dHxoJGkK9z1TtZlTUNPLG4U8EdiX1VYHHtqsKUAvWV5sYZzB8bfm66Sdy9uhJ+ZVaFhXmpRmhWB47Gj4wX6hlQAr3/PobImoat7/Mp+XQokyw821VgU77twafHaIgS0e++uzfti5NzlVbBLr404sKfD75SORbkPpxjooCi012todn1zOMbq+/e87iII7Wvaxu1x8HBEz+KZ9/60x23dhbGsq+lcaWPsqXuqz601t6t95vpY3F0Eu6bvXW5v4zxLry2C7nU6tgMA+RNSTrotcV9RSE3Nv2pXsAeLWNK58fdVj1ya4mwbjAPd9eBQs37HxuiLA7Gz2ta2ncqrWoZG062GVLMy4bs2CvIpIPTG8lSjkAr5MRxPNMLDDOq1BP0HY3kZGh5pUwM0/07GcavfoPSe2FgLR0ZlAwAyJaScbOsWR0/V4T5Zv2NVU5+N6aVRlXrXHM9Qx6k/x4kqrO6KJw71xKqLe6r5iN7urqqDdbIlBpr64dQU25P6r0yqRahqAa6eepSw7XsORM/yLWVTr6OPzaXAX6tVSs3qus+rFk2wZW1fxKEnausua2CamrStuy1WnTsWw9+c+ZOnPW67n4jhsd6mZnCdqvZRU+1V2t52zd7K5oWp2eCEWrdywIdZ1cR1qjrPXomjvAEAcyKknGy7r499qb/Jdekq/lBs6h6OAx2OkJQKm4OHe2OgrAGoPXJqypOaYR3tGg8iKUjUmlalbV0Vo0811xmlpmAD0dvVF5sa32e8VmP7lbX+F+PP1e5J05AK990DsWnpcAxOqoWZWmpaVl9feqQ+HS21OE3NstJzLf009h5tHLeh6/ri6N7xJmr19Zad4+vrqMLg9Mct9c2p9W+pP9dp4b7cR8U+qL9voPtAU+CrgkL9kfrT3D0hzKXar6Z93NimenPE1CytfnxmFTiqUb+amzgCAEzD6F4whXIErjYjczF75b4sAqSRwQDgxDG6F0An0ihoQ0MCCgAwK0IKcOLUByYQUACAWRBSYAplB3NNvQAAFpyQAgAAZEVIAQAAsiKkzJeqg3AaFrc2/Gy7+2C03nH9RA8XPL4d1efO0/1QZrPeLfefPnc4L793h/vwRL12OtOvp/ncO74bVs7X9p58p8/9W9LvrP53ZUGPTTU89enyGz/Vlb/NE/A3H+BkEFLmy+4X4mg1WRobnXTn+PKO66ODjbuMN+65cYKUN+drMjY6m3vZT+1ErbdekG65/wnzJN1/JZ13g5POyxMtz1CTAspARLrz/6neqb8ICuU9caq/KwvWjyoFlDURg5P+lqV9e3xBuFUtTE78u1AGs0d2xa7ib8bEkNQorJchauIFo9r6Htlx5zTrnSm4Tg4BtaBY+6zxsFCpwtzMf9uaLyZUj6bPqK23+fnW73bi/jYDLDwhZV7V7hw/8R+KunTH9QX/R6MMS+lu5NX8fDlR64UFsT02FIXrlht3nqLWL+6JGH1h4YPWtg1FKNpQ7MkTrThWe0eid01TgXzdbbHq3JEYXL0+1t99IGLFxqZQtCUGVkQcuL3YtmIbyxunthT0V0Xv4XRj1o9Ns95OgutI8d/y6r1biqk0P27kcMTyKpRsWV6b79RICs9l6Kxu0Noc8ottr1/o2vlUTwxMDGH+NgOnCTdzXADpCtvAudVMQ/EPYfUPfHp++cHBiDUD1R25x5+rXVnbFH31G7ePHajuN5GuBi6P0eIfqb4VXcU/avX3N793JrWryekf7Pm8+jrx+449tbO60lp9Xm1xYXxb0xXC8u7sLcaKgkbtLu5pnatG6+tpnu89zv0w1f6tmbRdHe6r8n31G0GmpoDX9UVX07qnWm+576L5M2r7LF3xn6lAXfvM4aJQ01d9n3b7IK1vVYxW+7VZy3GbxX6YeLxTAavc1vr3ri1uGD8fpjPxXCk0bVP6zCl/M+lzr47Yd2hZUVitfXrzZ06/vctiuHnfpCvgF48Wn/tCURiccBwaNQkznGfTrrfd+dDZuTvpmJTGfzNJ63dtXm867zdGPDYcy9ZUx6jav1Gsd2MMx9EVfdFbLBus9mMnv+OJ+7am/vzEc2/qc7Gdct3VbyNNN/89KPdFdS+etP2tN2GtbW/t2E3+zOnWO7W0nuVxcG8RRGJD8d99xX8Hi/OxWFZ81yjWU56fRTjZcGXEffdH8exAsWym33Ht71H3Y02vK8+f7thXrHdk0ndr83rgFc3NHJmV7VfWrnoNHq4VlmpXwVoLIb3lP2711/XGqrL5Qu0foGWH6u8pnhvti02Nq2q90Vf8g7XzqbHi/ekf3tSUpycWz1szi9lr/IPf+C7VE6Xa1ev6c+kqYO17Rm2433TVcKxWaKy9prPCy9z3w/T7t1HwaWxvsXGz1SigFutoLpBOsd7tew7E2Ln1q7OFrctrBcVOCyDn9pUFlvK7NM6jmaVtSoWz+n7YWRRMN1bvnWk/1M/v8nH7gei5uGoqU90jpXx909XfmQuASfO5ks6LoqBb7b+62rGuvWbSd+3qi1VxT+39xTbFioHGPp1ue/cd7opl7x1fz5blvTF26Inic7fHYDq/lo9fsy6fe2qw5Xfc1rTrLRSBpSx41repKPg2X/mfSu03M3H/til8V+str7q3NGPqir6LI+4pny/2cfTFQHXlv2vFstrvqNiPA9Vvq6u7Hkum/h3X9m36/aWwVH/NzIGrE9uvLNZ77qq4bUeteds9TefRrs331LZ/x22xccXRGGwU4pOqJqY4zrfdPxA9T93T8ndluvXOaFsRTIpzItWUHNw2EqNjzX93thfBpPgtF7/hOLg9RkbHomfx+N7vWNmUeKq/Z7UakzmtFyBzQkommgs76R/6WkGuN7q7RmJf0z+a2w+ORHQvrgoaRUFgT/Wuw/s6LNA3qwobLf+gH48tsfzcpm2aJIWC8fbU6SrweMHneMx1P0y3f9fHhUu7YuSx1oLxrJw7EEPlFdDmsDXDessCbW9TM5He2W1DUVitX1FNhaLO9m9tm7pWbGpzbGbeDynE1N83lGpOurqbrrIfvy33b4y4e3JBd6ypsJmOW+t3bTquZVgaf/9025tCYiy9sPjWSTqfx9eza/O+ojDb1Lyn6bmZTLfedIzLc6W+TWuK+cZvfK7Wx+Lu1t/irm8Ox9iEYzN+XGt9lhpX4xu/o3a/5xP1O55JCooRfSva/SaK7X+sCCIr+iLaBcdtg2WI6Wt7zKZZb9WXpP6YPEBA8d7RVUXAbx9Wt+8ZjVUXj06+yDDjegEQUlgw5cABRVHhuGomTiVFYJh89XpmqcCdrvqurwqzBxekGUdRGG1c+a4enYTXdenKdWr/X73n9gPFmuZPrYan9cr3cZlpe3c/EcOxLC5MV61TLdbhg02Fz+1xsF5jM+m5GUy73ubaw+oxodYoJyfzd1wGrSKAtv1NbDtY1uAMf7PdntsVTxxKNU7tj9mU6y373Ywfl0Yt4LrF0VMNjpJqtFprB2sBMfVPLANyu2M51XrbSZ8VR+OFtr+B9FkRR1+Y5v0ApyghJWup+UBzM5b1cdvFTc1EjltqVz00jyMvpe0db9aSCpjN7dPTwAHjHXxT59aJ7emnb7rQuFq79b427d7nYrr9W9uWRvOe1CRn0vbOLBVgWpvodbDe8qrvshi4f1X0dNKc6LilbeqKvqvbhakZtve87uhqKkBtWTu5D0o5kMRcagZSoOje10HzsNpxGznYwZ6acXvTFfmj5Tm8ZXnPpFqEWo3IQNx38eTnpjf1elONV0vn7XlRHdO142stv+tsgtUUZv4d1/4OdJ9XzbYYX77l/gl9jmij+Bt93RS1Q4Ut928qA2PHzUHrf/NPg2G3gdOfkJK11ARjMI42muEU/yCNplFpcr1qVmxvOdJObXtTO/vmq6y1/hb1Zi2rYvSpySOdlYXAxvcdH8a05b2p+cS8XL2dfv/W2qqPf+bOvZO3txPbr6xG6KlG4Zl5vemqb1EYLIJY+6vCc1EVTsoOz0Xh9bo03bR/0zYWxZ1N5Wtqj/pwqdNubwpURdAbqN6zavRAeXW5RdXUpr7uzpq21ApnXY3zJT1aC/LjzdNq/Yo66jjc0fYeLM+JgWjTdLCsEekt/huOJ2ZbuzPFessge3h8m9JjPpr/jJ93tXWWwxTPQ9POmX/HKZClUbPq36d+3Kp+PdXy1EQq9UE7vUwVzmo6bRY3vu9qHf5b/uY3/SbKPkezqnVLAbL43zw3yQQ4EYzuBRlqdFbPuNnPydT5KEzzLfXHqIWifC8WwNT8bYHTm9G9gBOo1oRmVh3mWRhbB6JvwmALcEpIIw0ODQkowClDSIFs1EdNSsOkdth8iYVRFfCG1vREeZPAajGcMspR7vqzHpQBoJnmXgAAcBrQ3AsAAOAEEVIAAICsCCnzpWqznoZtrd3Rep7ue5DBesvn5+1eKifevG1vuit0x/cTSEP8jg/pO2flcZnmGKdtSn0j0uN4vuNMn3MKqZ2/40Mmn7Kq32Tt+M7DudQx987IS+14lMNQl7/3hTwXAPIhpMyX3S/E0WqyVN2NeNwcC7EzrneOTtR6C6daqDmlVHeqXvC79c8qsC2cdK6VoxUV++TUHmhgfdx2dV8cbdx5fvX83WV/WunvUu1eHK0dqmuDOMxf8Kutb+L9X2oBswjLZWF8YmiuF9bvLP8/cVvSMNRDj+yKXdOtt5qfyqTXVRcBys+aGBCqENnJPWxq660HzvSY/Bnjj4n/LlT3MmmY6m7zAKc3IWVejcXos1G7w/a8OtXWCwsj3Qjx9BitqDe6u2q/x4W1PTYsSMCr3+h1Y1OBPA21HbXR0orwXd7Qsunixvodq6L3cLq56sdiw950c8imgn4RGFadOxKDq9fH+unWWy2ZzsjhiOVVANqyvDZfN3b4aHS/txZK1r+3O44ensXFgWLba4EzXVToiYHmoDJ2oAzW5fN7j0bfdZMvYB19oTirnx0t/koDvDIZ3WsBpCt+A+dWMw3FP7D91T+i6Qpdurt2ubz49+up2dwornZzub4o/tGbx8JaeYV6RX2LCukf3Opu1ROfa2zvhO9RV3++fF/3vtb1VPNpemMMx9EVfdFb/AM+eGhZea+QTvfFdNs75/2brnimO6yX+7V2xbm3+bg1ltWNFQWj1XF9pM9bFsNpuroCWm5fJ/cnKLe1O4aLQk1f9X1G9k4uRE7cl3Wt+6F5WwuTjs/U52BZiGr53hM0799pTDouhfr3Sc9tjH0xvDTdeyQ9U+2/cp+l83pjxGPDsWxNtV2NbSrMsL2pZqCxz6p9uq/4rpF+i+ku3Y1tb/P6tqZfb7t92O64TdbB/k3n4ZrxVzSvN/1tWX5wMGJNfR31Y5rWuzxGq/NoZG/9NePHfOLfpebjMvGYNR+biefexPnplK+tfgcx6X3N+zhNr4rRpt9Qub3VsUvTzTfznH69U2vsvyKcbLgy4r77Iw4Wn7L8YH8MLq7Oz+7F8cSVT8SF918YL4wui1Vxz4x/Pybvk9rf6e7Hiu8WzX9XaiZ+H4C5MroXs7L9ynTFbLAoHqR/6KurZy0Fm1SgrS8fLArqm05q+/rGP/jVlb6JTYvKq9fVc7XtHSiKF4VqHP7y9U1XETv9h7drxbKiUFLsp66+GCj+gU/r6eqeVHybZNrtnZf9O154ahy3lmW19TaayxX7Yd/hrlhWXYFNBZQLl87m5oy90ZcKOGm96QryxR02syoKs2XBqNoP/Xtj/Mr0xP1w+4HWK7T1eyhUj8HR4hiU+6h2pT1tR8vV3w4KgEnLuVKsIwXE5oJ7V3HupIJben7nUxF9a8evpBfPRt/FEfeU799ZxPD6NhWm2d7B4vj3Lh9fz/r3LouuwwfL47Z9T/G9z11eO1+TrctroXjGMDH9esvzoQws9W1KoWDm5kaN/VueP01/H+r7twwoUQSLanlx3HrWtF51712zPA5Wz6faiFWN5ki18yj9HnrXpAJ/+oyeWFy9t/Z3qWm91XlWO2bF/i5OkBRcaq8ZDwvHY9fme2rHccdtsXHF0RhsOY+KfVGd77fdn+4VdE/LZ26/stj+c1fFbTvuK/4+HIh7mv6uTL/emWwvgklxThTnQhzcHiOjY9GzuL4PR+KJ0e64cOuF0T36RGx/4WhHf5Mm21UEnGhab6v0mXNbL8DpS0g52c7rLgo6+5r+MS7+wTw89T9mk+2K61cXhYimq3LHp4MCdUub6nR1drzgc1wa+6EorO3ptJAxw/Ye7/4tAtOm8oruhKviMxRuU2E4ll5YCxfrLoxlRRFq5oJw3ch4ISs19+jqrq6ST2/L8uJV5w6MH5t09b17cbkNtQJ1836YKIWu+jGtXWHv/BzsQApJyw9ODqxFmK3v113fHI6xanvrxo9r7TwfPwZTb++uzfuKwmw9iKTzI8bPpzJA9jY17+ntODxOu950PhT/DTS2aX5+F+sX9xTBbrA4ayu7n4jhsa7oPq+aLzQ/n4LH+D5u+h21OfYp3Nf331CqAerwPDs+xXF8rAgiK/oimr9X3bbBMmz0ndvurv4pKBZBdkW7Yzbdemv9YRrftU1fle17RmPVxaNtf6O7Nh+M7jXdcXDS9sy8XgDmTkhhlorCYVH4Hb/C2lSDcDpKtQdlm/FZFkBSYbK68p8CQhx6oqOC8PEaPy7Vo8PwuuX+olDdVPs12NQu//hVtQyzuro9vem3NwXRKoiUAXE4nmgqoG8/WK+d2hLLi8LwwY7D4/Trba49rD3mp/bhhChC48ay30a1rRNr1k6kbQfLWqPhb7Y7M3fFE4dSTWy9hqpVGWSLd7c9ZlOut7qQ0zgu9drQ9bG4u+oHlGrmJvxWeru7av1CildvaLyn2VTrbSd9VtXPpI30WWOjp/VfUoBZE1IWTBqxpfUKaCldKU9NGOpXXIvCw6pzp/oHvJ3qat68jbxUa5bQaNaSmhA1t09ftzh6ioJAvYNv2bm1NtlQdsSfcEW8ob68LCRNbPc+FzNs73Hv38K2DVF2fG3ex2UNx7K4sFxvOgbpynmz6sru8vtiYMXRNleF519qMtLSubhJeUwatQApNDT15yi2PxWgGoWkch/VJhtmUaMz0Zb7U03UdAW4mi1r+zoMczNvb6rJ6inOiRQQj0686l5erV8WA8V29bS7mj+NKddbnmcD895MMx231CSucUy3pv47swlWU0g1jE2jRqV93/prnL550vz/jk9vW+6v9RtsV1OTarQG2tYcAbyyCSkLpiq0rpnQNCBdwSuv1FfLi8Lj0b0n9wpsre131WwodfBM/RHqyuYyXY3t3dQ9XLZdb1E12dhUfs/xITvL5jJl86n0PbtjX/N6j8NM2zsf+ze100/9HjbVhwst1ntPanpSrjd1iK214W+Rruye2xu9U1wVnot6E50yiNW/c9XvpNzGNEJSWlY9GsOl1kdPKpfX+yfU1c7NrhWbau8rjs1wc7+epDzuTevucIjpWgFs/Hxp2aakqXla6hTdWf+lTrb3iRjuHij7Kk0uGKar9UWwLYLNrMJqMtV6y/Os+fddPObjwkE9INfXuaYnOh21alrpNzo2fjxXjR5oOh9qyiaL9X3cNEzuifod52Ta/iFTXYCZaMK53VKrWd9/xaPWn24ejinAacboXnDCpH4TnYwc9cpUDnjQMgLSwik/OxUO560vFwCcfEb3AmZUNoXraOQoFla6j8ZsRlsDABaakALzrRr9bFMaCtWV+ozUR2NKw9u2DoUMAORFcy8AADgNaO4FAABwgggpAABAVoSUCbbcXxsWsmWYVAAAYMEIKRNsvzLdOXgwjq7YOH4DQAAAYMEIKW2lu8NXkwAAwIISUgAAgKwIKW3tihdGu6L7vGoWAABYMELKFFLflIPLUyf6+2JLtQwAADjxhJQppFG+lh9Mneg3xPZqGQAAcOIJKW2tj8XdYzH6bDXbbOt9higGAIATSEiZrWdHIw381dXdW5sHAADmlZAyW7ufiOEipYyNjlQLAACA+SSktNUb3V3VZJP1Ox6JoaFNsezQzli9eVe1FAAAmE9CygSpw/zQ0ED0PHVPXL+7WljZtXl19Pf3CygAAHACCSkTpKGHBREAADh5hBQAACArQgoAAJAVIWUKtb4p7ocCAAALTUhpZ+t9MdB9IHbqmwIAAAtOSJnK6AshngAAwMITUgAAgKwIKW2sX9zjjvIAAHCSCCnN1t0WjwwNxca4R18UAAA4SYSUZruvj9X9/UVE2WhULwAAOEmElDZ2vXA0urp7qzkAAGAhCSkAAEBWhBQAACArQspUzl0eW6pJAABg4Qgp7WzbEIOHe2NgaEgHegAAWGBCyhS2X9kf/f39hiIGAIAFJqQAAABZEVIAAICsCCnzpbpb/X1bI9bveCSGhu476R3vx7djfdz2yFAM3T8/W3Si1puDLfd33g8pvXaoOObpkY77bNXef/LPk9LW+xrf5XQ5nlPt33L5I7cVZ++WuK/4vvqdAUB+hJT5svuFOFpNlsZGY6SaPFnSTSmbjY3OzxZNvd5aoa9WAKykwm/z/Gmk1m9pZxwYqxacyrZtKPtg7Xzq1PkyZVieQ6AaGW39jkdf0O8MAHIjpMyrsRh9dnIh/qQqw9KueGG0mp8vU653rPivLwbmULPwSlMLORtiezXP/Jp2/46+UJy9IzEhrwAAmXjVWUvO/sdquuG6j/9WPPzww9Ucxy01Bbs6Yni0L/rOrS0a2dsfG7bVptMV4U0rumozhbGndtZGFWt531gc2Dscy9b0RdfYgdi5+vqikDXxvSMxOKtCb6r5GIjew4PRf+V8FJXT+lbFaNrO5S/E6rTOVJNy8Wi1vdXnVa9u3d7UdGxT9I3vhkLr90nNdAaq/ReNfVBbZzTtz3K/Xdcd+zrcFy3rLTT2/7TbW1fb7u7Hmj6/NPH7NL233L7iOKbppmPZmanXm86FjbEvhpcOVM8X58ztq+P63Wm6kI7FmqZv07zPKuX51L1v0vkw/Xk2YZuavlPat8tHD0TPivbft3XfT1jvhO1t+V3U91+Tts/Pev8CwKnr0ksvjds//8fV3KlNTcpC6SqCRhRhoL8/+veORO/F402gdm1eXVtePgbj6IqBonhcKd63bHRnDB7uir41RcH79gMx1tVdKzgXhbiyQFl/796IgRz6Ezz7RAx3r4rb1lXzDdtjQ+N7pqZFPbGq0R9gV1y/evy5wcOpgD1eYE2F5FXFfmi899Cy2Fi+d3sMPjUWvcvHv/f69y6LrsMHmwrRUysLyfXjUn5u9URpuu2dwdYiKIyOr7fliv7u62N1WlacB7M23XoLXcW5kwJTbXsj+tZW+6Us8EcRAqr3FedRz5pH2hyjNqY9z6qA0rxNE0JB74plMXx7em5nHGiqZZu479P+HWg0DSzWe3FPcQ5U6ywejeHAq/1XNk1LAXuK5+e0fwGALAgpC2YkButXp58dHQ8aSSpA1jstl1fue2Jxo/A4EvuqwtfYU4MtBdIty4s1nDsw/t501bl7cSP8zKwqhM9LLUqzInA8dnS8gNyQCrT17zlUXpnv6h6/Ul6XAsnyg001AMX7LlxavHbFprbv3bV5X4ycu7wKdum1EQf2dPKdtsTyVEM15Ws729620jEuj808d4yfab1Fob1eO7Lrm8MxVp0P6xf3tJ4/u4sgOdYV3edV89OY9jxbd2Es62o6t9sYe+qe6ljWmgf2LC63KBZ3t+77cnsbv4v02iKYX6djOwC8EgkpJ92WuK8o9KWmN7UrwoNFLOnc+PuqRy5NW7YNxoHuenCoWb9jY/TFgdhZbWvbTtrVVfuJzZCKom7LVfXy0SgYb4+Dh3tjebpCnwrNMRxPNALO3HW0vVOpX83vPxjLy8J9h7UWMzlR653ByTjP6jdUvSc21sLRaTSKHAAwPSHlZFu3OHqqDvfJ+h2rmvpATC+NUtS75niu1Kc+Fyeq8LcrnjjUE6su7qnmI3q7u6oOy8mWGGj0cagrtif1X5l0Vb66qn711KOEbd9zIHqWbymbeh19rNMCdOo43RXL3ltba6rBae6bMvP2dqJWW5Wa63VSa9G5mde7ZW1fxKEnyu1PgzmkpmCNI52ajXWNxMFJYXCyac+zskamt/NmcA3VMW2qbUvb266ZXtkcMjVznFBLWA5QMauaw05Vv4vTdFQ6ADgVCCkn2+7rY1/qb3Jduio+FJu6hzse0jYV3gYP98ZAeUW99sipaUxqhnW0a7xgn4JEralS2tZVMfpUc51Ralo1EL1dfbGp8X3Gawm2X1nrzzD+3IR7k6TCcvdAbFo6HIMdFLxrdsX1dx+IqJqRpRqc5tqSmbc3La91GO9d07pNKfDUtzM9Ut+LRu1QvXlfajZV/74dFoinXW/S1CwrPdfop7FtQ63PR/29a1J/j9Y+P2l52Tm+vo4qvE5/nqW+RKkf1XhTvE6/S3lMi2NWf99A94GmgFoFhfrjumUxfPeE8Jlq65rOicY2Hcf+ralG/WpukgkALCije8FpIgWNdiNzMXvlviwCr5HBADiVGN0L4HSUhi8eGhJQAOAkE1IA6uoDEwgoAHBSCSlwmig7mGvqBQCcBoQUAAAgK0IKAACQFSFlvlQdbtMQtLXhXNvdV6L1DuYnerjg8e2oPnee7ocym/Vuub/z75leW983LcMLd6j2/uO5b8zstvdEKb9HOWRubRjek709AAALTUiZL7tfiKPVZGlsdNKd48s7mI8ONu7a3biHxQlS3uyuydjobO5lP7UTtd7aHcZ3dnyfmJOvFtLmEqimk26e2OzoC7pwAwCvLELKvKrdOX5iIb4u3cF8vgr0HSvDUrq7dzU/X07Ueo9DLeSM36DwlFbe6b66qSAAwCuMmzkugNR8Z+DcaqZhJAarAnV6fvnBwYg1A9Udrsefq12tr93VvDR2oLp/Q2oKtDxGn+qJvhVdMbK3/v7m984kraN4z+HBeR0VauL3HXtqZ1VrVH1ebXGh3bbWvm/3Y/2td1KfuB+a35ua2l3XF+VTjf3Tublsb3mzv3R39hZjceD21XH97to6V43W19M83zsPxw0AYDI3c2RWalf4+2PwcK0AXGvu1Vog7V2zPA5WzcAGD/fGqrIfQq1gvuxQ/T3Fc6N9sanRB6Q3+rr3xc6nxor3r4rR2weLom5PLF5XPX0SlAX+GG/Slr7zuO2xoVqeHjuLgnrte3Zg60BLU7mW/Ve/t8Xe2ddSzXV7y+F+q6ZpI3vrr6kFlJnld9wAAHIipGRi7KnBRqE7hZraFfje6O4aiX1NfVe2HywK4t2Li/iSjMWBPdW7Du/rsIDcrCqEz1stypZYfm7TNk1S68NR7xyfaiK6usfrKab17GiMnTtw3B3jW53A7Z3W8R43AIDTm5DCgikHDogDsbNRMzGLDhf12pL+g7G8DA2PxG0nuObhuLYXAIA5E1KyljpO15t+Jevjtot7Y+zQE7PqczG12hC38zU0cW17u2LZe2vbm/ptNPf1SAMH1DqEJ1tiYFKfjk7Uan8GD3dF93nVojk73u2tDRzQs7h+fFo1al223temT9LxqI5bOUwxAMDpR0jJ2q64fvVgHF2xqWpytKnsl3Gihy6eu2J77z4QUW3vpqrfRd32PQeqJlvpu6yK0aea+5DUm1bVOsf3rknT48P71u7NUluWHqkfSaNjfRECyuVrilDQ1Reb0nRHBfjj2d6a9Jr6+5trd1ree/FoDM5rLUw16ldXd1OnfgCA04fRveAUVI4utnR41iOZAQCnL6N7ASdHGm451foIKADAaUxIgVNJfQABAQUAOI0JKQAAQFaEFAAAICtCCgAAkBUhZb5UHZrTkLm14XLn6c7oGay3fL7Te6nUhwNOj7ncf6Xarkca94aZvVlt74lyoo4bAMArgJAyX3a/EEerydLYaLTeVSPdgG8Od0mfcb1zdKLWu23DKXd39hMSak7U/gUAeAUQUubVWIw+G7HrhZbi6Tw41dZ7HKrRq/K9YeVsZLh/AQBOAW7muAC23D8UA+dWMw0jMdi/IbanydQ06Lq+6CqXF0Xbp3bOopCe7tS+KfriwLzeNyPVLmxaUd+iwuHB6L+y3NpJz7Xb3vI13fsa76lr3RdjceD21XH97tpc83Mje/vH7yjfgTlt74T9Xld/fuJ3aJ5P0xtjOI6u6IvesQMxeGhZDBSfMbtjBwAwf9zMkVnZfmV/9PcPFrEkFcrTdHo0B5RlMdxYPlgUfDeVfRlOlrIwnm4WWG7P5KZbuzavrra1vr0DnfW3KL7rqu4iTDXeOx5Qktp+2hkHZtlSbM7bW9XalK9PoaZ6Tacho2vFshi9vTiuXX0xUISXtJ6u7t7qWQAA5kpIOdnO646uw/uaCuvb4+DhiJ7FnXYc3xXXry4K1/NWi7I+LlzaFSOPTbO+5s7xQwPRGz2xuJO+NqmfRlGg3zSXvjlTOoHbO5PGcSvC557WGiMAAOZOSGGWtsR9a3rL5lj1monOO4Rvjw3le+6JuLoWGk58jdHxbC8AACeDkLJgRmJ0rCu6z6tm654djbFzV43XLKQmUeeOxfA3O60XSX1SigL/I7cVU/NhV7wwGtG7vGrAtfW+1r4e6xZHT9UhPFm/Y1XMvoFTrfYnNY/qvMZoKse/vWXH9u7F7fdffXlxXDY2rxcAgBNGSFkwRcH8sZHoXVNvdlTdNyP1i9h7NPquq5Zf1xdH97b21Vho268cjJFzB2rbc/Fo7NzbVPdQbO++w12N7d3UPdzShyT1DymXpwJ9fR314X1bml0Vr1k6HPc0+n9UYWtoU/QVb63vp05qWo5ne0vbBuNApGZotdfU79Gya/O+sr9Jufy67tjXvF4AAE4Yo3sBAMBpwOheAAAAJ4iQAgAAZEVIAQAAsiKkAAAAWRFSAACArAgpE2y5v3UYWgAAYGEJKRNsv7J2V/KjKzaO32ARAABYMEJKW+nu8NUkAACwoIQUAAAgK0JKW7vihdGu6D6vmgUAABaMkDKF1Dfl4PLUif6+2FItAwAATjwhZQpplK/lB1Mn+g2xvVoGAACceEJKW+tjcfdYjD5bzQIAAAtGSAEAALIipAAAAFkRUtrqje6uahIAAFhQQsoEqcP80NBA9Dx1T1y/u1oIAAAsGCFlgjT0cH9/f6zevKtaAgAALCQhBQAAyIqQAgAAZCXjkLI+bnsk9Q+pPe7bWi0GAABOaxmHlF1x/erUP2RnHBirFgEAAKc9zb0AAICsCCkAAEBWhBQAACArQgoAAJAVIQUAAMiKkAIAAGRFSAEAALIipAAAAFkRUgAAgKxkHFLWx22PDMXQ0Kbo66oWAQAAp72MQ8quuH51f/T31x4btlWLAQCA05rmXgAAQFaEFAAAICtCCgAAkBUhBQAAyIqQAgAAZEVIAQAAsiKkAAAAWRFSAACArAgpAABAVoQUAAAgK0IKAACQFSEFAADIipACAABkRUgBAACyIqQAAABZEVIAAICsCCkAAEBWhBQAACArQgoAAJAVIQUAAMiKkAIAAGRFSAEAALIipAAAAFkRUgAAgKwIKQAAQFaEFAAAICtCCgAAkBUhBQAAyIqQAgAAZEVIAQAAsiKkAAAAWRFSAACArAgpAABAVoQUAAAgK0IKAACQFSEFAADIipACAABkRUgBAACyIqQAAABZEVIAAICsCCkAAEBWhBQAACArQgoAAJAVIQUAAMiKkAIAAGRFSAEAALIipAAAAFkRUgAAgKwIKQAAQFaEFAAAICtCCgAAkBUhBQAAyIqQAgAAZEVIAQAAsiKkAAAAWRFSAACArAgpAABAVoQUAAAgK0IKAACQFSEFAADIipACAABkRUgBAACyIqQAAABZEVIAAICsCCkAAEBWhBQAACArQgoAAJAVIQUAAMiKkAIAAGRFSAEAALIipAAAAFkRUgAAgKwIKQAAQFaEFAAAICtCCgAAkBUhBQAAyIqQAgAAZEVIAQAAsiKkAAAAWRFSAACArAgpAABAVoQUAAAgK0IKAACQFSEFAADIipACAABkRUgBAACyIqQAAABZEVIAAICsCCkAAEBWhBQAACArQgoAAJAVIQUAAMiKkAIAAGRFSAEAALIipAAAAFkRUgAAgKwIKQAAQFaEFAAAICtCCgAAkBUhBQAAyIqQAgAAZEVIAQAAsiKkAAAAWRFSAACArAgpAABAVoQUAAAgK0IKAACQFSEFAADIipACAABkRUgBAACyIqQAAABZEVIAAICsCCkAAEBWhBQAACArQgoAAJAVIQUAAMiKkAIAAGRFSAEAALIipAAAAFkRUgAAgKwIKQAAQFaEFAAAICtCCgAAkBUhBQAAyIqQAgAAZEVIAQAAsiKkAAAAWRFSAACArAgpAABAVoQUAAAgK0IKAACQFSEFAADIipACAABkRUgBAACyIqQAAABZEVIAAICsCCkAAEBWhBQAACArQgoAAJAVIQUAAMiKkAIAAGRFSAEAALIipAAAAFkRUgAAgKwIKQAAQFaEFAAAICtCCgAAkBUhBQAAyIqQAgAAZEVIAQAAsiKkAAAAWRFSAACArAgpAABAVoQUAAAgK0IKAACQFSEFAADIipACAABkRUgBAACyIqQAAABZEVIAAICsCCkAAEBWhBQAACArQgoAAJAVIQUAAMiKkAIAAGRFSAEAALIipAAAAFkRUgAAgKwIKQAAQFaEFAAAICtCCgAAkBUhBQAAyIqQAgAAZEVIAQAAsiKkAAAAWRFSAACArAgpAABAVoQUAAAgK0IKAACQFSEFAADIipACAABkRUgBAACyIqQAAABZEVIAAICsCCkAAEBWhBQAACArQgoAAJAVIQUAAMiKkAIAAGRFSAEAALIipAAAAFkRUgAAgKwIKQAAQFaEFAAAICtCCgAAkBUhBQAAyIqQAgAAZEVIAQAAsiKkAAAAWRFSAACArAgpAABAVoQUAAAgK0IKAACQFSEFAADIipACAABkRUgBAACyIqQAAABZEVIAAICsCCkAAEBWhBQAACArQgoAAJAVIQUAAMiKkAIAAGRFSAEAALIipAAAAFkRUgAAgKwIKQAAQFaEFAAAICtCCgAAkBUhBQAAyIqQAgAAZEVIAQAAsiKkAAAAWRFSAACArAgpAABAVoQUAAAgK0IKAACQFSEFAADIipACAABkRUgBAACyIqQAAABZEVIAAICsCCkAAEBWhBQAACArQgoAAJAVIQUAAMiKkAIAAGRFSAEAALIipAAAAFkRUgAAgKwIKQAAQFaEFAAAICtCCgAAkBUhBQAAyIqQAgAAZEVIAQAAsiKkAAAAWRFSAACArAgpAABAVoQUAAAgK0IKAACQFSEFAADIipACAABkRUgBAACyIqQAAABZEVIAAICsCCkAAEBWhBQAACArQgoAAJAVIQUAAMiKkAIAAGRFSAEAALIipAAAAFkRUgAAgKwIKQAAQFaEFAAAICtCCgAAkBUhBQAAyIqQAgAAZEVIAQAAsiKkAAAAWRFSAACArAgpAABAVoQUAAAgK0IKAACQFSEFAADIipACAABkRUgBAACyIqQAAABZEVIAAICsCCkAAEBWhBQAACArQgoAAJAVIQUAAMiKkAIAAGRFSAEAALIipAAAAFkRUgAAgKwIKQAAQFaEFAAAICtCCgAAkBUhBQAAyIqQAgAAZEVIAQAAsiKkAAAAWRFSAACArAgpAABAVoQUAAAgK0IKAACQFSEFAADIipACAABkRUgBAACyIqQAAABZEVIAAICsCCkAAEBWhBQAACArQgoAAJAVIQUAAMiKkAIAAGRFSAEAALIipAAAAFkRUgAAgKwIKQAAQFaEFAAAICtCCgAAkBUhBQAAyIqQAgAAZEVIAQAAsiKkAAAAWRFSAACArAgpAABAVoQUAAAgK0IKAACQFSEFAADIipACAABkRUgBAACyIqQAAABZEVIAAICsCCkAAEBWhBQAACArQgoAAJAVIQUAAMiKkAIAAGRFSAEAALIipAAAAFkRUgAAgKwIKQAAQFaEFAAAICtCCgAAkBUhBQAAyIqQAgAAZEVIAQAAsiKkAAAAWRFSAACArAgpAABAVoQUAAAgK0IKAACQFSEFAADIipACAABkRUgBAACyIqQAAABZEVIAAICsCCkAAEBWhBQAACArQgoAAJAVIQUAAMiKkAIAAGRFSAEAALIipAAAAFkRUgAAgKwIKQAAQFaEFAAAICtCCgAAkBUhBQAAyIqQAgAAZEVIAQAAsiKkAAAAWRFSAACArAgpAABAVoQUAAAgK0IKAACQFSEFAADIipACAABkRUgBAACyIqQAAABZEVIAAICsCCkAAEBWhBQAACArQgoAAJAVIQUAAMiKkAIAAGRFSAEAALIipAAAAFkRUgAAgKwIKQAAQFaEFAAAICtCCgAAkBUhBQAAyIqQAgAAZEVIAQAAsiKkAAAAWRFSAACArAgpAABAVoQUAAAgK0IKAACQFSEFAADIipACAABkRUgBAACyIqQAAABZEVIAAICsCCkAAEBWhBQAACArQgoAAJAVIQUAAMiKkAIAAGRFSAEAALIipAAAAFkRUgAAgKwIKQAAQFaEFAAAICtCCgAAkBUhBQAAyIqQAgAAZEVIAQAAsiKkAAAAWRFSAACArAgpAABAVoQUAAAgK0IKAACQFSEFAADIipACAABkRUgBAACyIqQAAABZEVIAAICsCCkAAEBWhBQAACArQgoAAJAVIQUAAMiKkAIAAGRFSAEAALIipAAAAFkRUgAAgKwIKQAAQFaEFAAAICtCCgAAkBUhBQAAyIqQAgAAZEVIAQAAsiKkAAAAWRFSAACArAgpAABAVoQUAAAgK0IKAACQFSEFAADIipACAABkRUgBAACyIqQAAABZEVIAAICsCCkAAEBWhBQAACArQgoAAJAVIQUAAMiKkAIAAGRFSAEAALIipAAAAFkRUgAAgKwIKQAAQFaEFAAAICtCCgAAkBUhBQAAyIqQAgAAZEVIAQAAsiKkAAAAWRFSAACArAgpAABAVoQUAAAgK0IKAACQFSEFAADIipACAABkRUgBAACyIqQAAABZEVIAAICsCCkAAEBWhBQAACArQgoAAJAVIQUAAMiKkAIAAGRFSAEAALIipAAAAFkRUgAAgKwIKQAAQFaEFAAAICtCCgAAkBUhBQAAyIqQAgAAZEVIAQAAsiKkAAAAWRFSAACArAgpAABAVoQUAAAgK0IKAACQFSEFAADIipACAABkRUgBAACyIqQAAABZEVIAAICsCCkAAEBWhBQAACArQgoAAJAVIQUAAMiKkAIAAGRFSAEAALIipAAAAFkRUgAAgKwIKQAAQFaEFAAAICtCCgAAkBUhBQAAyIqQAgAAZEVIAQAAsiKkAAAAWRFSAACArAgpAABAVoQUAAAgK0IKAACQFSEFAADIipACAABkRUgBAACyIqQAAABZEVIAAICsCCkAAEBWhBQAACArQgoAAJAVIQUAAMiKkAIAAGRFSAEAALIipAAAAFkRUgAAgKwIKQAAQFaEFAAAICtCCgAAkBUhBQAAyIqQAgAAZEVIAQAAsiKkAAAAWRFSAACArAgpAABAVoQUAAAgK0IKAACQFSEFAADIipACAABkRUgBAACyIqQAAABZEVIAAICsCCkAAEBWhBQAACArQgoAAJAVIQUAAMiKkAIAAGRFSAEAALIipAAAAFkRUgAAgKwIKQAAQFaEFAAAICtCCgAAkBUhBQAAyIqQAgAAZEVIAQAAsiKkAAAAWRFSAACArAgpAABAVoQUAAAgK0IKAACQFSEFAABOYd/73veqqdOHkAIAAKeoFFD+5E/+pJo7fQgpAABwCqoHlD/4gz+olpw+hBQAADjFnM4BJRFSAADgFDIxoOiTAgAAnDTtAoo+KQAAwEkxVUDRJwUAADgp3vzmN7cEkonzp5NXnbXk7H+spltc9/HfqqYAAIDc3f75P66mTn1ThhQAAICTQXMvAAAgK0IKAACQFSEFAADISts+Ka973evi3f9yZfn/V4IXX3wxvvWX+8v/AwAAJ1fbmpRXUkBJ6qEMAAA4+dqGlFdSQKl7JX5nAADIkT4pAABAVoQUAAAgK8cZUj4Qm2/ZGTt31h+3xOZfq56awgc23xI7b9lcvPM4bPid4rN+J66oZgEAgNPHcYSUK+J3dl4W5zz3UGzatKn2ePC5OOfDO+OWzccVQebVFb9bhKffFWcAAOBUMeeQcsXvXhRn/fDx+OSOr1ZLCn++Iz75Fz+I1yy9UC0HAAAwJ3MMKVfEeW+M+MH3H6jmm9z3bPwgzorzNlTzLU3CbokLf7ZaXPdrm+OWqZqLlc26pniuWcvrxmtyUtOyi4rtjDdepDYFAABOEXMLKb/WEz8bP4kXj1TzLX4YL/4k4md/rh4UVsfSOBQPlU3C/qoIDK8pl9dcEb/z4aXxD39RNRf7i3+IpR+u9zUpnnvPz8ahB5ue+1C7viwTXzdek/PVHZ+Mx39YTPzw8dj0H9sEKgAAIDvH2XF+Jh+IXz7nNfGT5/4mao3CHognDhUJpm7DeXHWTw7FE/dV8/c9EYd+0lwL85pY+t6qBuS+34tNn9xRrafZA/F7mz4ZO/68NveBn5tYVQMAAJxK5hZS/vxo/EMRIF63pJpv8cZ43Wsi/uG/pzjRPF3z1f/+D9VUFSheszQuazTVuiyWFq+v1cKk8PF4/CA11ao/37bJVusIY6vPqRYDAACnpDnWpDwQz/4w4qw3tQkNqXYkfhDPlrUjrU2/kuaajjKw/KTeFGz8Md4ZPwWVavmDh+InRWD5nUYtS2XDhUWw+UE8Xn/vd8ZDEAAAcOqZc3OvB/5jrZajZbjh1An+PWcVueOJIl4kX42/ee4nTaN91Zp/NaRO9q9ZGhfWg0fVib4MIuV0U2f5svZmqn4wPxs95es+EJvfeVa5BAAAODW96qwlZ/9jNd3wby7719XUTFJTq1oTrZqfxKEHx/uH1KV7lZSjbBV+8MMfxFmvezEeqvcvSWHkw0ujvoqfHHpovCYljdpVhJ66xnPl8ojHN/1eEYaat6H4/L94Ls55zznxXH076utINTZt+7SM+y8P/ddqCgAAOFmOM6ScXoQUAAA4+U7w6F4AAACzI6QAAABZEVIAAICstA0pL774YjX1yvFK/M4AAJCjtiHlW3+5/xVVaE/fNX1nAADg5Gs7uhcAAMDJok8KAACQFSEFAADIipACAABkRUgBAACyIqQAAABZEVIAAICsCCkAAEBWhBQAACArQgoAAJAVIQUAAMiKkAIAAGRFSAEAADIS8f8DN1iGLp4MCOgAAAAASUVORK5CYII=;" vertex="1" parent="1">
          <mxGeometry x="-2400" y="240.90999999999997" width="430" height="458.17" as="geometry" />
        </mxCell>
        <mxCell id="9wkwWSCI9OqaNVQ2Mww2-10" value="&lt;font style=&quot;font-size: 28px;&quot;&gt;Nebo přes parametry v URL&lt;/font&gt;" style="rounded=0;whiteSpace=wrap;html=1;" vertex="1" parent="1">
          <mxGeometry x="-1910" y="310" width="190" height="160" as="geometry" />
        </mxCell>
        <mxCell id="9wkwWSCI9OqaNVQ2Mww2-13" value="&lt;font style=&quot;font-size: 28px;&quot;&gt;TODO ukázka&lt;/font&gt;" style="rounded=0;whiteSpace=wrap;html=1;" vertex="1" parent="1">
          <mxGeometry x="-1590" y="270" width="190" height="160" as="geometry" />
        </mxCell>
        <mxCell id="9wkwWSCI9OqaNVQ2Mww2-14" value="&lt;font style=&quot;font-size: 28px;&quot;&gt;Vypíše to json, kde bude společnost a její skóre&lt;/font&gt;" style="rounded=0;whiteSpace=wrap;html=1;" vertex="1" parent="1">
          <mxGeometry x="-1485" y="460" width="190" height="160" as="geometry" />
        </mxCell>
        <mxCell id="9wkwWSCI9OqaNVQ2Mww2-15" value="" style="shape=image;verticalLabelPosition=bottom;labelBackgroundColor=default;verticalAlign=top;aspect=fixed;imageAspect=0;image=data:image/png,iVBORw0KGgoAAAANSUhEUgAAAcsAAAIjCAYAAABs/TA1AAAAAXNSR0IArs4c6QAAAARnQU1BAACxjwv8YQUAAAAJcEhZcwAADsMAAA7DAcdvqGQAAGS4SURBVHhe7d0LdFzVmS/4f1967AmLoulWOSHSpVsWbss8LJtQMcQxbhRMAEM0WOMseykZBa+xjVbHqCcKuY1NtxX5NrbTEPW0I/oK29MOuonGXlFLHoVHaExEwHHAURIs87AYENVhrCRt6d40xUourGZl9rfPPs86VbtKD+v1/62lUM/zKud859t7n/393qWlZb8DERER5fQfzH+JiIgoBwZLIiIiCwZLIiIiCwZLIiIiCwZLIiIiCwZLIiIiCwZLIiIiCwZLIiIiCwZLIiIiCwZLIiIiCwZLIiIiCwZLIiIiCwZLIiIiCwZLIiIii+JLdF25Hs2N67HmylIkLpxnXgTe+00GI6+fxvEfdqHnUBprDh3Gp95ajdpd5gNzyeYDeLGhEmfaV+MLB81rVjvQ3V+DCvPMl0ZPaiNazLNJt/peHN65HksuUY9/PYgju76APc85b0WV7TyMx2vKzTPl1/1o3bQNHW+b50REs0RRmeWqxgM4duherEuV4p1Xe9HSUIvlqetxe8N9OPBUWgXSldjwxVYc7u/G5qV+IJ1bSrH9U0sxH/Ow7FP3osy8arcbtfXtOJUxT6dECnu+ZAKluKQSG77UghXmaVgK265hoCSiuaHgYFlW34Y99UuRvAA4e+w+FSAfQk//sH7vbP+zOPjAFty+4SE88/b7+rWCXKeyqafaUG+ezgrX3Y1Vi83jxSux7TrzuBCvfhPPDE5ltFyMEjdQui4pwRLzMOS6z6DqMvOYgZKIZrkCg2UNtn8uhYR+PIwzPSf0oyxvd+HLje04+WvzPK8UmptuRcUsS0DXqePkZ5Ol+PjnaszjmeB1jEZ/u1+P4ox5GLRi3VJnP1WgbGtkoCSi2a2wYFn3aSwrMY+RRPIa8zDO253Yuu8ERszTXFbtvBdrL59tTbV34c7l3oHSkss/g83m8fTXj+1/14UzbsCUPsu/a8ZJ89SXwoYrS71AefBV8zIR0SxVWLBclDRZpZiHZRsexfbV5mmc3k78OE+msWRzG/bUlGO+eT5blH2lGssuNE9cFy7Fmq+owDJTPPcQNq65XvdFL1+Ta3BPP75cI+8zUBLR3FBYsHz3PfPASFRiw4NPo3vX+vj+LHUy7Rl0+jOjZJDQgQa3SXc2SWHbykrgA/M0YMnKu3MMkiEiopmgsFtHrmvB4w/fEj+y8/1RnDn2bbQe6MTJvP1Wi1WA3Yum6tK8GeVQ7/Xh202urMG2TZ/BbddUIpmYh/kXmNffz2BooA9H9u3GkUB209z1AtYFBmlGBZef/dkMTrbejK2d5mkxalpxbGclznQMYkn9SiTNy45RHN91O7b1mqd51Lc/jaZU8FIieutIHfb3NWJF9Goj04/W6m3oME+1y1Ko33I3NqggXnZJ4DafzCjeev4Qvrqzy+uPzF6vEVhuIZ8hIpqNCsssX3wER/pzjNKcV4Ilaxuxv0tlmg824DZ3hGRE06GD2G4JlFHOrSo7sPmTJSoINaH2ulpsPdivQpoyL4GKVA22HzyM5kCTcMuXtuFg7LaqQLivNhSIW9bXYvsTJgP+9Wkc2fXFsQVKZXNNCsm3+9GxL64JugQfr7nLPB6vTmz9YhPaToya5+qi4Yl92FofCVZyv2RHG5rWykCcAbTVX4+N7c6xm5+Q3+xePPpEK+rN79XRcDM27noKZ2MyY1chnyEimo0KHA07jI4HHsl/W8gFKnhV34U9R7qxvyk7C23dtFr3g/WkzQsuyUqkf8z8ecGszr9VBe8N41RfP86q7TjZvg3HgsuYV451DY3miaICVlvDN3DcjSWe+Zg/L9o0PIwnh0fxngTSf9yCPb2vm9eLdN0OrF06D2dOPIKTUOs/MWje8M1fWo3tOS4kivbqCQxkpGn8fZUpN6N2ZySrv0xlnzKxgE4CZd+cvsUzB7+LU4HjMv/DK1HfeIt5pt5Xy8rfOlDYZ4iIZpsCg6Wibwt5AB0vZUWhsHmlWFHXgkcPNmKVeWksmu4I9GsmUthyf515EuOjiyP3avZi23dOqyAYNA/Lbt0R6TssxfbVS4HT/4SWMWaUYt3nPomK907j2IPmvtMHf4RTv9EPfRdUYlVDyjwZp8sadXN2pr8d9+yK3sZTim27GrDCvV/yN2kMePv2FM4Mhy94JMskIqL8Cg+W4u2n0Lr5dmx8UJ10R/NPPpBcXoc9D+cJcEVK/GGejsg4Bx/B96MZUPknUR+87XG1CuiXj+LHPe0qax0r53aRkZe+C39mu3Y8/3r28SlL1WGdeTx2i7H9ayprzJxAa0Nn9nZfdzduC86e9MF7eMc8FG2Hev1bQ1QgPdY5jqsEIqI5orhgaZw50oyNt2zE1n35g2biuvXYU8wMNgGt7YH7/dRJ/ZnvfFM9WIx1X2nFig87L+cX1xxago+va/CaiDfXr0TZm33YU8DAm1yc20WG8eNvhxdysLc/+17TkhTuHMdNl2W3NOLRpzqw4ZIT2LO5CT3m9ZA1lfEDsVzBW0NWb0RLjnlfiYjIV1iw3HkY3febx55hnOyQoLlaZZq9OBVp3nOUour2Md5jGDqp78TJqj04dqIDTVemceZfzWcszj74T1l9l/OXftqZgu6ye7Fm6Xs4+dhD48gqze0ir59A24vmJVfsvabFzhdrXHYLmtq70f1AnTM5xIevxU3V8ce1/jI2qxIRTbSCM8uKqwKDaCLOHNmNL9RsxPauQT3aMujiD99oHo1FKW5rasPjKkhuX1uJ+a+2Y8umfaFmxfx60WHmr/U5U9Ct+1I1lgyfwMHxtELW1OHjl72PU9+PC7jxA32Kni9Wbe+ajhbUp4IjiRNY0dAaGgWcU6IUV0zUwCIiojmq8GbYy6+1jOYcxpN7v+DfiuH6IH/fZm4rsb3jUeypS6FMuuB+cxpHWr4ZO09pPifb/zlrsE3yunv0/YKnHo+byq1w+nYRyRYbXsBL/dl/j29QWWeWYueLzeC19t3oSUeOo4wC3tnm3frhOvPr6OVKKRZunEEzCBERTUOFB8sLKrH2/jprE+Lxnc/ijHcf3vsYOt1lHhen/uEWbLjSvwE+82of2sZyy8Lb7TgaHcF7QQKJX5/AgYJrTcbQzbjzcPapbd5tL3F/Ld79kL7i5ovN4OyRXrR8KWaC+ktS+OLf7QiNOj45MJyV3S+5YXwjk4mI5rrCg6WSSG1Cc30RWcqvB/BMu3lclEasjZspZox6HuwLBHDHmef34bh5XLxS1N9/C5Z8MKj2r9+8Fq/n23J/aMSFS7F2Z5G3kcgE9bt6MRRJMOeX34qmnSvNM6VTZdLR+Fy6MvwZ12W3YPuuRk7FR0RkUVSw1H1ljY/i0ZhJB1yr9t6IJTKRwAejONmxO2sKtNFM5GyfKMWyW0qxpGYHDj9xANv0ixdhnjutnZGorMbmK2US9lbcEI3XFyZQlq+J+O2HcOx0YL2jJ3DE3BM5FmX1O7BFBfPMwFNotWW7Lz6CZ2JuI6m49d7C+hyDntuNe8wsPL55qKhpwX7vIqYX2x6N+8xePN5+L9apYyjBfkV9C7o77sfH/71/XE3RRERzQZHBUiSwrE6daHsPoHnTjVhhgtSS1Xeh+eDj+PoaddLOpPHkg1uwtSM7ILU9PRA5kZfipge6cXjnrZj3wiG06ddexnA0O0osxbaOF3Dg5gyeGYg0NF5QiQ09z6E7LnsyDnac8DK8oR92xt92YXPlSmzedRiHv+hMmJAorcLmNcH6lXEuwslX3opMkKBIn2PLYeypD3z/yvVYtTCaUZfiiib/M2fVBcgTb5onHmfAz54aU3W6cxu2d5zGSCibnoey1Ho0q2P4Un839jdWY/6L+0KTGixRQdf9PT2JStzU4K+/kM8QEc02hU2kvvMwnl94Art37sPAR2qwrubTWLW8EguTCcx373//4H1kRofx2g97VWDKP6l62foWfKOhGhVmcu/3fp3Gj3v3Ydu+wGw0Mrfpzhoskc/Isn81iOPffhDbj7wOmc6t7eFNWFVqAov6/jOHd+LLB/NNV1eK7Z3d2PAfT6Nt9ZbABAKFyjGBuRY/AbttUndPuhfL1wPd/TWoMC9FuRPA55zM3AhOFF92SwOaPvcZrFhUgoT7O72fwdlXf4Inv7MPbU/5FzO25co2to5UWz+zfP1u84SIaPYoLFgSERHNYWNohiUiIppbGCyJiIgsGCyJiIgsGCyJiIgsGCyJiIgsGCyJiIgsGCyJiIgsGCyJiIgsGCyJiIgsGCyJiIgsGCyJiIgsGCyJiIgsGCyJiIgsGCyJiIgsGCyJiIgsGCyJiIgsGCyJiIgsGCyJiIgsGCyJiIgsGCyJiIgsGCyJiIgsGCyJiIgsGCyJiIgsGCyJiIgsGCyJiIgsGCyJiIgsGCyJiIgsGCyJiIgsGCyJiIgsGCyJiIgsGCyJiIgsGCyJiIgsZniw3IHu/hfwkvl7vr3OvG7sPOy9J3/dO83rFs1d6vNdO8yzbPXtT+OlvjbUm+eoa8Pz/U9jf2T100Md9vfl3x8iIsrv9y4tLfudeTyDSdCsQQUyONl6M7Z2mpc1CRY1OFu9ES3mlfGQQNmUSgCZfrRWb0OHeX16kn1vxAq1uUj3Yvn63c7LRERUlNnTDJvux8lMAiuaDqPZvOQZHcFb5uF4dTTcjNb+jHk23XVia/U+dVzMUyIiGpNZ1Gc5jK0H+lVuWY51bHIkIqIJNOXBctHlFTh08BHdpyj/ledj1rkNN/SmgfKa7P5LEerDdDNQv9/T6dN0+vjC3zf9fvK5vjYsNK969HKDGW24LzX83lgE+h0D+xDsg9X9qIF1xu6/CB4D76IisH/6z93ewOvms956An22bh9vcBvC/cPh5fvbZt+v3NtGRHT+THmwvH/7X+Ka5cv0Y/mvPB+XXRvRo+JlIrUpe8CNem95qhdDum/T7cPcjdrWXvS0Xo/aXXJiNn18Ac1d6rXRXvXd67H8ALCs0rwh5CRfU26eOJq7alAhfYTyeb2+cqzJFbysAtukLgJeqhrQy5V9rKg2AauuDVtSUPsk67teNxMnUjWxQaW5qhyZ/n3Otuk+TGf5Vwya11LSbKuycx2Usptxw83QTiBbJ7uvtm0LDvnbVuMOeJLPbAIOONsmx+NcqlEFxAL2K++2ERGdP1MeLN1A6Yo+H4uW9XJSzdF/qYLj0X7gitV+8KpfBLylBwXF9PGpQLSmPI0ed3CMyl5PjQaiqQRgyWYDWtabQKRHycrAo/EIbFNgkM5bI4GNlIw65QxskixPD0DKUqoD27KB63FDQ2AE1M4aFbDSOOa9ptZnmrOXWUcPh7fNXW7LerlASDjHWC9ffgs3M3SOR4UK2tb9Gte2ERFNnCkPlj976ZR55Ig+Hxv/pLqua6V5zdfx3CDgZV47sKo0nXNUa/3qSnXaDwud0GOZZtgtKqHS2ZB5OYuTmflNjGO//cRtApVgGA3eWnlKZ3EVVeH+3PrSEvMooHMY59R/FpSONRtOI3SIZOSwzgwDf+7FRx6Ts21ERMWb8mD5wJ6veQFS/ivPJ4TXf6mCRPSc23kCr2WcptH69lKcDWZaER3Do+p/S1BW8LlZAmANFkhTp/XWEsnMgkEkettLgXYeVtnkKHrUMmp3mdeiJHtrVRcQkf5cZ//iM7Vzw2PZGFGOpArM3vcTyex+3gJMzrYRERVvyoPlG28OYdPmu3WwkP/K8wlj+i+zqSDVl9b9mlswHHv/ZSJp+iF3DegmxRVb3H60HbhTmjkTKTQFJyaIBFTv+3UrcUVcq+iE89cv/ZKxzAVEqD93V6/OfCtq/Cbr+vZqVKhs8KgOvJ04q68XSvPvf3lV/Pf18lWGHzpWO7C/kD5c67YREZ0fM35SAm+SAC3HpARdK3F8fTTLcyYyQG8wGwsMOhFuX5r0PTalTHNsGif7S7CictCZlCA0wMdZ//HVgW3KpPUAnwp5GuibK1z2NrWOVAf2Oa0yygEsC/SNDqXTqCiXbXoP77w3HxfPd17X6x+oCmyvfFcGOkXWEZ1wId/+u98dVfup1ulsg7tclztphEve70WZdb8K2DYiovNglszgQ1PHDZZjuRAgIpoZprwZloiIaLpjsKRxCDSRyr2S3iQHRESzC5thiYiILJhZEhERWTBYEhERWTBYEhERWTBYEhERWTBYEhERWcyyYOlMYB6uh2joCiCTVNopuuzJXJcmt2y8MLm3auh9cCd4z94XXcNS3gtNY2e2y3wv63cILjP0vWx+bczIuoPLsO1/3n3wa47mrP3p0rU2437PPP/eAnLuixJ/HKP8bY1+LlhD1Pkb+2T8RJTb7AqWO6tM+afoSVSdbLzp2mKok2r3mOtNxixbl8wKTvc2wepWAn2FVe4YGxX0aqViikzuLlVTwnO7ygl6HXr1fL6tg5VoMkGrvr3Gq1spNS/9mpYiuEz1l2/KOpkYXqbTk8/1IrDu4DJ6MVRekydQ5dsHCerOVIfy3muVUl9Tv5Etpl6pQwJYcAq/HHLuS+7jGNXcVYVT7n4ghS3ev9UdWGVqiDp/6v30II5zjnmiCTergmVz6QhadWUNf1JvhxR4lpJd8ZprU1hgHhcv/7InhQrGWyd1IvFObPXm0jXlzrzKIXVYVQmc7HYCdUdDnwpazvHuaNjozcvb0XBIBagEkouc57o2ZXkKTbEZWphMBD/UZ9Yvk6mjEqt0fAhu126cSmcw8oZ+EiPPPsjk9vAnipdJ9bMvsAypVxr7+6rfXQdh8zSH3PuS+zhGtax3L7w6cXwwE6i4shtbgxVz1H4lR06YfSaiiTSLguUOlEGdKALlt3IJNosd7XIq/SdSjXip7zv4rm5GdDIi93N+M12gOUz95c1G3AxCN+H539F/bgYRfC/m887yzTrN+6Fmt0CWIs15sp1us16waTH0nWD2otdVYLNdesA5YesqKqM4652jpXZlrhJmaZwyQb3+DZNB9ZdgndqO3BnhDiwrDwZBqXoSCLoute3LBoosaWb2QdcoHR32g8obI8h4VVXGS7JW9zjn2Ze8xzG4jIC6NtypMslcZdjqVycx8lwxB4SICjVrgmV9exWgTxTO1XeicmXOk9/CpFP7cXlqI+5cf70u45XR9Sc/i89US5V/R0fDzeESX9LMK5U79Ek/E5+NSD9ZpNluSDf3Od/RVTPcSibVKhPW26G2YVRlXXJydDMZtR7npCiZ6z6vwofORlrlO2o7E06WopvzTMB3iz97+6+CSlOyT69DN9OVBOpZyroKqKEpJ+HXTAYULyaYSZYz2Os1RXd0OiuRYyrbV1HtB/pCBIs96wsCdYzDzbz5WfdhjDU3s6lMVWqU5mkiz1242j2O2cvQFzxNKVSo3zj+QkP920iOsAmWaJLMkmApQaQcK5qc7EmXeTKBJGqZOtEuGyi8P/GtYMl/CS7qBCYna7+UVIRbdNqlvqODngQtKdBs+uoku8Gg32TWsl764EwznGTHJX6TXPOicvM5OYmq4AYZuOL3l7lBXQK+XpdkSs5bTjPggHvSdZojkedCIovOZnotATXaHOr0Fx7NVVRbaoQWGZyCxZ5b1AWO0w+ZwIramAuWqEL2ITOCt8zDyZa7cHXuZmV9kSEXVep3jr3QYBMs0aSaHcFSZzEqMzRZmnsivWJ1NFqWY0FJJs+VvYVpIpXsTWeJhdLZZonKCAsN0pIdlzhNyeq7ZSq7dJjmuS0ycMXPgCfPDnSrdYWCnm7mDja7liMZak6UzG8T0O32F+bgBic5Nm4TsW4Slr7IYKZahzL1m2UHEaev0ZWreTpuHzqeGww3uy5KhptlJ0yefSngOMZp6Y7vH2cTLNHkmhXBsrk2iVOhLCZXU2wax1RmdiyZZ/RjiGSsCd28KZ+XLM3L3gqmTtZNKZzrdZs7d2C/CoJywkZqk9+MqJt4Tb+got9X29+8aBjH3fXpfq60l53mZTK3loE0Kmr8QTXRjDY3CcxVOOWuSwW1/fqYybGFl9HVt1eHtluClt+XqJbRnp35yXfgDnrRI4fdixzne3qb3exJBgYhfoRnMGt2My/95x2fHPsggQop3Kn3R32mOph9T6zc+5L/OOYS//s5zfO2QEtEYzfDq47IydCUiApW0JdsxbudI6Myuj4km0yzpfpcz2Al1plmVOlPPFr6tNOsapaxsMsZ9CPfHVLJy4KRQ7hBgrFklqY/MpNRwTiRUF95BedSV3nLbj0AbHHXnX4FJ0uu8qv8GxJwo8tz1+2fBJ19u0JlzPqzgdec5WXUNqhAroLn6f4SLHX3p78fC1Jm/WaZUAHMazaWPle3L0yvXzLeaL+lDCqK3hahgrR3O0z8cZfmaee4+eT4ysVF8D1v//PwPx9Yb+h39Zcdz7IPgWXl3Z7gbxQ6BuHl+9tijk2gGHbsvmg5/v2GlqGS9MB6YrdV9qV2GDfk6SclovFhiS4iIiKLWXTrCBER0eRgsCQiIrJgsCQiIrJgsCQiIrJgsCQiIrJgsCQiIrKY+cHSzKqT76+wCQhi6GXbq2SMy862wPymdbE38ev76GRfohNrB+gZbEIz1xSogGVPvB3oDqyvvr1tco8xEdE4zfhgWV9aom/U9qe5c27cdmdzCU2EXozQzeiTaNcJYIsEdLkRfRPwXPaN5XrWFtmnHDedS6DMOVethW3Zk2M3jo5UOwFaHectOBG4UZ+IaPqZBc2wgziWZzYYmUtzxDwuikyaHpwQfdI4c5xW1MiMLX2xk30vVPt4IM8+ylRvRc1VG2Bb9mRx6jfWqAsS5P39iIimg1k2g48zTVh4irhx0NklIlOUTU86u5SK/KEp84iIaCJMeWa56PIKHDr4iO5blP/K88khc3nG92PK3J3ymlM8OV8fZXgZ4+7PdPsLo3+mPy9USUP9BQs6OxcG5r2+tki5K/OeaeZ0vx/uuw18P2vZYe7xCf8FC2TLcQgcG7394e0L96Xm+i2c12Vb/H03NStDx8qvY+ltW6APlIhook15sLx/+1/imuXL9GP5rzyfeHISrsIptypFaz8WuIWDVTBZB6eg8wFsypoIPKi5q8Yr/qyLL6PcKaM1VouSOGcKQ7v9rXpCbek/VMFhS8ot9OyUBEukarzg3NxlJtqW7x4AllWaN0x2rSfnlmbOqgH9mXAdRPnMJuCAu+5enMtTVLgMapv059SfaZoe6r0Zx1e7faXlWOceX3lf1tvvLl+KVLsVPkSu30JedyYMlyovW3BIvR+oWamrk7h90oe85mppZh86732uRDTXTHmwdAOlK/p8IujyR/qEbrIQXW0iUO+yvFoHTqfMU+4mV1102ASyYPHlMXMLQys6+AXLb+ng4FQDkewpNIBHrX9NufqsGyDUZ0+Nuu9LgWgTeAMVRkJFrKVUVEIFIVMs+yWzLxVVcdmZWt56s02y3zV+mTK/rzRQTUMXnpZKL+FKJm4N0dy/RRq1pkanX1mjE2dH9dcMp383eNHAOo5EdD5MebD82UunzCNH9PmE8TJC/0+fkHf1OtmLCRz5miO95kNdfNkEpFjhJs5gs2EcaXJcVy4BJhyo3aZIKTYdHGwkI1ijY19DwbAQksFGjkf+7EztuwQ2dRzH3R+c67coxK6BQEa/A3cmB2IHRRERTaQpD5YP7PmaFyDlv/J8UgQr44dIJuacsKWpUpoA4wOmBMAaLJAmP+sgGn+Zzl+0XmTAzsM6a5RmzdBn9OujKmPLrtnYMSzpVrDK/hiY4tCFcfa9wm0iHq+cv0UhduOo2yS9swqYpKLNRERBUx4s33hzCJs2362DivxXno9XIhnueNS3KSRSaAoOAqkzVfNVUHKDozSzZt+XGQ5K3rLrVuKKaHpXNJWtyb2cKtPyA+IO7PeCtb/u5qrAPunsSmXDW9w+SJVhSTOt7GMhExPobLoc60KfDa43rL59E1YkVOZ7wL9IGOtEAnl/iwLpZUhTbvUIjkYuJIiIJsPsuXVERn2GJhGIVKWX/rZAlX3dDCkZogTL6hIkEuadwOv+8pw+OH9Ai7yU1ifsCnka6BssXGAgToTTZ1fuDXgRQ+k0Ksple0x/IIL7k8bJ/hKs0LeOnMCq4HLVtrWOVAf6PN3j4g+ocUSOlyvruLrSOK3WuTS43NYRrAkc46HeXqDGX4fXFxn7WwzjzsD2yGePJRv9AVfu72KeShO1DAIad5MwEVEBZtl9ljRX1LcfxqrnNrK/kojOiylvhiUqHgf2ENH5xWBJM0RwhHEVTk3EQCMiogKxGZaIiMiCmSUREZEFgyUREZEFgyUREZEFgyUREZEFgyUREZHFLAuWzkTnsaWmZNaY8dafzCW67Mlcl2Zuo5ikGo5+/crIBPAym49+Xf25U+UF97Xg/ZbfaTKPDxHRxJpdwXJnlZ4uLbvUlKmYYZ5lUSf57hzzotrFLFuX14qZOm6i1K0E+q6ftBqOuhSZLpcl1VgCQW3XRl1/UtePDJUSM9Pn5TvGHjMpu3lGRDQTzKpg2Vw6glZ1Ms+UV0Wylt2oldfNs6jm2hQWmMfFy7/sSaEC1NbzMYF4ut+ZcD2YwXYOY8Q8DCv0OEhFFqduJRHRTDGLguUOlOEEOjpP4DV1gnfqHcZz60S+1H8YR7te0JN1S2mul/q+g+/qWWKc5kf3c37JLqeZ122KjG3uFdJc6TZTBpsu3T83+MQ1awZec5Zv1mne97c98B1Fmk5lO90m1GCZsdB3goFPrytfrc1hJ7CV1+QoW6YE9zUgeIydCxd/Bp7n20v1K8Jv8jWfc/d/kpqYiYjGYtYEy/r2KkBXzO/E8cEMEpUrs07groVJp07k8tRG3GnKckmVi+XVn8VnAllPR8PN4ZJd0sxrChe39mdimnsV6beLVOkY6nXqWsp3dPUMaT6Vz1WrTFhvh9qGUVO2yjR1ZryyXZKx7TMVN+qwqhI42WqaSROVWGWCuhvw3ULR3v6r4NOU7NPrWC4Fq0sCgU/Wla/WpqbWL8tTy866OIjZV1fwGEtzdHNXI64YVMdYvXZgOOll8tLkK8cl09/rNFtL+TD1eLKamImIxmKWBEsJIuVY0eRkKboclQkkUctUJrNsoPD+xLdGAg2LElzUSVyyIb/kVYT04ang4lHf0UFPgpYUczZ9ffWrVdQbVJmw/pAEDcngTPOxZMclflNy86Jy8zlpwjTluQLlrNygLgFfr+uNEa85VOpgDnkFktX3D/QDeS4kYql90BcHNZFBOdF9NbKP8Q4sK8/gNX0xo7ZXbV+Q1Kc85wX3GiSHGSiJaHqZHcGybiWSJmvxMqhMAlesjkbLciwoyWBBaY4mRRvTRCjZm84SC6UzsBKVERYapCU7LnGaktV3y1R25zBNmVuAA3oAzvnjBGQpGF2NpHktXgHHuHMY58xDx26cUpn1nSpzlX5nFnQmoulmVgTL5tokToWKAOdqik3jmMrMpKhwzv7GEMlYE14TpGRpXvZWMGeU6Llet7lzB/arINjx3CCQ2uT3F+om3gEvmOr31fY3LxrGcXd96qLgikTay07zSiSxUP2nZSAdygijGW0xdPabSFgGQ8Ud4zRG1MXLilq3r1ZGLUvg9fs6W7r7saD6aSyTfmfzGhHRdDHDq45IptWIFdIiGqykL5mcdxtDRmV0fUg2mWZL9bmewUqsM82o0p94tPRpp1nVLGNhlzPoR747lAYWjJiK/JJZmj66TEYFYxU4Mv2v4FzqKm/ZrQeALe6606/gZMlVzvYFSMCNLs9dtx8onH2Tfj792cBrzvIyahtUIFfB83R/CZa6+9Ovgk7KrN8sE+1m/4T0ubr9gXr9kvFG+i2Dxy+6Xeq97tUnUCvbFPxc+ucYKv/jnMe4dpcMVDK/QTqtPluCkch6m7ueRlm3rQ+ViOj8Y4kumibUhUDXShxfX0DWTER0ns2iW0doRpOJFgYYKIloemKwpCnl3Y+5BX7fLBHRNMNmWCIiIgtmlkRERBYMlkRERBYMlkRERBYzPFiaGW30RNzhycOzyD2B5nPRyb3zfm+qmVmD9F/MhOVj1dweWJY6NvtjJmlwJjnPN9G6+cxYJj03+3U+j319++HAvjiTQxARFWKGB0uZK9WZOFzkmzxdynA5N8/LROjutHPO9/2b/qcZCfDuZOsyuXrCmRJuIrQ8B2yRiwZZR+xIVJnPNY2ePBOtS6B0Jm8onp6ztvf8HvuOhgEkmyT4y0VSFc5O19+diKadWdMMO5RWATNXMFEBYU1JGkNS9GMke+Lv6UqmpkuMDjv3Huoiy9ej9o3xFKoOUMs7JnO9ylR8fTH3N9aVYqQ3/1y2UjEkVJWlYHUoG3GrqpxPu3G0H1jRJDMjmSonREQFmD19lgO9OKmCYUV1TG1FPR/qQI6ixdPXwqSZos6jMqIt4ylUHSbBTiaejw1ak1pgWmX0DVNTWUQmhJd9nratCUQ0LU35fZaLLq/A/dv/EtcsX4afvXQKD+z5Gt54s8h6GjsPoxsbUQtnrlVnLlLznkxk3l+FU6lelGXNterMV4qsz5s5TBVvHlfz+oL+fpxLpdT7MuesNFFKk547X6uQpks/I5Ob7vW8rOletI5UYdVzG71mTe89w9/u8DZo/20EmT9KOk3Jmrt+87QI0fW6suZw1cL7E9o2tU89qME6uPPNusdoHw5gk1lHdDvDyw//VgHSPOzN7xug57ZF7vUs8ufbjS47tN/BOW+9OXIPAVvCcw2H5tX1vuPvQ87tJ6JZZcozSzdQCvmvPB8zKRwczS53VqmTalyTWzQoCOc1CZ6SfUgZroSuDOJ/NpFKqsAr7/uB0i1q7JQGK8c6dwCROuFvqRx0+hwHqtRJt0Re1fSJ233PrKui5gVTqWM3atVruolT97Gqz3z6DtxgynLpQtXWos25+YWZ1Z/0harX3GoqzV1qP9116vWVO6XCNNlfJ0jp9wdKscbbpeAxasQWHFKfcUqledVG9GfkwsVf94KaHAOIFiVxzvwOznLUaxKsTKCMXY/UM60a0N/RxzPw70COt/NZZ5lesW0dKCW4yvc3AQec7XL7h3Umqo+RCsYH3OZqac5Nq+DKQEk0V0x5sHQDpSv6vDid2NonfZdu4Wd1cq8u8YoOh0lACteErG+v1oHCPQE6TXYSlPzPehX9xc4alYWkcczLVJ3iyhkVYJa5faduP6oUjvYC3A7cqbKVoUBfYUfDISfQV41hZGmRWta7maIKXpK9qX12s23dNCtZomR2Jih5ZH/RjwPu/u46gdecR0rwGLnZeCfOjuo3NX18pTSXO7pXZ45xdUcVt2i20twl2Z5bmizPenTWGWjeNWXK3OMtwdUdWawHJkmxbfld9ACxQAYcrbep+3eDQb8Oq5IjOG4OAxHNflMeLKXpNSj6vGi7BtSJ1JzY5OQ+2ldwBpbdR5hffamfKXrMiVYXP9YnWRUAVcaoT9LuLRZ1pTH9juaEX1Kac0SvVfA2k+D6YjlZYoXO1oL9h5L9qe/qAtMmozNkBGtYOBgWxMta/T+/WTybZITryiWQ5R9sZCfLCK/XHxVtJ3VBUV7tZMHq31WSk74TzSlTHiylj9INkG6f5fhIE5k6w6sT2/PV5RgaKHwgyVsj6ntFBKuOYYkUgSwy4NywEwDcQTTSLIjyGieAmYAam0W6o1/HQmevgWAQCoJh4WzNFWhmDb3u0MfHy9bGqJiLARX8pb9wyCucPR4JJBeZh2Ohm/idi7DmKuAUm1+J5pQpD5YymGfT5rv1yV3+W/TgHkNnckZHQ5/OLhPox9HISS2RzL4x0P1ux3ODuq9qS/DWDBk8FBMMNbePtMad5MA0NapsTa9XmjJNdidNujpgam5Ar/GXLbe3SAbVHQlwoeCShsQrbWdbfF9fIdQ+STPkUPDWkMDyvGNUtxJXBJJtfXykGdXLkGWb1X/diwAL/buo46v7Cl1qGXETIugMV/oSA83i8trYJhJwjndFpH80NDGDlWniV/u6ZoS3nRDNNTO86ogzwMYbieqNVnSa7+4cvtk50XqDOFwywnMAywJ9cl7/lwS44ChMvcxh3Bn3WS33NsiyurdUoiLhvpljpKwW6DPTTaH++oQ76tKbCCDaP1eo6P55nPUfXx0c/ZlWFx3lavvVY3d9wWOp9vXkaAor9GhYf+CN89Y+HEs2+pMWuMcl9vhGs9jIMQ3I9L+Cc6mr8q6nZ7AS67zj6h/z6CQK+piaEdQOOQZ9SDbl+61lENBEZLpENJOwRBdRwVSw7FqJ4+uzm6iJaHab8mZYohmDA3uI5iwGS6J8pNnYHV1cNRDoPyWiuYTNsERERBbMLImIiCwYLImIiCwYLImIiCwYLImIiCwYLImIiCxmWbB0JgGPnZ5O3wLgT0s3oaLLnsx1aTKTjG2i9LGTmW6cydgj5bNk9h73Noo+M1VccF8L3m/5nSbz+BARTazZFSx3VulpyrInKFcn59gp3gx1ku8e05yjImbZndtwQxEVLYpWtxLoyz9R+ng4k79LGSyp8RgIajJRe2s/hvoDE617+2o5xh4J9OGp/IiIprtZFSybS0fQKoV6pU6hec2xG7W6gG+85tpUTMmsQuVf9qRQAWrr+bg5Pt0PXcw6mMF2DmPEPAwr9Dh0Ymt1uI4oEdF0N4uC5Q6U4QQ6Ok/gNXWC96v7Z5MJzJ3mxMM4aibX1oWB+76D70rzpml+dD/3vLcsp5nXbYrMWY1EmivdZspg06X75wafuGbNwGvO8s06zfv+tge+o0jTqWyn24Tqb3PkO8HAp9cVaWoNGXYCW3lNaHkhwX0NCB5j58LFNB3rbSvVrwi/ydd8zt3/SWpiJiIai1kTLOvbq4DnpBREJ44PZpCoXJl1AnctTI6iR9d83Ig711+PnrRTXWJ59WfxmUDWI2W15D2PNPOa4sVSbiu2HqX024UqnDjVLdzvqBU5xZblc9UqE9bbobZh1JSuMk2dGa80lWRs+0xljjqsqoQpYqy2M1GJVSaouwF/2YB6rzft778KPk3JPr2O5VLMuSQQ+HT9S1sFDbV+WZ5adtbFQcy+uoLH2Kn40YgrBtUxVq8dGE56mbw0+cpxyfSbsldS9kw9nqwmZiKisZglwVKCSDlWNDlZii4xZQJJ1DKVySwbKLw/URc8dklwUSdxyYb80loR0oengotHfcctE9aUUgHE9PXVr1ZRb1BlwvpDEjQkgzPNx5Idl/hNyc2Lys3npAlTBTfIQBq/388N6hLw9breGPGaQ5urggWw1fcP9AN5LiRiqX3QFweBup1adF+N7GO8A8vKM3hNX8yo7VXbFyR1Ls95wb0GyWEGSiKaXmZHsKxbiaTJWrwMKpPAFauj0bIcC0oyoULRRTFNhJK9+YWcC6AzsBKVERYapCU7LnGaktV3y1R25zBNmVuAA3oAzvnjBORyrOurRtK8Fq+AY9w5jHPmoWM3TqnM+k6VuUq/c7RgNxHRVJsVwbK5NolTXoFekaspNo1jKjOTYsE5+xtDJGNNeE2QkqV52VvBnFGi53r9ws5S7b/juUEgtcnvL9RNvANeMNXvq+1vXjSM4+761EXBFYm0l53mlUhiofpPy0A6lBFGM9pi6Ow3kbAMhoo7xmmMqIuXFbVuX62MWpbA6/d1tnT3Y0H101gm/c7mNSKi6WKGVx2RTMtU1A9W3JdMzruNIVL9PlJJX/oTj5Y+7TSrmmUs7HIr6mcwlAYWjBxyquVLZmn66DIZFYxV4AhV7pfvHwC2uOtOv4KTJVdlVfz3qu8Hlueu2w8Uzr5JP1+4Ur/ZX7VtGRWAEip4nu4vwVJ3f/pV0EmZ9Ztlot3sn5A+V7c/UK9fMt5Iv2Xw+EW3S73XvfoEamWbgp9L/xxD5X+c8xjX7pKBSuY3SKfVZ0swEllvc9fTKOu29aESEZ1/LNFF04S6EOhaiePrC8iaiYjOs1l06wjNaDLRwgADJRFNTwyWNKW8+zG3wO+bJSKaZtgMS0REZMHMkoiIyILBkoiIyILBkoiIyGJ2BUszw473p296r8P+9vM5KbfcCxmeyHwyNLcHJi+va8P+mEkWnEnK802Ubj4zlknLzbGe7P0Mqm8/HNgXZ3IHIqLzYdYES33S1zfYu1PeqT+ZIKC/ESsqSyMz+UyW4KQBk6vlOdm3w2iWiQFiR5LKfKxp9OSZKF2OmTP5QvH0nLO91wcmTJh8HQ0DSDZJ8JfjXIWz53HdRDS3zYpg6VTdkJl6IoFBFybeh5Oj5vmkk4nOZV5a83QyqX07JnO1ylR6fTH3J9aVYqQ3/1y0UvEjVFWlYHUoG3GropxPu3G0H1jRJDMbmSolRETnwSy4dcRMoxacxm1KOdlleJq66Utnl2BJLCKifKY8WC66vAL3b/9LXLN8GX720ik8sOdreOPNIuppmPlVvflWCxGck1XJ+q7lfclks0t0uZltXLAMN88Wta0x4tcfMwerJk2x4XJZ/hytvehBTSBYOu8tUNt3AJvMOqIZe3j5zjrNk6DgvLFB+qIGudezyD/20WWH9js4Z63+vaQJ/hCwJTxXcGheXO87/j7k3H4iooApb4Z1A6WQ/8rziSEBygz0MX+6CoY+scIUJlZ/prCxN1ClgPdVDFAnZud9pxkzX9+gbMcm4IBZXqoX5+IKKRfBL6ys/qRQtHpNArCc9Ju7VBCQgGTWNYRyp9SXJtviBCn9/kAp1pSYtwIBRPZ3Cw6pzzilzrxqIfozVTgVWPeCmhwDiBYlcU4FImc7TNO0BCsTKGPXI/VIqwb0d3T9zGp/EJMESuezzjK9YtnehY183xxnOSYJp+SXlBZzjpEKxgfc5mppzk3r35CBkogKMeXB0g2UrujzsZP+Q3Xi1MWJJWuRE6MKFtWShQb6u3Zt1AHPKedle1+dtEtVdMkM4rgJjFICCyhBWa6BmTtrVKZjAoEO2k6gqKga+wjdlvVupqiCl2RvKji6mar0Q+osUTI7sy6PbAv6ccDNanedwGvOI2U3ak2NTD/z7cTZQH9vfXu1Wl451rkXIDpzjKsbqrhFr5XmLsn23NJiedYTbUo3ZcZkP+9U2aEEV/fCRw9MkmLZaj3+b2wuWKL1MnX/bjDo12FVcsT7DYmIbKY8WErTa1D0udWuAX3iza5dGTSKs/rEWI5kVrsg8NaISnv0idn2vlPVf8hkLSIaPGNJRmUyIu8vro9QsiQ3EMlf3ls6nCyxQmdrwWVJ9qe+qwtEhwcbyQjWsHAwLIiXtfp/+ZqU/cFXhRa+zsW54Amvu/Bl6oua8monC1YXDUlO2k5ERZjyYCl9lG6AdPssi7MbpySxUAFsi/W+OylCnCOwZkbwlvV9IU14GVTUOAGtKTVqL8bsZUgWkiUFg0FcQDXC2Zor0Mwas03BoD9mJUXchqObrBMY8gpfj0cCyUXm4Vjs6vWalJurgFNsfiWiIkx5sJTBPJs2362Dg/y3qME9Rst6J4PSzXR5s7FObO2TNtVgYHWa+Ib07Re29xUJAMm+QFCLz24SSZPF6ZN0OdbpCRJc47yhXm2DNEMOBW8N2dnm9R16665biSsCmXLHc4MqP1Pb4h6jujas0c2ZNQVNTOBm1bqv0JVjQgSd4UpfospE/X7Bse63e4ES7h8NTcxgZX5bta9rRnjbCREVZ3ZVHfEGewQF+rJckc9ljYjM937eUZ5pldkFJiXw+uD8wTOO6AjVIuRav9nP46uDoz/TeoBPhTx1tyW4b5l+nBxNYYUeDesPvHHe2odjyUZ/0gJ3JGl0/e7r5qlDMtzAcQjI9L+Cc6mr8q6nZ7AS69x9CByr6CQK+ndB8LeSY9CHZFN4P/xmYtkuGQQ0EZkuEc0lLNFVLBVsuuEPXvFIZvfGNp6EpzUVLLtW4vj67CZqIqJ8prwZdmYxTYtZ1OtVwwyU0x0H9hDRGDGzLFZsU+84mlVpcgWbjb1mcSKi4jBYEhERWbAZloiIyILBkoiIyILBkoiIyILBkoiIyILBkoiIyGKWBUtnEvHY8ldyC0H/YTSbpxMquuzJXJcmM9HYJlofO5kpx5nMPVJ+S26b0a+rP3f6vuC+Frzf8jtN5vEhIppYsytY7qzS05xll79SJ+fYKeIMdZLvHvNcrTHL7tyGGybzvsu6lUBf/onWx0OX+dJltKS0WCCoyUTvrf0YCk7U7u2r5Rh7nMne/an/iIimv1kVLJtLR9AqhX6lzqF5zbEbtboAcLzm2hQWmMfFy7/sSaEC1NbzUTUj3e9MAh/MYDuHMWIehhV6HKTOqFPPkohopphFwXIHynACHZ0n8Jo6wa/JkylKjUWnOfEwjprJuXXFkr7v4LvSvGmaH93PPR+oQKJrRZq/2OZeIc2VbjNlsOnS/XODT1yzZuA1Z/lmneZ9f9sD31Gk6VS2021C9bc58p1g4NPrijS1hgw7ga28JrS8kOC+BgSPsXPhYpqO9baV6leE3+RrPufu/yQ1MRMRjcWsCZb17VXAczI5ayeOD2byFoNemBxFjymvdef669GTdqpTLK/+LD4TyHo6Gm7W73mkmVemTFPfbZWSUVnNvYr020Wmw5PqGO531IqcYs3yuWqVCZtSXz2jpvSVaerMqPU4k7VLxrbPVPaow6pKmCLIajsTlVhlgrob8JcNqPd60/7+q+DjlxTbh5MlgcCn62faKnCo9cvy1LKzLg5i9tUVPMZOxZBGXDGojrF67cBw0svkpclXjkum35TNkpJm6jGnpSOi6WSWBEsJIuVY0eRkKbpElQkkUctUJrNsoPD+RF0w2SXBRZ3EJRvyymBFSR+eCi4e9R0d9CRoBQpF169WUW9QZcL6QxI0JIMzzceSHZf4TcnNi8rN56QJUwU3yEAav9/PDeoS8PW63hjxmkObq8oxNOAGHvX9A/1AnguJWGof9MVBTWRQTnRfjexjvAPLyjN4TV/MqO1V2xckdTLPecG9BslhBkoiml5mR7CsW4mkyVq8DCqTwBWro9GyHAtKMlhQmqNJ0cY0EUr2prPEQukMrERlhIUGacmOS5ymZPXdMpXdOUxT5hbggB6Ac/44AVmKWFcjaV6LV8Ax7hzGOfPQsRunVGZ9p8pcpd/56PnojyUiKsKsCJbNtUmc8gr8ilxNsWkcU5mZFBvO2d8YIhlrwmuClCzNy94K5owSPdfrNnfuwH4VBDueGwRSm/z+Qt3EO+AFU/2+2v7mRcM47q5PXRRckUh72WleiSQWqv+0DKRDGWE0oy2Gzn4TCctgqLhjnMaIunhZUev21cqoZQm8fl9nS3c/FlQ/jWXS72xeIyKaLmZ41RHJtExF/mDFfsnkvNsYItXzI5X4pT/xaOnTTrOqWcbCLrcifwZDaWDByCGn2r5klqaPLpNRwVgFjlDlf/n+AWCLu+70KzhZcpWzfQFe9f7A8tx1+4HC2Tfp5wtX+jf7q7YtowJQQgXP0/0lWOruT78KOimzfrNMtJv9E8EyVXr9kvFG+i2Dxy+6Xeq97tUnUCvbFPxc+ucYKv/jnMe4dpcMVDK/QTqtPluCkch6m7ueRlm3rQ+ViOj8Y4kumibUhUDXShxfX0DWTER0ns2iW0doRpOJFgYYKIloemKwpCnl3Y+5BX7fLBHRNMNmWCIiIgtmlkRERBYMlkRERBYMlkRERBazMFg6E48XNunAWDiz6OScWHwG0ZOYx01YbmYqmg37SEQ0EWZdsKxvr9Y3vldUZ1fCGL/gpAAzmwRKZ+KFbHo+2d7rA5MhEBHNbbMsWDpVOYbSmZwTqY+PTGQu886apzOYVPsIVVTx1KFsxK14QkREYnYFy501WDHah9ruQWQQN5E62akLggZW/SAiCpryYLno8gocOviI7iOT/8rzsfLKUXVuwzGVNcXWtJT5THXB40Ah52DxYtv7sZx+TP1Z9Tfuvj7bNug+RfV+u9O36L8X+Hz0O1rg/Zi+Sr8Qs/Pn9/s635P98os6R4tG29ZNRDRzTXmwvH/7X+Ka5cv0Y/mvPB8TFWDWlPR75Z2k2gYSTtknjwQZPfF3AiuaqnBKynlJoWX1OV142fZ+LAmUm4ADbnmwXpyLK5RcqEK2UU++rt5PDjjr1BOdS7CqAUyhaac4tPqOF7RkO2uwQIpcy/sDpep46TccarnrytOmYLPTROv0+zrLlUsYqb6yBYfU+04JNK+KiHXdREQz25QHSzdQuqLPC5VVemrXgK73WFEVCHJSvFkXK5ZKJKa2pMpCD0htSim8bHtfnkdJ029CApubVTmBJbTeYhSzjd1+c6ke2JTxLxakRmStfM7tu5XtRD8OuIN2dp3Aa84jhyw3JetzsmR/8I9ajqmd6VVLQSfOjuo3Neu6iYhmuCkPlj976ZR55Ig+L8wO3Jly6k56zYAmaOUMcgEdw4Ezfwzb+7qMlcnIvD+3DFaQZIXe9qm/nNlqNts2LEzGDNF9Y0T33SYXOU3UYeGAJ5xmWCdLLqa4tW3dREQz3ZQHywf2fM0LkPJfeV40XTi5Nxys5E+aL1GOZZYm0frSEhXwRvCWeR5le98ttGyls7fA9sUF1Bxs2/DWiApusZlcBiNvuO/n3k7pi1xXIkG/+HqStnUTEc10Ux4s33hzCJs2362Dh/xXnhdnB7qlgHGgSdJjBvpU1ByOZJfBkbJOVjrUFywPZXtf4o7J1Hb14mQmXPVfvrN/3Df027chqKOhD0PqOyu2+NvRXJtCIt2ng1/HczJCWG2nm81KH6/sQnmNn+F6wVRuwSn8ZlLbuomIZrqZXXVERo26lfoVpyK/eaL73sITCOj3IQNkSjAkQbTcedPvi1P0AJpc70eWKdmszg79QTAOGShj+hvHIt82eAN89Ks42RrMBCPb4W2fEfxuph8nR1NYAfOZ0LHMBNb9rnp2kXeMZTuOJRv9Pk1pgg4MMMq5biKiGWzulegygSgcZAJs758P02EbiIjIM+XNsERERNPd3AqWXjOk3OoRvalesb1/PkyHbSAiopC51wxLRERUJDbDEhERWTBYEhERWTBYEhERWTBYEhERWTBYEhERWcyyYCmzyATrMAboGpHRae8mSHTZk7kuzakMUsxE7EXT++BO+p69L17ty9A0f2a7zPeyfofgMi3lu/y6mZF1B5dh2/+8++D8W5H3rPVH5Xae2N8zz7+3gJz7osQfxyh/W6Of85ft/vF2I6LJMLuCpUyorv6TXR5LnWwC0+JlUSfV7jHP5Rqz7M5tuGE8093Z1K0E+oqbiL04KujVAgf0hO9SuzI8962edF2myVPvtw5WerU+69trvLqeUrWkoiZ44g4uU/3pKfJyUMGpqXLQqeTSi8C6g8voxVB5TZ5AlW8fJKi79Tf34bXKPPVHvfteoySABab3yyXnvuQ+jlHNXaauqewHUtji/VvdgVW6vqi8Z95PD+I4Z30imnCzKlg2l46gVSqNZJXl2o1aXYEknkz6vcA8Ll7+ZU8KFYy3enPgToZObF3vBjP1+IAUnw5Osg5v4no9ibo53h0NG73p+ToaDukC0V6JLqmnWZ5CU2yGFiblxLxJ42WiergVTYLbtRun0vmqmuTZB3WxcQXc+pvqvb507vqjUikm9veVOp8ShM3THHLvS+7jGNWy3r3w6sTxwQzODbvRcDe2unMaC7VfyZFATVcimjCzKFjuQBnUiaLzBF5TWcSaPJlisFnsaJdT6FjXwuz7Dr6rmxGdjMj9nN9MF2gOU395sxE3g9BNeP539J+bQQTfi/m8s3yzTvN+qNktkKVIc55sp9usF2xaDH0nmL3odRXYbJcecE7YEmgSozjrnaPTGMmUoCx2GWmcMkG9/g2TQfWXYJ3ajtwZ4Q4sKw8GQam7GVMXU237soEi5841+yCFwhOjw35QkdqbJaXesRwfyVrd45xnX/Iex+AyAuracKfKJP1iAWH1q5MYea6YA0JEhZo1wbK+vQrQJwrn6jtRuTLnyW9hchQ9utlqI+5cfz160k41jeXVn8VnqnvhFgnraLhZv+cJ1M3UzYxx2Yj0k0Wa7aTaifsdXaXDrfJRrTJhvR1qG0ZV1iUnRzeTUetxToqSue4zlT1MNtIq31HbaWpI6uY8E/CXDaj3etP+/qug0pTs0+vQzXQlNX4g1fU17QFHTsKvxZVA88QEM8lyBnu9puiOTmclckxl+yqq/UBfiAWlfjTWFwTqGIebefOz7kOhNUmtVKZarY51niby4L6Euccxexn6gqcphQr1G8dfaKh/G8kRNsESTZJZEiwliJRjRZOTPTWlEuq8E1eMGFimTrTLBgrvT9SFjV0SXNQJTE7Weh1xpL9SBQOP+o4OehK0UipIm746yW4w6DeZtayXPjjTDCfZcYnfJNe8qNx8Tk6iKrhBBq74/WVuUJeAr9clmZLzltMMOOCedJ3mSOS5kMiis5leS0CNNoc6/YVHg02EQbsGVKAvLjj5TY9yrEzgzySwojbmgiWqkH3IV9x7ggX3JSx3s7K+yJCLKimdFnehwSZYokk1O4KlzmJUZmiyNPdE6hdPdpVjQUkmz5W9hWkilexNZ4mF0tmmlNwqNEhLdlziNCWr75ap7NJhmue2yMAVPwOePDvQrdYVCnq6mTvY7FqOZKg5UTK/TUC321+Ygxuc5Ni4TcS6SVj6IoOZah3K1G+WHUScvkZXrubpuH3QhbCDza6LkuFm2QmTZ18KOI5xWrrj+8fZBEs0uWZFsGyuTeJUKIvJ1RSbxjGVmUnx4tx9ZkGSsSZ086Z8XrI0L3srmDpZN6Vwrtdt7tyB/SoIygkbqU1+M6Ju4jX9gop+X21/86JhHHfXp/u50l52mpfJ3FoG0qio8QfVRDPa3CQwV+GUuy4V1PbrYybHFl5GV99eHdpuCVp+X6JaRnt25iffgTvoRY8cdi9ynO/pbXazJxkYhPgRnsGs2c289J93fHLsgwQqpHCn3h/1mepg9j2xcu9L/uOYS/zv5zTP2wItEY3dDK86IifDRqyQFlGvYr+8rLKVQNX/k619SDaZZkv1uZ7BSqwzzajSn3i09GmnWdUsY2GXM+hHvjukkpcFI4dwgwRjySxNf2Qmo4JxIqG+8grOpa7ylt16ANjirjv9Ck6WXOVsX4AE3Ojy3HX7J0Fn365QGbP+bOA1Z3kZtQ0qkKvgebq/BEvd/envx4KUWb9ZJlQA85qNpc/V7QvT648rMi2DiqK3Ragg7d0OE3/cpXnaOW4+Ob5ycRF8z9v/PPzPB9Yb+l39Zcez7ENgWXm3J/gbhY5BePn+tphjM+of59h90XL8+w0tQyXpgfXEbqvsS+0wbsjTT0pE48MSXURERBaz6NYRIiKiycFgSUREZMFgSUREZMFgSUREZMFgSUREZMFgSUREZMFgSUREZMFgSUREZMFgSUREZMFgSUREZMFgSUREZMFgSUREZMFgSUREZMFgSUREZMFgSUREZMFgSUREZMFgSUREZMFgSUREZMFgSUREZMFgSUREZMFgSUREZMFgSUREZMFgSUREZMFgSUREZMFgSUREZMFgSUREZMFgSUREZMFgSUREZPF7l5aW/c48LlApbmtoxMa112LJRxKYf4F5WbyfwcgbP8HRrn9EW+/r5kWbOuzva8SKhHmqZXCy9WZs7TRPJ9LOw3ipptw8cQz1Xo/aXeYJTYrmrhewLnzYedyJaMYoLrNc3Yj9vYexZ/ONWFaaQOZ0F1oaarE8dT027vomjv9qPpJX3ojNOzvwfMe9WGW+ll8ntlar73cO4j3zyqTatRG3d0zGukpR334Y++vM09lg8wG82P8CXlJ/Lz7Ris1XmtfHoGX99bj9/mcxYp5PqNUteLxzh3lCRDTxCg+Wq3ege28dVpTO008z/fvwhc0Poad/WD8/09uObevuwzPOUySuXI+vd+0oMGCq7/8yg/fN48l2dmTi11VWvwNbUiXm2WxQiu2fWor56tHIS5348tomHHzVeWeszj71Dt4xjyfOSjQ3VqPM+WdJRDQpCgyWK/H1e2tQ4Z6QPhjEEw904qx56juBL/ee9rK2+eU12PPwbEq14pWt34v9DSmEWpJnupp7cdPiDM50NauLon04bl6eXlai6VAL1pUzUhLR5CooWJZ95W7cVGqeiDd/gj1vm8dRB3+CM78xj5VEqgbN15kns9CSzW149Cs3zr7MprcJa1I3Y+Pep2IuiqaBy27BniN7Ub90Vl2iENE0VcAAn1I0d3WHBmecPbYNt9/Xb55FlWJPTzduu8w8Vc4+pT5/f+DzV67Hnua78alyM0AoM4yT/RlcUV1psrO4AT6luK3pXmxZm0LFJaYpeLgfPQ/vRutTpu1XXHkX2vZ+DqtK1ZI+eB9nX/xHtLz6STQv78PtDWaBdW14vsnPBKMDTcpuaUDTZz+NFVeWIuEGwfczGDr2CHbs7MIZ81L9g4/ji9UluqkyS7oXy9fvNk8isgYZOfvbkWzD9vUplF2oXvp1Gk+2N2F7V2DftFJs2LUHW26oRNLswHvqsz9+4hD2tLqBLW7QlEijJ7URLdH3g9uqfpvmxvW4obJULd/s/AcZnP3Zd9H2wD48mesiKUoFs6b778a6a9QxlN9YH7/TmL92JcqcT8QM8FmMDfc3YsMnK1FW4g8ey/qdr2vE4b11WJK1fyL4b6fA5RERWRSQWdag4sPmofHeb3IFSjGM/xHpECxbuNI8Ui5TJ+p99+K2y9XJ671BdNRfj43fHkbFajdQxilF/cMHsKduJSouHEZPk/pO+2n1cgr1za1oXm0+Js3FextUoJyPM531KgA04civb8XXNy/FxeYTNmX1bTj8wF246bJhtG2+HsvrH8Lxf1VvzEugYu29OBBoVu74yu24rrVfnZ5dcqJW30mpv1yBUuzamDWg6eLVh/H1ehMoxSXluK2xBZvNU4cMInoU29eqQDlfBdP7a9VFiAqQF5ZjVV0LDrfXmUDUiZa9KqgHMnz5XZ6sl0ApOrG1vhnPqP16L/0Utn/JbKv0Sx+8F+uuBJ7fuxHL1zXjyOvqx7wggbJUHb760A6scD5psRLNf3c/6lMSKIfxjGxny1N4/0Y/UGZT3+k6iO3rqoAfPoTa62rVhYJzjBLu7+y2ULy4Dxurr0dP2jwXEvDluKts2AmURSyPiMiigGD5R0i4J3Atg5HgSSrGW//dDx/avIvMA5WN3b8JKy5xHo+89E9ofRU4c3AbvtqX+yq/rKEFX7zOGTwz0q8CwXPynT68JquZV451Dfc6J+G167FMNxfPQ+KSJPB2Pzp2bsT23nSBo19vwfbPmYyzpBI3LVf/fbULJ3/u70/iypWoN4/HIzygKYEl1yTw47212PZE4DioILgi0OWrj0PKuaR4b/BZbFeZ0dmnmnF0wNm+RKoBX29y2svPPvUQvtzp9x8DSSy8NdCW/vZCJOcN4siXmr1ssanB9EtfWIplKtDh7aew54y/PfMvr8Jt5nE+K3Y2+v2Ir5/QGVz29kQ0qSxUf2ceyqquVb+nCu57B/0mYPU7L7vFPC7ERC+PiOa0gvosJ47K2K7088d3RnrNI+D4wHAgQwsqxeY1zqhMEfyO5/Kl2CD/TczzPle2di+OtTfq5uDjKpNb4zbB5jWKjJeNqWzqqpR5PPlGXnwE27qGcVwFJ/84zMd8LyUOH4f33/PHlT7zr+435mHJDXd72d/Z9u/ix6PmSeS9FQ98GmWvqouVQLPqO79xw7cKMAuvNo+LlcK6a/wm5sw7KlCax2fb38rd//nO+14gnf/RhVD54PhM9PKIaE4rIFimMRKKYgkkIzeXRyUvDjeoZtxUdG2V38woGeob5mFe4Wbgihrnvr+X+gN9bhckUbFW/ffIP+NUIDgkU3XY03EYe9YHRyfl04/tjdvQeuQp9Bxsxtb738GG+w9gQyDAT44Mhl6IuQhQ+5Dw9n09rgj0A7/zr8+aRyoI/Xug3bu0PHC7Ti86zK092mUp1NfIg5TaJ+DH3w6v8+DmzWg51IsnjzyEL2z+Z9zWsBeHV1t+7CwrsTBwuM8NF3KRohzcgi/s+iZ6nujCnoYtePIWlSV3VqPCvF20iV4eEc1pBQTLTpz5hXlozL8wX8ZVigUfMg+Ns6+bE+YlfuZXuHAzsAwucvqmgn+3Y9sT8m4vtj3QhTPB4J4ox233PYrDXwn0m+YjTbcPfhsDic9g/4kObFt0Gs+8Gp/znl8XYV5gtqT3/j1Hs/UF80N9vyfbT+DMB+YJSvDxmrvU9Ucdlvz2BNpeNC97XkfPwyrA/Gopdvd146u3AD0nLG3uWcLbWQy5V/dg7zCWNz+Nx5s/Dfw/JzBk3huLiV4eEc1dBTXDtn4/3NdU9sf5Ak8NSoP35v/mNI61msfeSdv4ffPfIuRft/LcQ9hY/xCefDMUMbFk/d3YHsjMcpLRtL0H0bwhheRwL7Zv2jc5s84U7V28Hz1+cT54L9yc/fZDOHbazzznL61G29pyjHz/oewm0ctuwfaOR7G/8RZUfNCPhxvvw5F/N++N0fzfLzSrL3Uuah5uxG2XS5Dfhi8fydnDWYCJXh4RzWWF9VkePIQn0oGmvsuvzR14Nl+LJV4m+D6GnnoEB80zHHkdZ70Tvr051/ETDHtNq8rlN2KPN/pVrMSeQ23YFtyet7uwfcMXsL3zNEbc9V1QioU3mMc51aDt72Q0rQwMeR9nju2eRjfjn8BbgWTy4kv80Sn1wauTX/0ia5sP9vb7Af+CSqxamMZR70dxlaLpa/d7Tc5n+7+JjkJvEwkJ/14Xf/hG8yi/sqY9+Or6Suc2k+Gf4GBHjsy5QBO9PCKa2woc4HMCLV9qx8lfm6fqhLv2fvc2hSAVbD7rD0LJ9LfjngeCt5l04eSbftAtW9hgHqnHyQTM+EllPi6+dLF5/BSeeSVw9lVB77adB7C9Rr1/WQrb9t2Lyl91ok1O7HVtONbTYvrshvFk6xbs8EbZvo/33e3PZcOnscyLO/OQvPwWlKlMc9WiQMPmhQmU5cxQ1XtLUrht12Ec3rnUvDZR+tH2vH+7yfwL/QB58Xxv2A/OPLsPJ80zT28nfhwIfGf7O9FjHvvUfi72f4Fk6UoskRv/q4KZYQILdJ9nPuHfK1Fa5d9usvri0C08FyfU8TWPN19X6TfRX/JRrLpS/c67qkL/xi5O5ll5SSnqU3fh0a42PVp53MsjIgooMFgqb3dia2M7jg87wU5uU3i0/V6sk1sMlCU1DWjruRer9Dn8fZw90Y4tDdEp8YbR2v49DJl4Of/KT2PPLaUou+Ve7F6ddF7U5mFJXQde6nImx+5p+jaOB7PLS5Ziw071fk8b/rfSfrTed8J5vXMY76gT/Nd725xgisWoMnfuv/fmD9Gh+zXVtl4aDMzSVGgCc8YfQSnKqlvw+MFbkXk1kJWoC4UNRw779+h19mMocD9j2do27FnzHk4eOm1eiRfeBpVl/7GzDTm3TTnb+g0cMf2niaoac+xa8KlK5xuZ13vR1hqXQalAe2LQefjBII63x90nG27mnX9lHQ53NaLkrbcCx6QEq3Y+bZ0svufvvu1fWJVeiy9uVvsgzdubFof6rJNyfPuc4JYJNjFfWIn6jm58+cNpvBU4tsmVO/B84D7XJwcD+5pIoam9AWU//2d0qKdjWR4RUS4XXJS4+Kvmsd25l/DE//0Ufvo/PoSPJD+CSxen8On/ZQMatm7G+j9bjo/8h1/j56eP4dCuv8Jf/l/Px/f1/cvzOP7/XYKrly7CpYlL8Kc3bUDNR1/Ff3kSuPaaJD741Rs49eIJPPlPh9B+8L/irL5D4jSe+MHbuHBRJSpU8NMzsXyQwcjAd7Fn+9fwfe8uihuw7sbT2Pmd32DtXU346pfXY8WC953P3f81/EA+t/Mwjq1fFOouvfhP1+HTlx7EkYMqwC25AR/7jwn8/u/eR+atY2j98ja09l2Aq1dfgz+WNr3fpPHM/9mEHU+7PYMv4ceZRfjEx8rxh/+TeppJ48l9/wl/80KeQUEx2/CHV6pt+NhybLylCsHbWr1t+4E8G8aPel7Ef/+PV+KKskVYdtsGfO6mRfjD34zizDP/gC9vO4if6m9ly5y4BJ/4fAp/+FoXvvCtl8yrQS/il394A264Ion56hJKZrk58rf/CTv+y5tYsGolrl6gwtwHozj1rV343w9a2mffOY3v9v87/vQa9XtdksClqXXYdN37eGLXGyirWYjfH3kbZ069iB/0/le07/8GvnsO+NG5S3DjdVci+T+r78uMTv/0EP6P+x/B/5v0t0kmdP/rhoP4ubMWnP2++jexIoVll8oRUxdo/UfwN/d06PfHsjwiolzGUM+SiIhobim8GZaIiGiOYrAkIiKyYLAkIiKyYLAkIiKyYLAkIiKyYLAkIiKyYLAkIiKyYLAkIiKyYLAkIiKyYLAkIiKyYLAkIiKyYLAkIiKyYLAkIiKyYLAkIiKyYLAkIiKyYLAkIiKyYLAkIiKyYLAkIiKyYLAkIiKyYLAkIiKyYLAkIiKyYLAkIiKyYLAkIiKyYLAkIiKyYLAkIiKy+L1LS8t+Zx7ndM8X/9w8IiKiuegbD/+DeTQ3WYOlBMonnnjCPCMiorlo7dq1czpgshmWiIjIgsGSiIjIgsGSiIjIgsGSiIjIYgzBciP+/nvHcfy48/et7eZlIiKiWWrMmWX68VVYtWoVPr/HvEBERDRLsRmWiIjIgsGSiIjIgsGSiIjIgsGSiIjIgsGSiIjIgsGSiIjIgsGSiIjIgsGSiIjIgsGSiIjIYszBsvx2TndHRERzwxiC5WH8xa3OVHec7o6IiOYCNsMSERFZMFgSERFZzKxgueHv8T1dGuxbuM+8JO77tnrte3+PjerVb6n3v7dvo3lnipjtlP7cjfu+l7W9YzZZy9VM6TV9HHPT6/12ZK1mu4o77oHfavu31L58D3+/wbw1LpO13Knh/87m94ke+8mQ4/9nRHPZDAqW6mSx6VqM6NJgn8de86pIj75rHjlGfnHYPJoiR36BEfNQe3cUafNwXHIu160xGji56RPedD7ZpRH+2UbwiyPm4biMb7mxFwMFcX6DiR7wdvgXoV9c/eQT8i8pEBDlL3JBceQvcOuqVWj7aRJ3nI/gTDQDzLBm2HcxOmQeRo3+AoezTpRTydnW6Mlu/HIv9913k7hxzFm1Gbh161+oR0UyJ9dbG4u/SNEXNkOjaq8m1mQtd0roi6LD+MWoeT5uKvu+pxKD3zAD9b4xiMp7si+sJv7fLtHM9XuXlpb9zjyOdc8X/xxPPPGEeTaV5Mr9LuDQrfiLgjMFaZK7GqPqCvnaj12kX3n3p23+SV2uru+5Fs47yrs/QZsJFtK0e/XoT5D8mHr/Xx7DY7gDd/yJU/TaGQEsy74D5fJQCS23AJLBbPsY8JNvFLM/ucix2YaSHzwG/NlH8Zjsg963EjyrsvC0rGvxoLdvQvbvxlGzzdJcebvZE7Wvqz4XzNvdbfWOUugzshw5LsI/Nkae4ztlotvk7kv0dcP/XcO/t2Swj5kWjqzjo73r/bahY63EPXePYfB7hTHbFfO75aK3t+RZ7/Pu9mf9fvLv4uqXC14uzW5r167FNx7+B/Ns7plBmWU5Si4aS1NdOa6VQKGvoH8CfOwO/wraZETubTCPjV6LOwLNaOUfU8FGfefdP7lDn9we+xcg+VHJ3CQ43YhR98p8VRsGF981DfrG9uLlyD6Iw43PIn1RJT7hbd99uPpP3sXgD03Y2vN5vR9tP83Ow/SJ1D1+MZ/Z+zln/38Sl8JZju9UuK/Gbco3f24g8Joe1Y5I4DHv+xdAe/F59zv6c34Wf7jxVvWacwwk4DifKTDgqSB9Y4m6iPCWPREXT/mVl1zkNedKoJbA6f/bDpDMvOSj6l87Ec2IYCn/hz6uMsSXI32VhVFX6odMNqP7/JL4aCBoyGAQp9/GuboPnjDe/eljZn1pPOudNJUNn0DlRRfh2nvc727Dtep5SYV5vwDOCXbiT4x7e1U2/GfRQTp78dhPgcpPmle3X60ykWcLWPdGfGKxyjh+MNZsMP/xnQrSv60n1Ci6L87tF3b+JBO7qMTPM8dM/k1edC22jXkgkgniRWd/5Xp/5CIw53flAuIQcJfa3ykfNEc0xWZEsHSyl5dx9QQPWLnv26b5ylzVy9V1waRJ0csGnL9pMUGDOsE9O6qyyEjgPvzDQWDxJ3QQve/qcqRfLv6yo1jjOr6TxLlIUdvz8tVO4LOM/nVt3HcXroX/m8dl4WPjZqzfBDY5gXiyZ8WSC4aLPnYHSn7gZs4b8dGSmIFx0jS9Cfim2j4/wyaam2ZQM6wM3glmhePlnCC80YXSHOb1G1mYbOCucVxtS/PmZN3WsPflEVz7Z5XmmeEG0Q334eqSn+CxggK7M6ik/GpzibL9WzF9c7mM4/i69K0fk5TV6Kbnx5C+qCTQD6n2WAa1xDQ9StOlM4hM3Ic7so6Dc6xyZc5eFqr2ye+fDHIGWEkQLi77Ntl7EZmyXDi9q/7/9LL7b2D7Hbj2osBzV0UJLvL2OcjNsnlrCc0dM2w07ERSJ6cfpNUV9jYnw7inBIMFZwsqG9D9n+a7+m8anTj2PKZyoIuyBqvoIHrPHUCkWdUJ3E7TIv7kDmd/zMl37+dUQHFf+7NRtD0evHXBPWlKM7QKKKH5gsdzfA0zmnVCmju1cFPq8ePqWDweadrXx06aRZ3PuIFamrel79r53o0Y/Wn2LRzyGf/fhH8hFPquOoaPBY+DuSBw/6R/+JuTncVJ8+rjwB3uem+HN1ipMO7I3Im8eCWa3mb5aFia2eQ334bK14sbaUwTJN9oWHmv6CBLMxlHw84oF/mDVGhWc7JdBsqptPGjSfMoyDT7MlDSHDODMkvFuxfOv8eNiCYY/39GMeZ6ZjmzgiUREU0JNsMSERFRXgyWREREFjMrWEpfih7uHr5NQ8/wwxJdk8M75u4xLsJsOg6TJvBvVt9Gcn5KijmzYnFmHqJCzaBguZEluqzLde8jnMDgYeZMXRW6v7JAU3Yc8nGOkXMvaJEkmBV7wWA1WaXKFO8ezux/D86sWI9h5GPTYU5joulvhjXDskRX3uXKnLWjj+GxfynH1WMJBpNiCo7DDDTRJcV0xp01iUTUdPr/C9H0xhJdOUpISTPVzCnR5ZBl3vGLW/F5RG8md47DyzJrS0wpLr2vLz8G3O7uT8wtA5KlyMk3q8TW+I7DZJD9iSt55Rzz6LxGgZJYOf89hPfR4x1DeV+q0Li/ZfS5M7mCzHLkKPKWDD0BQHl2Ca1C6O/muidyLP+formKo2FnDJboyk8qhIw483vueRnpP7na30+tHHdIsNPbK1PY3Rja3vLb/f2RzLSwItLT8DiogJer5JW1lFbOfw9msnPJ0oIT6Oeq1hElc6+qjN9dbrQbYerItHXFVcshmqtmRLB0BiOwRFdeckKG23e3Fy9nNcUGjoN+P7y97/70m9627H05Xdh8rBNwHCac/MZjLnmV/9/DmEnzqp4bdox9yabe6GRUtZG+y5evlv2dyYOkiCbfjAiWLNFlJ2W3oIOEf6L3qoVMpmlXqmzsJa8mraSYl7HKv2HZpvMz4rUQThO8bNt0yXaJpqcZ1AzLEl253Yer/0T63pyTvPMnTa3RplhD72tMSSZtI/7+zwqsdznu4yDNuJOV1eQqeZWrlFYB/x4kQ4yU9PL5GbUOus7DCCeQPxbJ6q3MqNYxjeDNS/Y5z6A5IvLMsNGwE2kWlejafjXK3x3Ej0JNunJxEex7DDSX3lOJwW+EMwnvOJjJy73s0L39QAYGuZmrd/vEeI/DJJR6crfX/MWVvIovpVXAvweVIT77L+V+aSuvhuReXXbLLVF24+hjul/U5VwYme+ovzvw2ORn38HfTfqr5fGE3/ZCNHewRNecEB2dGSZNcTKAaUpGseYdrUmTi/+fosJxNOyMwhJds4cZTMNAOYVkhLl5SER5zaBgeRh/cchtPuPIvZnPHYjDQDkVnBHmdyAZGAVNRLmxRBcREVmxGZaIiIjyYrAkIiKyKD5YyvyZZgg8+w6JiGguKD5YurORyJyp5iUiIqLZjM2wREREFgyWREREFgyWREREFgyWREREFgyWREREFgyWREREFgyWREREFgyWREREFgyWREREFsUHS3e6u3uuBUvhERHRXFB8sHSnu2MtQiIimiPYDEtERGTBYElERGTBYElERGTBYElERGTBYElERGTBYElERGTBYElERGTBYElERGTBYElERGTBYElERGTBYElERGTBYElERGTBYElERGTBYElERGTBYElERGTBYElERGTBYElERGTBYElERGTBYElERGTBYElERGTBYElERGTBYElERGTBYElERGTBYElERGTBYElERGTBYElERGTBYElERGTBYElERGTBYElERGTBYElERGTBYElERGTBYElERGTBYElERGTBYElERGTBYElERGTBYElERGTBYElERGTBYElERGTBYElERGTBYElERGTBYElERGTBYElERGTBYElERGTBYElERGTBYElERGTBYElERGTBYElERGTBYElERGTBYElERGTBYElERGTBYElERGTBYElERGTBYElERGTBYElERGTBYElERGTBYElERGTBYElERGTBYElERGTBYElERGTBYElERGTBYElERGTBYElERGTBYElERGTBYElERGTBYElERGTBYElERGTBYElERGTBYElERGTBYElERGTBYElERGTBYElERGTBYElERGTBYElERGTBYElERGTBYElERGTBYElERGTBYElERGTBYElERGTBYElERGTBYElERGTBYElERGTBYElERGTBYElERGTBYElERDm9+eab5tHcxmBJRESxJFA+8sgj5tncxmBJRERZ3ED5t3/7t+aVuY3BkoiIQhgoszFYEhGRJxoo2WfpYLAkIiItLlCyz9LBYElERDkDJZtiHQyWRESEyy+/PBQYo8/nut+7tLTsd+ZxTvd88c/NIyIimou+8fA/mEdzU0HBkoiIaC5jMywREZEFgyUREZEFgyUREZGFtc/y4osvxnUfT+n/zgXvvPMOXvxxv/4vERGRsGaWcylQCvfigIiIyGUNlnMpULrm4j4TEVFu7LMkIiKyYLAkIiKymMBgeRMaH2xDW5v79yAaP2XeyuGmxgfR9mCj+uY4fP6v1Lr+CnXmKRER0USboGBZh79qW4fL3u7Btm3bnL/ut3FZbRsebBxXKJxQdX+tgvhfM6wSEVFxJiRY1v31Slz6qxP4yr5nzCvK9/fhKy/8Eh9a/AlmfURENKNNQLCsQ8VHgF++1WmeB3xrCL/Epaj4vHkeaqp9EJ/4A/Oy61ONeDBXM65ubs3xXlDoc35mK02+K9V24iMrmV0SEVFRxh8sP5XEH+C3eGfYPA/5Fd75LfAHf+QGrFuxGK+jRzfV/kwFrg/p1x11+Kvaxfi3F0wz7gv/hsW1bl+keu/6P8Dr3YH3bovr64x+zs9sn9n3FZz4lXqgMuBt/zkmsBMREeUwgQN8bG7CVZd9CL99+xU4jbWd+NHrKpK6Pl+BS3/7On70LfP8Wz/C678NZqUfwuJPmozwW3+DbV/ZZ5YT1Im/2fYV7Pu+8+ymP4qmrkRERMUbf7D8/gj+TQWyi0vN85CP4GKVPP7bf5OwFnzseOa//Zt5ZALbhxZjndeEug6L1eedrFSC4An8UppQ3fdjm1LDI3Jvvcy8TERENA4TkFl2YuhXwKULY4KXZIv4JYZ0thhukhXBzE8HTpVZOk20/p8/aEgCpnm9+3X8VgXOv/KyTuPzn1AB9pc44X73lB+MiYiIxmpCmmE7/7OT9YVuE5HBOtdfquLfj1SYE8/glbd/Gxgd6zTLemQwkMosP+EGQDPYRwdE/TgwqEdns7n6Sf8ASf05lWUuu1S/QkRENB7WqiP/67o7zSMbaQJ1mk4dv8Xr3X7/oUvuddSjUpVf/uqXuPTid9Dj9j9KUKxdDHcRv329x88sZZSrCr4u7z39OlQ2+TcqKAe3Qa3/hbdx2fWX4W13O9xlSAYb2+fp+6eeo+YRERHNdRMYLGcXBksiInKdx9GwREREMxODJRERkQWDJRERkYU1WL7zzjvm0dwxF/eZiIhyswbLF3/cP6eCh+yr7DMREZHLOhqWiIhormOfJRERkQWDJRERkQWDJRERkQWDJRERkQWDJRERkQWDJRERkQWDJRERkQWDJRERkQWDJRERkQWDJRERkQWDJRERkQWDJRERkQWDJRERkQWDJRERkQWDJRERkQWDJRERkQWDJRERkQWDJRERkQWDJRERkQWDJRERkQWDJRERkQWDJRERkQWDJRERkQWDJRERkQWDJRERkQWDJRERkQWDJRERkQWDJRERkQWDJRERkQWDJRERkQWDJRERkQWDJRERkQWDJRERkQWDJRERkQWDJRERkQWDJRERkQWDJRERkQWDJRERkQWDJRERkQWDJRERkQWDJRERkQWDJRERkQWDJRERkQWDJRERkQWDJRERkQWDJRERkQWDJRERkQWDJRERkQWDJRERkQWDJRERkQWDJRERkQWDJRERUV7A/w+fHrHcx9gQ6QAAAABJRU5ErkJggg==;" vertex="1" parent="1">
          <mxGeometry x="-2390" y="875" width="459" height="547" as="geometry" />
        </mxCell>
        <mxCell id="9wkwWSCI9OqaNVQ2Mww2-16" value="&lt;font style=&quot;font-size: 28px;&quot;&gt;Nebo přes parametry v URL&lt;/font&gt;" style="rounded=0;whiteSpace=wrap;html=1;" vertex="1" parent="1">
          <mxGeometry x="-1850" y="930" width="190" height="160" as="geometry" />
        </mxCell>
      </root>
    </mxGraphModel>
  </diagram>
</mxfile>
